<svg xmlns="http://www.w3.org/2000/svg" xmlns:xlink="http://www.w3.org/1999/xlink" width="110" height="42" viewBox="0 0 110 42">
    <defs>
        <path id="a" d="M.338.063h23.999V1.35h-24z"/>
    </defs>
    <g fill="none" fill-rule="evenodd">
        <path fill="#60584F" d="M0 40.2c.752-.173 1.504-.462 2.141-.982 1.1-.924 1.678-4.851 1.678-11.84V10.916c0-5.717-.578-9.01-1.678-9.992A4.906 4.906 0 0 0 .232 0H27.6v5.833h-.347c-.636-1.79-2.025-3.06-4.224-3.87-2.72-.98-7.811-1.5-15.276-1.5h-.347v21.138H14.003c2.372 0 3.992-.288 4.86-.923.867-.636 1.389-2.196 1.62-4.679h.29v11.667h-.29c-.116-2.54-.81-4.1-2.025-4.62-1.215-.577-3.703-.867-7.58-.867H7.407v5.2c0 2.02 0 3.695.059 5.024.173 1.849.173 2.425.578 4.274.462 1.79 1.274 2.83 2.604 3.291h-.058c.173 0 .29.06.463.117.173.057.579.115.752.115H0zM109.555 0c-.582.171-.988.344-1.279.516-1.742 1.09-2.613 4.645-2.613 10.725V40.2h-1.453L77.255 4.99v23.512c0 6.022.813 9.634 2.497 10.781.466.287.988.46 1.628.631H72.2c.523-.115 1.047-.344 1.57-.631 1.684-1.147 2.555-4.76 2.555-10.781V9.176c.059-1.09.059-1.72 0-2.007 0-.287-.058-.861-.116-1.664-.058-.86-.116-1.376-.29-1.663-.233-.515-.755-1.95-1.51-2.41C73.71.976 72.608.288 71.155 0h6.681l26.78 34.982.174-22.94v-.801c0-6.023-.87-9.636-2.613-10.725-.29-.172-.755-.345-1.337-.516h8.715zM47.273 8.4c.388 0 1.076.06 2.002.183.955.092 1.642.153 2.03.153.18 0 .42-.03.688-.061l-.09 4.558c0-.093-.24-.123-.24-.215-.118-2.11-.865-3.12-1.851-3.487-.387-.153-.687-.244-.895-.275-.389-.092-1.494-.123-1.644-.123-2.39 0-3.794 1.683-3.794 4.13 0 1.161.389 2.172 1.195 3.027.807.825 1.792 1.285 2.987 1.376.36.031.33.062-.09.092-1.701.092-3.226.795-4.54 2.141-1.284 1.345-1.94 2.844-1.94 4.527 0 2.11.656 3.792 2 5.108 1.345 1.314 3.017 1.956 5.078 1.956 2.061 0 3.883-.672 5.497-2.018 1.642-1.345 2.45-2.968 2.419-4.863-.03-.948-.329-1.927-.896-2.874-.568-.98-1.375-1.5-2.45-1.53-.149.03-.507.061-.657.061-.986.092-1.791.275-2.39.551-1.194.581-1.941 1.957-1.464 2.966.24.459.569.673 1.016.673.21 0 .539-.06.956-.183.419-.154.687-.215.837-.215.269 0 .478.123.567.368.21.488 0 .887-.656 1.222-.27.123-.539.184-.777.184-.866 0-1.554-.49-2.091-1.437-.867-1.742.03-3.7 2.091-4.71.716-.337 1.911-.612 3.615-.765 1.701-.153 2.777-.367 3.285-.61 1.075-.521 1.494-1.439 1.045-2.325-.537-1.162-2.718-.459-3.017-1.193-.149-.275.03-.795.419-1.01.238-.091.447-.152.626-.152.807 0 1.643.733 2.031 1.466.868 1.715.24 3.426-1.791 4.436a5.335 5.335 0 0 1-1.494.489c1.046 1.071 1.583 2.6 1.583 4.588-.24 5.169-5.167 7.187-8.662 7.187-4.182.123-8.961-2.905-9.05-7.126a5.752 5.752 0 0 1 2.478-5.016c1.583-1.1 3.167-1.711 4.72-1.988-6.363-1.284-5.974-9.266 1.314-9.266"/>
        <path stroke="#231F20" stroke-linecap="round" stroke-width=".5" d="M60.355.6h-24 12z"/>
        <g transform="translate(36.955 40.2)">
            <mask id="b" fill="#fff">
                <use xlink:href="#a"/>
            </mask>
            <path stroke="#231F20" stroke-linecap="round" stroke-width=".5" d="M24.337.738h-24 12z" mask="url(#b)"/>
        </g>
    </g>
</svg>
