<svg xmlns="http://www.w3.org/2000/svg" xmlns:xlink="http://www.w3.org/1999/xlink" width="43" height="82" viewBox="0 0 43 82">
    <defs>
        <path id="a" d="M0 .72h34.608V84H0z"/>
        <path id="c" d="M0 .72h34.608V84H0z"/>
    </defs>
    <g fill="none" fill-rule="evenodd">
        <g transform="rotate(-13 10.835 7.058)">
            <mask id="b" fill="#fff">
                <use xlink:href="#a"/>
            </mask>
            <path fill="#FEFEFE" d="M11.894 81.114c-.302-1.673-.226-3.352-.105-5.028.043-.617.197-1.23.352-1.824.291-1.118.617-2.224.938-3.328.118-.404.239-.817.413-1.184.36-.748.624-1.54.834-2.364a6.548 6.548 0 0 1 1.358-2.654c.322-.377.65-.758.92-1.19 1.012-1.613 2.195-3.037 3.297-4.551.535-.734 1.145-1.334 1.928-1.661a4.87 4.87 0 0 0 1.36-.837c.755-.677 1.575-1.172 2.442-1.568.491-.227.877-.594 1.16-1.152.39-.774.892-1.422 1.517-1.922.851-.682 1.688-1.39 2.541-2.07a9.645 9.645 0 0 1 1.075-.747c.3-.175.515-.433.702-.76.403-.704.832-1.386 1.243-2.08.225-.38.455-.758.654-1.157.074-.151.096-.37.081-.55-.026-.352-.235-.542-.49-.647-.236-.096-.435-.02-.586.237-.409.69-.816 1.385-1.232 2.072-.169.278-.332.57-.54.796-.329.354-.722.627-1.04.996-.375.433-.879.423-1.31.653-.865.46-1.768.833-2.68 1.141-.665.228-1.365.306-2.053.44-.215.044-.435.06-.654.083-.98.095-1.858.44-2.475 1.463l.032-.036c-.217-.043-.434-.09-.597-.122l-2.738 3.663c-.51.278-.659.905-.912 1.428-.416.864-.83 1.728-1.353 2.503a1.352 1.352 0 0 0-.205.526c-.08.525-.335.92-.607 1.291-.358.492-.53 1.044-.531 1.703 0 .555-.155 1.038-.392 1.536-.43.905-.892 1.803-1.115 2.84-.098.453-.202.905-.335 1.342-.05.156-.192.372-.297.378-.168.008-.357-.107-.503-.228-.092-.078-.143-.261-.168-.407-.106-.607-.274-1.205-.13-1.844.04-.18.028-.391.001-.578-.107-.768-.235-1.53-.34-2.297-.036-.268-.03-.545-.04-.818-.01-.27-.008-.543-.023-.814-.032-.544-.088-1.085-.104-1.63-.02-.741.014-1.487-.018-2.227-.033-.79-.005-1.574.22-2.313.242-.795.26-1.618.222-2.43-.035-.765.078-1.485.265-2.18.318-1.186.335-2.384.222-3.591-.247-2.613-.367-5.223-.079-7.84a8.899 8.899 0 0 0 0-1.986c-.125-1.125-.232-2.251-.323-3.38-.072-.882.046-1.705.521-2.425.195-.293.32-.653.494-1.02 1.033.124 1.931-.398 2.848-.83.237-.113.46-.272.697-.382 1.052-.495 1.826-1.388 2.43-2.535.291-.56.688-1.077.848-1.687.18-.684.642-1.05.904-1.624.296-.642.688-1.218 1.021-1.84.472-.87 1.107-1.628 1.275-2.718.017-.108.09-.206.138-.305.43-.885.714-1.836.84-2.85.14-1.129.55-2.06 1.214-2.855.38-.458.797-.897 1.047-1.502-.052-.247-.052-.518-.157-.69a22.084 22.084 0 0 0-1.207-1.804c-.212-.28-.503-.48-.782-.665-.153-.103-.381-.192-.528-.125-.302.138-.555.02-.83-.06-1.175-.355-2.271-.97-3.395-1.507-.532-.755-1.175-.86-1.895-.49-.141.071-.291.174-.21.47.612.032 1.237.071 1.86.095.088.002.18-.068.27-.106.035.226.154.499.088.67-.17.456-.078.821.104 1.217.18.386.235.825.125 1.252-.194.742-.378 1.493-.643 2.197-.152.405-.207.803-.277 1.223a121.784 121.784 0 0 1-.827 4.335c-.125.602-.34 1.176-.49 1.773-.365 1.447-.638 2.933-1.12 4.337a1.81 1.81 0 0 0-.07.46c-.072 1.07-.38 2.058-.72 3.027-.111.322-.26.632-.437.903-.328.502-1.266.26-1.426-.362-.043-.17-.03-.389.016-.56.135-.48.64-.66.674-1.24.003-.053.086-.113.14-.144.44-.262.5-.766.535-1.278.031-.468-.035-.974.085-1.4.208-.728.093-1.427-.09-2.065a4.825 4.825 0 0 1-.152-1.94c.083-.705.107-1.394-.207-2.047-.111-.23-.118-.53-.213-.775-.227-.593-.243-1.199-.15-1.831.079-.537.217-1.096.162-1.617-.092-.852.11-1.724-.149-2.56-.078-.253.066-.464.216-.606.12-.113.28-.177.43-.226.608-.203.961-.724 1.181-1.413.14-.434.264-.876.404-1.35l-.224-1.146c-.505-.384-.905-.69-1.306-.992-.162-.122-.322-.25-.49-.355-.35-.215-.677-.42-.69-1.007-.004-.156-.155-.325-.264-.456a28.476 28.476 0 0 0-1.056-1.186 6.715 6.715 0 0 0-.765-.698c-.22-.17-.477-.241-.73-.102-.819.444-1.765.087-2.567.632-.318-.11-.535.098-.768.328-.137.133-.359.253-.517.214-.438-.103-.685.379-1.06.442-.394.067-.72.314-.977.679-.245.346-.54.432-.855.226-.412-.269-.79-.188-1.178.05-.142.087-.292.16-.444.214-.716.257-1.313.748-1.84 1.392-.711.871-.71.885-.178 1.98.359.74.714 1.509.802 2.363.078.732.22 1.462.233 2.189.027 1.332.644 2.432.839 3.687.615 1.356 1.06 2.813 1.673 4.178.617 1.373 1.281 2.686 2.045 3.932.19.309.388.61.591.907.224.326.464.636.684.964.548.81 1.082 1.621 1.877 2.117.623.389 1.184.905 1.443 1.78.065.219.185.412.291.604.149.266.229.547.226.878-.012 1.288.083 2.58-.144 3.857-.027.143.007.304.014.455.068 1.594.278 3.176.175 4.788-.062.934-.107 1.858-.27 2.787-.112.63.03 1.323.011 1.987-.018.658-.098 1.316-.15 1.975-.003.037.008.079.005.116-.083 1.09-.113 2.195-.273 3.266-.1.663-.234 1.329-.1 1.968.235 1.125-.185 2.268.125 3.375.018.066-.012.155-.027.23-.303 1.632-.325 2.16-.193 3.33.098.882.463 1.722.273 2.651a.205.205 0 0 0 .017.113c.25.522.108 1.06.072 1.603-.042.575-.004 1.16 0 1.739.553 1.469.464 3.036.47 4.592.001.386.038.777.098 1.157.173 1.079.326 2.141-.107 3.196-.142.344-.19.744-.298 1.11-.114.383-.15.779-.022 1.147.132.38.135.756.12 1.149-.082 1.927.095 3.823.444 5.7.07.379.118.775.108 1.16" mask="url(#b)"/>
        </g>
        <g transform="rotate(-13 10.835 7.058)">
            <mask id="d" fill="#fff">
                <use xlink:href="#c"/>
            </mask>
            <path fill="#A09C96" d="M6.136 6.018c.61-.415 1.177-.29 1.739-.223.153.02.365.124.448.04.378-.386.868-.23 1.26-.455.753-.432 1.477.054 2.213.024.312.28.667.175 1.01.158.522-.024.529-.041.6-.884-.18-.204-.391-.388-.538-.628-.255-.418-.598-.56-.988-.598-.189-.019-.38-.012-.57-.009-.38.007-.74.005-1.097-.253-.356-.26-.778-.306-1.2-.239a2.896 2.896 0 0 1-1.588-.173l-.587.696A57.383 57.383 0 0 0 6.2 3.34l-.61 1.944.546.734m.655 16.001c.017-.57-.136-.99-.298-1.41-.148-.39-.265-.796-.433-1.17-.465-1.033-.648-2.194-.96-3.295a25.773 25.773 0 0 1-.873-4.908c-.106-1.284-.152-2.573-.222-3.86-.045-.832-.187-.994-.885-.994-.063 0-.127.012-.19.012-1.049.018-1.029.567-.802 1.386.12.443.307.899.3 1.344-.016 1.264.188 2.488.31 3.727.035.357.095.677.244.993.254.536.541 1.075.68 1.663.125.535.308 1.011.52 1.49.104.24.176.5.261.752.17.504.314 1.023.515 1.509.273.654.577 1.296.895 1.921.197.388.39.823.939.84M5.566 7.51c-.09.283-.188.434-.176.571.08.888-.052 1.783.148 2.675.227 1.011.437 2.047.558 3.077.152 1.284.424 2.516.699 3.758.107.481.298.937.47 1.395.225.603.542 1.17.687 1.8.181.787.425 1.502.746 2.223.372.83.832 1.548 1.277 2.3.303.512.695.9 1.06 1.316.26.293.6.574 1.062.506.138-.839.096-1.614-.245-2.366-.202-.44-.377-.905-.527-1.377-.31-.972-.585-1.96-.893-2.931a3.433 3.433 0 0 0-.382-.808c-.447-.677-.754-1.434-.987-2.256-.218-.774-.363-1.565-.51-2.365-.245-1.344-.415-2.68-.302-4.051.059-.737.176-1.466.252-2.2.04-.384.08-.774.072-1.16-.008-.353-.242-.562-.532-.482-.208.058-.408.187-.603.304-.288.176-.549.308-.9.152-.28-.123-.615-.058-.974-.08m5.934-.042c-.135.08-.243.189-.36.203-.392.04-.647.312-.814.713-.158.382-.303.756-.58 1.046-.095.1-.13.361-.113.538.047.547-.005 1.087-.011 1.628-.005.537.073 1.07-.159 1.569a.355.355 0 0 0-.008.231c.226.62.142 1.314.28 1.932.215.96.513 1.908.94 2.776.163.334.326.66.34 1.075.011.411.168.775.438 1 .444.368.525.916.64 1.5.2 1.012.465 2.008.722 3.003.03.114.187.253.282.25.14-.004.335-.076.405-.204.234-.432.313-.922.26-1.452a161.42 161.42 0 0 1-.314-3.49c-.112-1.439-.25-2.875-.285-4.319-.02-.859-.003-1.71-.128-2.563-.05-.337-.008-.699.008-1.049.02-.466.054-.932.09-1.397.027-.35.05-.701.105-1.046.074-.456.18-.905.264-1.359.114-.627-.02-.948-.499-1.207-.316-.17-.635-.343-.953-.512-.14-.076-.284-.184-.464.025-.028.34-.056.72-.086 1.11m12.023 4.662c-.038-.4-.05-.673-.095-.94-.048-.308-.256-.48-.488-.4-.27.094-.527.334-.82.171-.342-.19-.322-.632-.419-.996-.136-.502-.341-.648-.8-.622-.41.026-.67.269-.755.725-.021.113-.016.235-.024.35a9.28 9.28 0 0 1-.502 2.35c-.255.73-.56 1.476-.48 2.343.03.326-.073.696-.18 1.012a6.384 6.384 0 0 1-.518 1.116 1.628 1.628 0 0 0-.244.86c0 .31-.076.626-.055.933.03.425-.075.783-.285 1.083-.413.588-.568 1.272-.63 2.032-.077.967-.197 1.92-.542 2.825-.17.44-.196.977-.236 1.476-.012.14.13.351.247.44.068.054.27-.018.336-.114.427-.617.985-1.111 1.208-1.934.059-.214.204-.393.317-.58.474-.778.867-1.63 1.424-2.333.151-.19.26-.442.368-.678.773-1.701 1.53-3.414 2.423-5.028.107-.19.204-.412.239-.635.188-1.186.353-2.38.511-3.456M11.432 84a5.758 5.758 0 0 0-.109-1.159c-.348-1.877-.527-3.774-.445-5.701.017-.391.014-.768-.118-1.149-.128-.367-.092-.763.021-1.147.109-.365.157-.766.299-1.109.433-1.054.28-2.117.107-3.195a7.476 7.476 0 0 1-.099-1.157c-.006-1.557.084-3.124-.471-4.595-.002-.58-.04-1.162 0-1.736.038-.545.18-1.082-.07-1.603a.209.209 0 0 1-.019-.113c.192-.93-.175-1.771-.273-2.652-.13-1.17-.109-1.7.195-3.331.013-.076.045-.163.027-.228-.31-1.108.11-2.251-.126-3.376-.133-.639 0-1.304.099-1.97.162-1.07.192-2.173.275-3.263.002-.038-.008-.08-.005-.117.051-.658.13-1.316.148-1.976.02-.662-.122-1.356-.01-1.987.163-.928.208-1.852.268-2.788.106-1.61-.104-3.192-.173-4.788-.006-.15-.04-.31-.015-.452.228-1.28.132-2.57.145-3.857a1.72 1.72 0 0 0-.225-.878c-.107-.192-.228-.388-.292-.605-.258-.875-.82-1.39-1.443-1.781-.796-.496-1.328-1.305-1.876-2.116-.222-.329-.46-.638-.684-.965a20.887 20.887 0 0 1-.591-.905c-.766-1.246-1.43-2.56-2.047-3.933-.613-1.366-1.057-2.821-1.673-4.177-.194-1.257-.812-2.356-.837-3.69-.015-.726-.157-1.455-.234-2.187-.09-.854-.445-1.622-.803-2.362-.53-1.097-.531-1.111.18-1.98.527-.645 1.123-1.135 1.838-1.394.154-.053.302-.125.444-.213.39-.238.767-.318 1.18-.05.315.206.608.12.855-.226.256-.365.582-.612.976-.678.374-.066.622-.547 1.059-.443.16.038.381-.08.516-.214.236-.23.45-.437.77-.33.8-.543 1.749-.186 2.567-.632.254-.137.51-.065.73.105a6.7 6.7 0 0 1 .764.698c.363.38.713.78 1.056 1.184.11.132.26.302.263.458.014.586.342.792.69 1.006.17.103.33.233.492.355.402.303.8.607 1.307.993.056.29.141.733.223 1.146-.142.472-.263.916-.403 1.35-.222.687-.575 1.21-1.184 1.41-.15.052-.308.115-.428.228-.15.143-.293.354-.216.607.258.835.058 1.708.148 2.56.056.52-.082 1.08-.162 1.615-.093.632-.075 1.239.152 1.832.093.245.101.545.211.775.316.653.29 1.342.209 2.047a4.795 4.795 0 0 0 .152 1.94c.181.638.298 1.338.09 2.066-.122.425-.054.931-.087 1.397-.035.513-.093 1.019-.534 1.28-.055.032-.138.092-.14.143-.033.58-.54.761-.673 1.241-.048.172-.06.391-.017.56.16.623 1.099.865 1.425.363a4.13 4.13 0 0 0 .439-.904c.34-.97.648-1.958.718-3.027.01-.156.024-.32.072-.46.482-1.405.755-2.89 1.12-4.339.15-.594.363-1.169.488-1.772.3-1.438.582-2.882.829-4.334.07-.42.123-.82.276-1.222.264-.705.45-1.457.642-2.198a1.862 1.862 0 0 0-.123-1.253c-.184-.394-.274-.76-.104-1.217.065-.17-.053-.442-.088-.669l-.022.024c1.12.545 2.217 1.16 3.39 1.512.277.083.53.2.832.06.145-.067.373.024.528.127.277.185.57.384.78.664.432.569.827 1.182 1.207 1.805.107.173.105.444.156.689-.248.607-.666 1.046-1.046 1.502-.663.797-1.072 1.728-1.213 2.854a9.058 9.058 0 0 1-.839 2.85c-.05.102-.123.2-.14.308-.168 1.09-.802 1.846-1.273 2.718-.335.62-.727 1.195-1.022 1.838-.263.574-.725.94-.903 1.625-.16.61-.557 1.128-.85 1.687-.602 1.147-1.378 2.038-2.43 2.536-.237.11-.458.269-.695.38-.917.434-1.817.955-2.849.832-.175.365-.3.725-.493 1.018-.475.72-.595 1.544-.523 2.426.093 1.13.2 2.256.323 3.38.073.665.075 1.32.002 1.985-.288 2.618-.17 5.229.078 7.84.113 1.208.097 2.407-.222 3.591-.186.694-.301 1.414-.264 2.182.038.81.02 1.634-.224 2.43-.225.737-.252 1.52-.218 2.31.031.743-.002 1.487.018 2.229.015.543.072 1.087.103 1.629.015.27.014.545.022.816.01.272.005.55.042.816.105.77.233 1.53.338 2.297.027.188.04.4-.002.58-.141.637.025 1.237.13 1.842.027.146.079.33.169.408.146.122.336.235.503.226.107-.003.248-.22.297-.375.133-.437.237-.892.335-1.342.225-1.038.685-1.936 1.117-2.843.234-.497.39-.979.391-1.534 0-.658.172-1.21.532-1.702.27-.372.525-.768.605-1.291.028-.187.107-.38.205-.526.523-.775.937-1.64 1.353-2.503.253-.525.404-1.152.913-1.428l2.739-3.665c.162.034.378.078.595.125-.195.199-.389.394-.578.593-.29.303-.605.58-.864.919-.671.883-1.353 1.753-1.9 2.779-.375.7-.66 1.419-.728 2.242-.034.411-.104.758-.345 1.047-.292.353-.308.81-.372 1.397.207-.111.337-.132.409-.224.35-.451.704-.9 1.02-1.387.398-.62.828-1.18 1.401-1.557.505-.33.98-.708 1.369-1.244.138-.192.361-.333.566-.4.65-.212 1.21-.598 1.695-1.164.065-.077.148-.195.218-.188.414.036.64-.29.854-.638.22-.362.51-.538.858-.679.48-.193.935-.483 1.39-.76.213-.128.327-.368.277-.68-.05-.322-.258-.567-.523-.586-.22-.015-.469.09-.655-.005-.452-.226-.869-.079-1.306.017-.936.202-1.878.37-2.818.552.619-1.023 1.497-1.37 2.477-1.462.218-.023.438-.041.653-.083.687-.135 1.389-.212 2.054-.44.91-.31 1.813-.682 2.68-1.142.431-.23.933-.22 1.31-.653.318-.37.71-.641 1.04-.996.208-.226.371-.52.54-.797.415-.686.823-1.38 1.231-2.073.15-.255.35-.33.587-.236.253.106.463.295.49.646.013.182-.008.401-.083.552-.197.4-.429.777-.652 1.157-.413.694-.84 1.375-1.243 2.078-.189.329-.404.586-.702.763-.372.22-.73.471-1.075.745-.854.681-1.692 1.389-2.542 2.07-.627.5-1.128 1.148-1.517 1.921-.283.56-.668.926-1.161 1.152-.865.398-1.685.893-2.44 1.569a4.94 4.94 0 0 1-1.36.838c-.783.328-1.395.928-1.93 1.66-1.102 1.513-2.284 2.938-3.297 4.553-.27.432-.598.81-.918 1.19a6.517 6.517 0 0 0-1.359 2.653 12.892 12.892 0 0 1-.833 2.364c-.175.367-.295.78-.413 1.183-.323 1.106-.649 2.21-.938 3.33-.157.592-.309 1.206-.354 1.823-.12 1.677-.195 3.355.107 5.028" mask="url(#d)"/>
        </g>
        <path fill="#231F20" d="M18.688 4.927c-.118.048-.233.118-.353.145-.852.182-1.703.355-2.538.528-.15-.142.04-.247.224-.333.927-.434 1.816-.577 2.639-.317l.028-.023"/>
        <path fill="#FEFEFE" d="M24.218 9.835c.097 1.108.211 2.336.305 3.564.018.23-.026.471-.083.686-.49 1.81-.826 3.688-1.178 5.558-.05.262-.098.538-.2.762-.375.825-.558 1.764-.835 2.644-.066.214-.165.424-.171.651-.025.871-.45 1.488-.72 2.2-.042.11-.22.227-.298.188-.133-.062-.317-.241-.34-.384-.074-.507-.174-1.048-.112-1.528.125-.978.02-1.959-.127-2.94-.116-.773-.124-1.489.137-2.17.134-.346.154-.727.026-1.145-.09-.3-.089-.632-.162-.943-.077-.33-.05-.61.037-.914.113-.392.204-.806.241-1.229.033-.337.045-.73-.06-1.05-.275-.848-.152-1.66-.075-2.445a9.8 9.8 0 0 0-.06-2.458c-.016-.117-.05-.239-.056-.355-.023-.476.172-.775.563-.892.434-.13.667-.03.913.442.178.34.261.788.634.9.319.098.511-.198.75-.351.207-.13.445-.007.565.29.103.255.177.528.306.919M11.736 7.09l-.175-1.115c.113-.246.267-.169.411-.124l.973.312c.488.156.685.446.725 1.09.027.467.034.934.073 1.403.029.35.088.703.144 1.055.074.47.15.937.239 1.404.065.35.11.717.232 1.04.307.817.487 1.664.703 2.51.361 1.422.814 2.818 1.242 4.219.348 1.134.71 2.264 1.08 3.391.168.512.21 1.014.097 1.49-.031.143-.192.255-.317.288-.085.021-.257-.084-.309-.192-.46-.93-.925-1.862-1.336-2.824-.237-.553-.436-1.08-.918-1.352-.293-.167-.518-.494-.622-.899-.106-.408-.327-.697-.552-.994-.58-.77-1.066-1.645-1.479-2.553-.265-.583-.348-1.29-.693-1.855a.395.395 0 0 1-.045-.231c.094-.542-.098-1.052-.215-1.587-.12-.537-.195-1.083-.364-1.614-.053-.172-.083-.437-.02-.555.182-.344.228-.747.281-1.158.059-.43.226-.75.568-.874.102-.038.174-.17.277-.275"/>
        <path fill="#FEFEFE" d="M5.797 8.99c.365-.062.687-.203.997-.148.388.07.62-.119.87-.357.17-.16.34-.332.54-.436.273-.146.554.002.642.346.095.373.143.763.189 1.146.086.732.134 1.468.239 2.197.196 1.363.667 2.623 1.215 3.874.326.746.65 1.48 1.045 2.184.42.745.896 1.412 1.497 1.967.214.197.409.438.566.697.53.873 1.028 1.771 1.559 2.645.256.424.537.836.838 1.216.513.655.73 1.4.779 2.247-.45.174-.855-.02-1.182-.247-.46-.319-.942-.605-1.362-1.033-.618-.627-1.24-1.222-1.8-1.941a11.699 11.699 0 0 1-1.25-1.99c-.288-.58-.734-1.058-1.096-1.593-.275-.406-.57-.805-.786-1.25-.556-1.143-1.106-2.28-1.549-3.494-.352-.975-.796-1.935-1.25-2.865-.402-.822-.473-1.723-.75-2.569-.043-.13.02-.3.049-.596M32.079 47.403c.779-.354 1.564-.696 2.337-1.068.362-.176.693-.394 1.134-.279.183.05.377-.097.572-.127.233-.036.466.146.58.429.108.274.06.515-.099.675-.338.343-.674.698-1.05.97-.275.199-.49.418-.606.791-.112.36-.241.702-.609.753-.062.008-.11.132-.15.214-.304.614-.71 1.078-1.232 1.402-.165.102-.33.275-.41.477-.225.567-.561 1.006-.93 1.409-.42.458-.677 1.054-.895 1.697-.172.509-.385.989-.595 1.47-.043.098-.152.143-.309.286-.068-.548-.15-.968.03-1.347.15-.314.138-.641.08-1.023-.113-.763-.016-1.474.163-2.19.261-1.04.67-1.97 1.071-2.91.154-.36.37-.675.558-1.01.125-.22.252-.436.38-.658l-.02.04M10.311 22.85c-.561.113-.852-.248-1.135-.564A26.114 26.114 0 0 1 7.85 20.7c-.31-.406-.568-.858-.85-1.289-.14-.216-.27-.442-.428-.642a7.52 7.52 0 0 1-.85-1.27c-.268-.517-.675-.953-1.05-1.395-.22-.26-.35-.545-.462-.87-.391-1.13-.864-2.226-1.12-3.41-.089-.419-.377-.801-.595-1.186-.407-.713-.546-1.221.516-1.485.065-.015.127-.04.191-.056.71-.164.89-.045 1.115.722.349 1.187.672 2.38 1.056 3.556.5 1.534 1.15 3.004 1.95 4.382.554.956.99 1.997 1.686 2.854.252.31.459.662.693.991.254.355.502.711.608 1.249M6.675 7.34c-.292-.222-.5-.384-.698-.536.068-.65.132-1.245.203-1.894.192-.008.407-.017.664-.026l.44-.763a3.254 3.254 0 0 0 1.62-.21c.407-.157.837-.212 1.247-.06.41.15.769.07 1.146-.025.189-.046.379-.097.57-.123.397-.056.77-.006 1.11.312.197.183.446.3.668.442.104.778.101.795-.414.937-.339.094-.671.27-1.04.09-.729.196-1.55-.075-2.212.488-.344.292-.865.265-1.162.7-.066.095-.299.049-.455.067-.574.07-1.166.087-1.687.602"/>
    </g>
</svg>
