<svg xmlns="http://www.w3.org/2000/svg" xmlns:xlink="http://www.w3.org/1999/xlink" width="82" height="79" viewBox="0 0 82 79">
    <defs>
        <path id="a" d="M.151.678h95.845V61H.151z"/>
        <path id="c" d="M.15.678h95.846V61H.15z"/>
    </defs>
    <g fill="none" fill-rule="evenodd">
        <g transform="rotate(-20 50.007 68.863)">
            <mask id="b" fill="#fff">
                <use xlink:href="#a"/>
            </mask>
            <path fill="#FEFEFE" d="M30.355.677c-.03.035-.064.056-.078.087-.187.41-.327.833-.337 1.285a4.371 4.371 0 0 1-.31 1.554c-.022.058-.048.129-.04.19.025.204-.032.391-.081.581-.022.073-.048.15-.04.22.05.393-.103.745-.221 1.101-.1.303-.24.61-.493.812-.266.209-.579.364-.882.519-.306.154-.633.272-.94.429-.38.192-.765.385-1.035.734a.28.28 0 0 1-.116.078c-.119.047-.174.133-.214.248a.596.596 0 0 1-.4.4.335.335 0 0 0-.152.119c-.245.312-.503.62-.728.95-.463.678-.913 1.368-1.364 2.058-.061.093-.064.232-.137.302-.183.167-.204.364-.187.577-.071.07-.157.125-.2.207-.146.265-.305.525-.4.81-.116.344-.297.666-.316 1.053-.011.255-.208.495-.282.758-.033.117-.08.23-.123.344a3.427 3.427 0 0 1-.111.254c-.138.288-.318.563-.403.868-.11.392-.245.776-.392 1.154a.268.268 0 0 1-.083.103c-.204.165-.225.402-.182.617a.785.785 0 0 1-.06.467 1.802 1.802 0 0 0-.132.906.647.647 0 0 1-.014.28c-.136.346-.166.712-.221 1.076-.012.073-.019.167-.066.209-.133.112-.107.253-.11.394-.002.084-.002.167-.014.249-.023.162-.08.326-.073.485.007.167.069.334.114.498.076.272.18.537.227.816.067.392.233.777.105 1.187a.52.52 0 0 0 .004.256c.057.246.128.49.185.737.022.089.043.192.024.277a6.745 6.745 0 0 0-.161 1.229.363.363 0 0 1-.064.185c-.297.383-.344.86-.512 1.29-.045.111-.034.242-.045.364-.015.153-.005.31-.046.45-.12.437-.23.88-.405 1.291-.12.286-.164.577-.211.873-.014.099.002.204.002.307.005.338.064.68-.201.965-.048.051-.055.14-.069.213-.13.69-.204 1.384-.374 2.07-.15.588-.32 1.168-.543 1.73-.043.109-.138.21-.02.339.024.026-.023.138-.063.194-.095.127-.207.24-.306.364-.185.23-.34.486-.55.685-.27.256-.536.505-.757.803a.315.315 0 0 1-.215.098c-.176.002-.259.103-.32.24-.022.051-.034.107-.048.164-.047.178-.118.328-.308.293-.078.1-.13.176-.19.242-.197.225-.398.445-.595.67-.08.092-.147.195-.225.29-.242.292-.503.574-.723.881-.207.289-.358.615-.553.913-.168.26-.372.502-.54.762-.294.456-.579.915-.854 1.38-.479.812-1 1.593-1.588 2.325-.487.605-.942 1.222-1.302 1.907-.017.036-.043.061-.064.094-.415.57-.768 1.176-1.096 1.802-.362.688-.791 1.34-1.472 1.78-.104.069-.17.193-.249.299-.17.232-.322.483-.514.697-.081.089-.252.1-.377.147-.15.3-.342.557-.683.676-.067.021-.119.087-.176.139l-.751.696c-.17.162-.358.317-.512.498-.702.828-1.373 1.68-1.907 2.625-.14.246-.272.49-.327.781-.033.183.003.263.128.324.25-.047.408-.164.51-.382.092-.195.22-.37.341-.552.124-.19.256-.373.39-.558.056-.075.113-.15.182-.216.235-.218.472-.434.711-.65.085-.075.17-.162.273-.201.31-.122.571-.329.735-.594.152-.246.365-.422.555-.62.097-.1.187-.27.353-.253.142.017.182-.063.242-.148.052-.077.104-.154.168-.218.147-.145.304-.277.45-.42.067-.063.11-.183.185-.204.219-.059.32-.223.434-.385.034-.044.071-.124.11-.124.244-.007.255-.218.348-.359.064-.091.135-.178.201-.27.2-.263.404-.525.598-.79.187-.259.358-.533.555-.784.277-.359.62-.678.84-1.068.186-.337.445-.61.651-.924.178-.267.36-.525.671-.678a.762.762 0 0 0 .323-.312c.26-.488.659-.854 1.043-1.236.325-.324.652-.632 1.064-.854 1.067-.578 2.118-1.183 3.175-1.774.619-.343 1.245-.669 1.911-.917.79-.294 1.563-.625 2.345-.93.782-.305 1.57-.6 2.354-.898.572-.22 1.143-.437 1.712-.657.462-.18.915-.397 1.392-.54.306-.091.586-.2.851-.375.56-.366 1.157-.631 1.861-.535.107.014.226-.023.335-.056.294-.09.583-.19.872-.287.986-.333 1.973-.663 2.957-1.004.626-.21 1.237-.462 1.87-.652a18.962 18.962 0 0 1 3.607-.687c.732-.07 1.463-.162 2.195-.235.439-.045.877-.09 1.316-.091.363-.003.723.075 1.086.086.43.014.86.017 1.29-.004.32-.02.635-.122.95-.122.264-.003.506-.033.74-.136.024-.012.062-.007.083.004.235.139.46.11.697-.002.071-.033.171-.024.254-.012.22.026.434.035.633-.094a.176.176 0 0 1 .138-.011c.102.054.177.002.265-.036.074-.032.19-.072.235-.04.12.083.216.038.325.005.09-.028.185-.072.275-.063.256.023.488-.066.732-.108.254-.047.491-.1.74-.202.266-.11.598-.253.91-.05.015.01.038.006.057-.001.133-.043.266-.094.401-.134.085-.028.176-.05.263-.061.064-.007.13.005.192-.002.216-.033.432-.07.648-.104.187-.028.374-.082.56-.072.141.007.236-.02.331-.115.154-.148.349-.186.534-.087.109.058.199.047.291-.019.062-.045.114-.122.18-.134a3.03 3.03 0 0 0 .73-.241c.048-.02.122-.01.15-.043.114-.117.254-.126.398-.115.216.02.415.003.595-.14.07-.05.19-.092.261-.066.228.084.396-.054.548-.15a.927.927 0 0 1 .44-.157c.188-.017.37-.04.549-.146.313-.188.654-.234 1.012-.075.306.136.626.237.939.354.7.256 1.34.62 1.882 1.12.622.574 1.338.978 2.104 1.311.507.223 1.029.41 1.545.608.33.126.664.241.999.354.272.09.557.145.82.253.251.108.571.085.744.357.012.016.055.012.081.019.273.077.365.194.285.45-.086.277.066.467.222.627.188.19.434.316.65.48.247.184.538.228.83.235.258.007.52-.01.775-.05.375-.058.745-.152 1.117-.222.156-.028.32-.063.474-.05.123.01.218-.023.282-.1.14-.171.299-.211.474-.113.216-.192.43-.354.607-.549a.752.752 0 0 0 .2-.39c.026-.23-.015-.466-.015-.698a3.86 3.86 0 0 0-.28-1.497c-.142-.35-.417-.437-.737-.512-.249-.058-.495.03-.737-.011a.531.531 0 0 0-.458.136c-.102-.021-.21-.08-.282-.054a.578.578 0 0 1-.55-.061c-.209.094-.4.173-.583.267a8.18 8.18 0 0 0-1.02.652c-.194.146-.348.338-.58.444a.55.55 0 0 1-.61-.068c-.036-.028-.073-.068-.114-.073-.289-.04-.58-.091-.868-.131-.4-.054-.787-.141-1.173-.244-.211-.054-.417-.13-.628-.188-.228-.061-.458-.11-.683-.171-.043-.012-.08-.052-.11-.087-.094-.115-.203-.15-.353-.12-.177.042-.341.01-.45-.164-.033-.052-.1-.08-.152-.122-.104-.077-.206-.157-.31-.232-.15-.11-.287-.249-.45-.32-.131-.056-.243-.107-.314-.227-.062-.106-.156-.15-.26-.206a2.989 2.989 0 0 1-.492-.331c-.222-.186-.49-.322-.652-.577-.016-.029-.066-.033-.1-.054-.205-.115-.284-.244-.248-.432.04-.197.17-.3.365-.352.185-.047.37-.106.538-.19.31-.155.64-.244.977-.321.543-.118 1.081-.254 1.62-.388.474-.114.943-.246 1.422-.347.81-.171 1.629-.319 2.442-.485.32-.068.63-.141.965-.101.133.016.282-.028.417-.066.27-.08.534-.18.804-.253.145-.04.299-.043.448-.073.304-.061.605-.124.908-.19.015-.002.024-.035.04-.04.179-.056.363-.171.534-.153.154.017.261-.018.394-.06.22-.07.431-.146.63-.263.07-.043.164-.033.247-.05.36-.08.761.054 1.084-.21.019-.015.054-.01.083-.015l1.13-.176c.046-.01.086-.035.13-.051.283-.099.596-.038.873-.165.005-.002.017.007.024.012.104.068.176.007.256-.051.052-.038.11-.08.169-.092.348-.066.704-.099 1.012-.303.057-.035.147-.025.22-.037.332-.045.674-.01.98-.195.073-.044.185-.037.277-.044.12-.008.24 0 .41 0l.29.323c.07.085.13.165.25.214.198.082.366.225.556.33.241.139.49.263.74.39a.125.125 0 0 0 .08.019c.178-.04.31.044.443.143.034.023.09.021.133.033.263.077.55.11.756.307.204.193.475.258.719.317.313.073.576.211.844.361.04.024.092.073.12.064.134-.05.198.049.271.112.15.13.273.293.496.303.04.002.07.06.113.082.088.047.18.091.273.131.052.024.123.028.152.066.159.211.412.235.635.296.147.044.294.044.399.185.026.035.113.045.175.042.4 0 .768.113 1.12.296.106.056.227.094.345.117.11.019.197.042.259.146.026.046.106.086.159.086a.41.41 0 0 1 .353.148c.088.099.18.136.322.122.328-.033.62.132.806.352.195.232.285.551.415.833.086.178.145.37.245.54.113.194.258.373.398.553.05.068.107.146.18.176.259.103.493.296.801.233.162.112.32.068.482-.008.023-.011.061-.018.08-.009.145.068.259-.021.382-.068.197-.075.353-.204.52-.328a4.42 4.42 0 0 0 1.043-1.115c.097-.148.208-.286.32-.439.004-.068-.003-.154.016-.237a.698.698 0 0 0-.118-.567c-.22-.32-.453-.634-.676-.953-.19-.272-.465-.399-.761-.514-.128-.051-.211.033-.323.021-.14-.011-.286.073-.44.115-.05-.063-.098-.126-.143-.185-.175.042-.33.101-.488.11-.37.026-.583.188-.598.57 0 .026-.028.05-.05.08-.064-.042-.104-.072-.146-.1-.36.18-.418.19-.854.18-.448-.014-.865-.155-1.266-.34-.545-.256-1.093-.505-1.684-.643-.573-.138-1.102-.38-1.61-.671-.768-.441-1.538-.882-2.311-1.319a78.535 78.535 0 0 0-1.074-.595c-.297-.16-.384-.507-.114-.725a.405.405 0 0 0 .111-.181c.076-.24.358-.444.596-.373.232.068.403-.012.578-.134a.405.405 0 0 1 .18-.063c.2-.021.399-.019.595-.047.162-.026.316-.061.477.007.045.016.111.002.164-.017.106-.037.215-.077.313-.133a.475.475 0 0 1 .379-.052c.325.068.612-.091.903-.204.017-.005.031-.023.04-.04.164-.281.44-.281.702-.234a.462.462 0 0 0 .368-.083c.118-.08.26-.185.42-.091.135.077.232.05.324-.061.034-.042.086-.068.14-.108.093.08.176.15.268.232.263-.21.553-.255.868-.183.062.012.13-.01.2-.014.044-.002.092-.014.132-.005.135.029.265.066.391.099.033-.059.043-.082.062-.106.035-.049.076-.093.111-.143.05.04.114.07.147.12.064.094.107.202.164.3.035.054.078.127.133.141.312.103.592.32.948.305a.417.417 0 0 1 .237.085c.09.058.17.044.268.023.277-.056.557-.1.834-.145a.12.12 0 0 1 .081.016c.218.134.439.082.66.014.191-.059.383-.113.601-.18.057-.043.157-.1.228-.179.17-.197.33-.403.49-.61.015-.016-.002-.056.008-.082.12-.336.095-.69.142-1.035a.88.88 0 0 0-.163-.64c-.117-.167-.325-.26-.396-.47-.007-.016-.05-.023-.076-.032-.15-.054-.297-.125-.45-.162-.16-.038-.325-.042-.49-.064-.115 0-.172-.103-.322-.12-.234-.025-.398.088-.585.163a.583.583 0 0 1-.268.063 1.011 1.011 0 0 0-.816.251c-.033.03-.09.068-.123.061-.247-.066-.367.12-.5.251-.178.174-.444.27-.524.542-.012.038-.112.063-.171.063-.062.003-.126-.035-.197-.056-.057.052-.109.108-.17.155-.197.14-.408.237-.652.12-.112-.054-.207-.03-.294.037-.107.082-.204.085-.311-.007-.03-.028-.083-.03-.112-.04-.14.113-.263.218-.39.315a.461.461 0 0 1-.18.08c-.221.042-.444.07-.665.114-.09.02-.175.073-.263.101-.225.075-.477.07-.685.21-.014.01-.052-.02-.078-.022-.105-.007-.219-.033-.313-.007-.211.06-.413.019-.62.007a.591.591 0 0 0-.217.042c-.226.075-.437.087-.626-.084-.32.145-.318.143-.702.105-.052-.004-.138.028-.161.07-.114.198-.301.153-.46.13-.195-.033-.335-.36-.254-.547.09-.209.178-.418.282-.62.04-.08.116-.14.187-.201.197-.171.423-.307.522-.58.062-.17.192-.33.327-.457.124-.117.254-.249.45-.284a.36.36 0 0 0 .221-.19c.097-.235.273-.375.482-.502.194-.115.384-.244.547-.399.256-.237.553-.418.842-.612.071-.047.142-.094.206-.153.202-.185.396-.38.605-.558a.43.43 0 0 1 .256-.101c.166-.002.346-.014.495.1a.202.202 0 0 0 .128.034c.112-.005.223-.024.332-.033.173-.01.342-.028.489-.136.123-.09.254-.167.386-.24.057-.03.128-.068.183-.056.18.042.287-.044.396-.166.06-.064.152-.137.232-.141.356-.017.595-.17.666-.481a2.32 2.32 0 0 0-.045-1.208c-.137-.427-.415-.784-.661-1.148-.31.075-.31.075-.678-.403-.173.094-.297-.01-.408-.132a1.282 1.282 0 0 1-.157-.201c-.128-.21-.177-.233-.429-.2a.316.316 0 0 1-.168-.019c-.529-.227-.678-.091-1.027.305-.234.266-.396.599-.585.904-.147.239-.207.5-.209.786-.005.33.076.638.161.947.11.39.017.709-.287.976-.177.158-.381.273-.569.411a2.65 2.65 0 0 0-.725.741c-.102.167-.266.298-.415.43-.754.66-1.477 1.349-2.068 2.16-.431.592-.858 1.188-1.076 1.901a1.35 1.35 0 0 1-.296.483c-.294.324-.645.599-.87.995-.266-.103-.399-.272-.382-.544.007-.113.01-.228.016-.34.022-.31.064-.622.064-.934 0-.652.076-1.288.358-1.887a.866.866 0 0 0 .076-.464c-.019-.251-.042-.523.034-.756.066-.206.125-.408.16-.621.05-.277.188-.514.475-.587.6-.155 1.16-.387 1.667-.741.128-.092.3-.17.37-.296.151-.286.282-.589.317-.922.02-.171 0-.328-.061-.495-.133-.35-.403-.615-.59-.929-.1-.171-.26-.335-.518-.24-.033.012-.092-.05-.14-.079-.213-.124-.42-.27-.687-.228-.128.02-.258.085-.382.073-.178-.021-.367.09-.536-.044-.016-.015-.057-.005-.085.004-.123.038-.251.073-.372.12-.124.044-.266.075-.36.155-.228.192-.496.359-.591.668-.012.04-.055.09-.092.101-.185.057-.204.211-.235.36-.135.642.066 1.212.396 1.754.04.068.12.115.19.162.173.117.296.258.244.486.232.089.253.129.196.35-.087.349-.19.691-.258 1.046-.119.621-.126 1.255-.135 1.886-.002.138-.036.28-.048.418-.02.232-.045.464-.052.696-.012.395-.038.789-.04 1.178-.005.446-.183.683-.548.899-.35.206-.668.255-1.024.063-.054-.028-.126-.059-.183-.05-.14.029-.277.085-.417.123-.391.112-.77.256-1.185.274-.235.01-.489.036-.695.134-.292.143-.597.153-.899.204-.066.012-.151-.007-.192.028-.175.153-.386.136-.595.153-.07.007-.156.02-.208.066-.155.124-.349.133-.527.173-.218.05-.462.012-.666.087a1.98 1.98 0 0 1-.673.136c-.062.002-.119.063-.18.084-.133.04-.268.083-.406.113-.185.04-.377.061-.557.11-.334.094-.688.134-.982.34-.021.017-.054.02-.08.02-.294 0-.586-.01-.88 0-.206.004-.415.027-.624.05-.109.013-.227.02-.324.069-.375.178-.783.213-1.181.286-.406.073-.818.11-1.216.209-.214.05-.392.24-.643.188-.014-.003-.033.011-.05.023-.253.188-.547.237-.858.251-.157.007-.31.078-.467.113-.259.051-.486.218-.768.188-.062-.008-.128.028-.192.049-.71.218-1.413.45-2.146.575-.176.03-.334.145-.51.176a1.674 1.674 0 0 0-.552.197c-.294.176-.624.246-.965.298-.313.049-.629.098-.896.321-.178.15-.404.26-.664.178-.024-.01-.055.003-.083.007-.306.052-.612.106-.918.155-.104.017-.209.019-.31.021-.102.003-.21-.016-.309-.004-.204.03-.408.077-.611.115-.273.054-.37-.052-.29-.32.024-.08.076-.152.121-.222.078-.13.178-.247.24-.38.073-.16.163-.287.296-.406.209-.186.398-.376.368-.723a1.602 1.602 0 0 1 .113-.746c.107-.275.316-.467.472-.702.095-.138.268-.244.427-.319.095-.042.147-.072.187-.173.045-.108.124-.254.214-.277.147-.042.223-.138.32-.225.178-.153.334-.329.578-.401.093-.024.16-.13.237-.2.136-.115.27-.235.406-.35.078-.065.173-.12.244-.19a4.035 4.035 0 0 1 1.12-.793c.265-.133.511-.307.765-.464.118-.075.22-.211.346-.23.145-.023.24-.096.353-.162.328-.197.664-.317 1.05-.148.088.038.205.005.307.003.083-.003.168-.026.244-.014.495.091.993.105 1.453-.097.486-.21.982-.37 1.492-.506.334-.09.583-.298.635-.66.035-.246.15-.42.389-.525-.04-.32-.076-.627-.119-.936-.007-.054-.038-.106-.054-.16-.11-.38-.47-.549-.707-.823-.218-.251-.567-.28-.834-.463a.484.484 0 0 1-.34.087c-.234-.016-.488-.004-.69.18-.132.125-.303.146-.452.053-.2.093-.382.215-.581.262-.261.064-.489.143-.602.41-.012.03-.067.036-.093.062a3.9 3.9 0 0 0-.173.218c-.038.054-.057.122-.102.164-.237.23-.308.51-.348.833-.04.343-.128.718-.553.845-.038.012-.069.056-.102.087-.073.072-.14.15-.22.213-.15.117-.304.228-.46.336-.045.028-.11.07-.152.06-.209-.046-.249.073-.268.233-.007.054-.033.105-.05.162-.232.056-.464.077-.65.246-.123.11-.272.228-.429.26a.608.608 0 0 0-.438.324c-.038.061-.086.155-.142.167-.28.052-.408.281-.588.45a.474.474 0 0 1-.204.12c-.11.033-.214.045-.273.169-.033.073-.126.113-.19.169-.306.253-.611.507-.917.758-.057.047-.124.084-.183.131-.128.099-.258.192-.372.303-.23.225-.446.467-.678.69-.11.105-.114.276-.278.35-.23.107-.341.3-.322.562.007.09-.038.183-.052.277-.017.11-.064.178-.173.237-.306.16-.503.443-.56.758-.045.241-.163.408-.284.596-.192.3-.444.563-.531.929a.534.534 0 0 1-.39.387c-.044.012-.104.026-.123.059-.118.218-.303.265-.53.225a.229.229 0 0 0-.112.019c-.209.105-.405.183-.664.16-.21-.02-.45.081-.647.184a.933.933 0 0 1-.697.085c-.052-.012-.112.012-.169.021-.206.028-.412.066-.618.094-.29.04-.584.023-.852.19-.175.108-.379.237-.616.105-.04-.023-.111.007-.168.01-.093.002-.185.01-.278.005-.104-.003-.208-.026-.313-.022-.583.026-1.162.132-1.75.11-.035 0-.07.024-.109.026-.225.026-.45.052-.675.07-.112.01-.22.013-.332.008-.252-.012-.505-.038-.733.113-.03.02-.092-.005-.142 0-.29.03-.579-.104-.868.011a.62.62 0 0 1-.472-.011c-.09-.033-.201-.005-.303 0-.294.018-.586.044-.877.058-.065.003-.147-.066-.19-.047-.216.113-.46.014-.662.08-.481.155-.998.073-1.477.286-.336.148-.74.132-1.095.265-.033.014-.076.007-.114.003a.85.85 0 0 0-.472.087c-.1.049-.218.051-.327.084a2.47 2.47 0 0 1-.823.12c-.265-.014-.538.086-.803.157-.356.094-.686.284-1.07.274-.019 0-.035.014-.054.02-.23.07-.439.231-.707.175-.038-.01-.085.03-.13.047a3.778 3.778 0 0 1-.216.066c-.244.072-.488.145-.73.213-.064.019-.13.028-.195.045-.28.072-.58.072-.834.26-.088.066-.226.075-.342.101-.284.061-.562.169-.858.174-.043 0-.083.047-.126.065-.14.061-.294.19-.417.165-.318-.06-.536.166-.813.213-.308.052-.588.244-.896.345-.34.113-.671.258-1.025.312-.405.061-.73.382-1.161.343-.373.18-.802.122-1.186.281-.398.167-.832.244-1.238.397-.346.129-.67.31-1.007.464-.095.04-.2.054-.299.082-.128.033-.266.047-.382.103-.384.186-.742.42-1.164.519a.902.902 0 0 0-.344.136c-.396.298-.896.357-1.332.573-.318.157-.662.27-.982.429-.303.152-.6.319-.93.42-.213.066-.407.195-.61.293-.328.162-.658.322-.985.486-.242.12-.51.21-.716.377-.144.118-.24.28-.46.263-.042-.002-.088.038-.128.061-.23.13-.465.256-.69.397-.194.124-.377.27-.569.399-.14.093-.284.185-.434.265-.1.051-.21.06-.268-.066-.05-.113-.033-.223.07-.307.049-.04.122-.064.156-.113.142-.213.296-.42.403-.65.178-.38.28-.802.673-1.044.017-.206.19-.321.294-.471.14-.207.304-.406.49-.575.172-.157.335-.303.428-.521a.453.453 0 0 1 .21-.209c.3-.127.475-.333.508-.654a.503.503 0 0 1 .173-.348c.128-.108.254-.227.396-.319.11-.068.19-.126.244-.256.08-.199.188-.4.327-.56.254-.291.534-.561.816-.826.152-.139.351-.23.49-.38.3-.31.677-.554.866-.964.062-.13.188-.221.318-.21.154.012.223-.074.318-.15.263-.204.521-.415.801-.595.424-.27.83-.57 1.311-.746.247-.09.474-.226.716-.327a.571.571 0 0 1 .28-.042c.142.012.237-.014.299-.155.021-.051.095-.1.152-.11.291-.047.505-.246.753-.373.211-.108.399-.258.61-.364.382-.187.77-.351 1.136-.574.177-.11.393-.179.569-.305.028-.021.075-.038.104-.029.163.05.273-.068.4-.12.088-.032.162-.1.247-.138.313-.138.633-.255.887-.5.066-.067.216-.138.273-.107.16.089.248-.007.355-.08l.98-.657c.042.024.101.052.14.07.163-.11.312-.21.46-.316.042-.03.101-.066.115-.113.114-.338.425-.46.695-.61.27-.145.579-.211.847-.387.388-.256.806-.472 1.206-.713.228-.136.5-.228.593-.523.02-.066.048-.132.078-.214.1.063.176.115.273.176.2-.206.472-.321.612-.589.087-.164.253-.246.431-.298.062-.016.138-.019.185-.054.396-.3.806-.582 1.17-.917.345-.32.71-.608 1.092-.873.17-.12.351-.23.538-.324.237-.112.489-.2.733-.302.51-.216 1.024-.418 1.574-.526.538-.105 1.074-.171 1.622-.056a.499.499 0 0 0 .27-.047c.14-.054.28-.122.406-.207.199-.136.38-.068.592.029.095-.21.302-.24.498-.315.27-.103.598-.122.776-.424.185.161.339.105.493-.029.097-.086.208-.164.318-.237.068-.044.151-.112.225-.107.199.016.306-.097.386-.237.08-.146.202-.212.351-.27.119-.04.218-.136.323-.214.156-.12.31-.244.47-.361.035-.026.106-.021.127-.052.14-.208.368-.288.564-.415.14-.09.247-.24.392-.31.26-.126.433-.347.654-.516.185-.143.36-.3.543-.45a.123.123 0 0 1 .078-.028c.197.028.316-.085.439-.214.083-.087.199-.145.308-.202.268-.138.54-.265.657-.574.007-.012.03-.02.061-.036.112.05.21.003.325-.058.308-.155.636-.277.956-.409.016-.007.038-.002.057-.009.087-.033.175-.066.258-.103.062-.028.112-.082.173-.099.278-.072.527-.206.733-.396.185-.17.403-.28.614-.404.111-.065.22-.23.398-.117.007.007.033-.012.05-.021.299-.143.605-.277.894-.439.396-.223.799-.415 1.259-.46.358-.035.623-.187.744-.549.076 0 .185.03.216-.004.119-.137.27-.101.417-.12.105-.012.207-.082.297-.143.09-.061.15-.15.289-.141.09.005.185-.084.277-.131.05-.026.112-.085.147-.073.183.07.313-.061.458-.108.23-.073.434-.19.517-.443.024-.073.104-.127.163-.19.07.049.124.084.176.124.118-.056.23-.153.341-.153.204.005.34-.105.491-.2.214-.126.422-.257.636-.381.398-.226.806-.437 1.195-.676.848-.516 1.695-1.025 2.629-1.384.54-.21 1.07-.463 1.57-.754a9.414 9.414 0 0 1 2.09-.915c.264-.075.513-.199.769-.302.22-.094.431-.207.659-.277.899-.263 1.802-.511 2.74-.6.63-.06 1.255-.146 1.881-.216.237-.029.484-.01.711-.07.453-.12.892-.29 1.34-.418.263-.08.536-.148.806-.186.322-.044.65-.044.977-.075.292-.023.576 0 .844.061.147-.06.287-.115.431-.171.095.112.171.206.247.298.095-.061.173-.146.263-.162.247-.042.508-.106.747-.07.247.032.441.04.607-.158.01-.01.036-.007.08-.011.14.14.325.129.52.091a.44.44 0 0 1 .228.007c.13.042.248.101.37-.023.018-.021.104-.017.13.007.142.12.3.089.464.072.117-.009.24-.004.359.01.087.012.173.06.263.073.178.025.358.037.571.058.351-.169.735-.385 1.188-.157.024.012.057.028.08.023.283-.058.565-.014.845.008.12.009.19-.04.218-.172a1.133 1.133 0 0 0-.067-.708c-.016-.043-.045-.11-.07-.11-.198-.003-.247-.188-.32-.252h-2.512c-.052.043-.137.11-.246.2-.105-.18-.235-.146-.382-.099a.894.894 0 0 1-.391.045 1.452 1.452 0 0 0-.612.012c-.04.011-.102.004-.13-.024-.105-.098-.207-.108-.34-.05-.052.022-.135.003-.191-.023-.124-.056-.235-.065-.351.014-.029.022-.083.031-.107.02-.218-.132-.455 0-.692-.06-.209-.049-.453.052-.695.04-.206-.009-.417.087-.635.085-.36-.002-.702.157-1.067.129-.1-.007-.207-.03-.297-.005-.225.061-.44.106-.666 0-.05-.023-.126-.004-.185.012-.211.047-.42.143-.628.14-.18 0-.351.003-.531.031-.169.024-.356-.07-.505.092-.015.016-.071-.01-.107-.019a19.24 19.24 0 0 1-.346-.1c-.22.147-.22.147-.52.095-.018-.002-.037-.007-.056-.004-.28.018-.56.04-.84.056-.095.005-.213.037-.275-.002-.116-.083-.218-.05-.327-.03-.244.039-.488.128-.733.119-.18-.007-.33.014-.46.117-.033-.021-.05-.028-.064-.042-.011-.014-.016-.035-.028-.047-.173-.16-.337-.291-.61-.185-.127.051-.298.007-.447.002-.057 0-.114-.03-.164-.021a1.283 1.283 0 0 1-.785-.045c-.06-.026-.144-.002-.216.007-.263.03-.526.099-.784-.033-.04-.018-.102-.028-.138-.009-.154.082-.33.016-.474.063-.294.092-.555.075-.81-.11-.093.131-.2.162-.352.155-.14-.007-.287.06-.431.1-.062.02-.126.074-.183.064-.4-.058-.752.171-1.14.18-.043 0-.081.05-.126.064-.135.038-.275.066-.41.096-.074.02-.147.03-.22.047-.148.038-.292.094-.442.11-.31.043-.62.06-.931.09-.083.01-.188.018-.24.07-.109.106-.223.13-.365.115a.465.465 0 0 0-.218.035c-.223.087-.439.179-.693.132-.075-.014-.168.07-.256.096-.177.047-.21.216-.298.38-.095-.082-.178-.143-.247-.216-.085-.094-.161-.117-.299-.08-.234.066-.483.082-.728.125-.083.014-.173.023-.244.06-.23.127-.538.048-.723.28-.007.012-.038.012-.054.007-.197-.063-.349.063-.498.138-.138.066-.261.115-.41.082a.39.39 0 0 0-.366.101.473.473 0 0 1-.398.115c-.17-.026-.32.035-.465.141-.187.138-.403.235-.576.392-.019.019-.05.042-.073.042-.29-.012-.456.314-.764.272-.045-.007-.106.07-.156.113-.038.03-.069.068-.11.091-.3.167-.6.343-.907.495-.15.07-.245.242-.439.228-.021-.002-.05.03-.064.054-.102.176-.237.312-.45.354-.04.007-.074.061-.107.092-.102.098-.2.206-.308.295-.11.087-.211.202-.394.125-.04.284-.194.467-.45.589-.107.051-.188.145-.318.17-.067.015-.14.097-.169.167a.816.816 0 0 1-.521.486.582.582 0 0 0-.228.16c-.23.234-.45.476-.676.713-.026.028-.061.054-.097.056-.147.012-.237.094-.325.204-.056.066-.156.103-.239.146-.05.023-.116.018-.159.049-.166.117-.249.34-.486.361-.019 0-.028.047-.045.07-.088.11-.164.23-.268.322-.13.117-.287.207-.427.314-.173.132-.343.266-.51.406-.08.068-.17.104-.263.054-.204-.103-.327.028-.445.148-.112.113-.204.244-.313.375-.147-.058-.278-.086-.37.087-.038.075-.14.113-.206.174-.112.105-.285.162-.368.258-.183.218-.415.29-.664.354-.339.087-.628.242-.787.57-.007.017-.014.036-.024.052-.078.136-.175.178-.325.129-.05-.019-.092-.056-.109-.066-.132.061-.227.113-.332.148a.552.552 0 0 0-.353.31c-.114.267-.308.396-.602.38-.237-.012-.382.082-.422.324-.017.108-.066.2-.206.19-.128-.01-.166.1-.242.171-.064.061-.185.059-.27.103-.034.014-.053.078-.06.122-.021.113-.076.188-.19.223-.16.052-.246.164-.28.329-.018.093-.054.185-.09.295-.127-.07-.225-.12-.331-.176-.119.195-.294.31-.41.49-.155.24-.441.383-.534.679a.119.119 0 0 1-.054.063c-.216.091-.323.312-.51.432-.119.077-.275.105-.375.197-.268.246-.63.356-.877.63-.078.088-.209.18-.315.181-.38.003-.565.352-.892.45-.194.057-.367.196-.54.308-.14.092-.278.195-.399.312-.168.162-.265.406-.55.42-.019 0-.033.04-.052.059a4.81 4.81 0 0 1-.211.18c-.12.094-.275.165-.356.284a.64.64 0 0 1-.322.254c-.17.056-.256.183-.375.29-.13.118-.265.24-.42.327-.227.124-.471.225-.713.328-.285.125-.526.338-.844.392-.026.005-.062.014-.076.035-.12.158-.306.136-.448.104-.185-.043-.296.023-.403.138a.406.406 0 0 1-.268.14c-.36.055-.692.219-1.02.362-.308.136-.585.336-.908.467-.407.167-.782.422-1.214.558-.068.021-.12.085-.185.12-.149.08-.294.185-.452.218-.154.033-.242.073-.325.218-.097.176-.292.277-.52.327.01-.01 0-.003-.004.004-.15.256-.223.591-.619.596-.017 0-.03.021-.045.033-.19.169-.38.333-.567.5-.106.094-.194.22-.37.14-.023-.009-.068.024-.102.04-.149.085-.291.183-.45.247-.228.087-.41.22-.588.382-.107.096-.266.134-.398.2-.067.035-.164.06-.183.117-.092.246-.265.314-.514.3-.112-.01-.223.047-.337.068-.074.012-.152.024-.225.012-.124-.019-.209-.117-.164-.223.074-.167.076-.373.242-.5.213-.162.26-.391.26-.645 0-.075.027-.173.079-.225.175-.171.223-.39.273-.615.028-.122.064-.253.125-.366.126-.225.228-.448.28-.708.095-.46.237-.906.465-1.326.182-.34.365-.68.528-1.03.124-.263.223-.537.318-.81.067-.185.13-.377.157-.57.023-.185-.01-.375-.005-.56.007-.272.038-.542-.093-.8-.047-.096-.04-.223-.045-.336-.01-.333.031-.666-.17-.971-.048-.07-.045-.18-.057-.272-.017-.162-.029-.32-.04-.479-.01-.112-.027-.225-.027-.338-.002-.347.005-.694 0-1.041a3.406 3.406 0 0 1 .449-1.8c.353-.62.71-1.025 1.432-1.703a.214.214 0 0 0 .059-.096c.06-.197.21-.303.372-.409.076-.051.159-.12.185-.197.071-.222.211-.3.439-.241.097-.139.19-.268.275-.404.1-.155.178-.328.289-.476.159-.209.349-.392.512-.6.168-.214.332-.425.6-.533.05-.019.076-.103.107-.162.123-.22.215-.467.372-.664.2-.256.346-.533.481-.819.185-.387.325-.798.61-1.133.03-.038.023-.108.035-.162.012-.054.017-.113.038-.162.078-.169.159-.335.24-.502.014-.035.014-.087.04-.103.21-.146.272-.383.386-.587.095-.171.124-.377.223-.546.297-.5.372-1.058.458-1.612.066-.432.1-.864.166-1.293.054-.364.12-.727.206-1.084.102-.422.249-.83.337-1.253.042-.216.007-.45-.005-.673-.021-.359-.05-.716-.074-1.072-.011-.16.017-.331-.038-.472a1.316 1.316 0 0 1-.07-.61c.033-.46.073-.92.125-1.377.038-.333.064-.664.074-1 .002-.17-.015-.333-.126-.48-.067-.09-.093-.207-.14-.31-.076-.167-.17-.314-.37-.373" mask="url(#b)"/>
        </g>
        <g transform="rotate(-20 50.007 68.863)">
            <mask id="d" fill="#fff">
                <use xlink:href="#c"/>
            </mask>
            <path fill="#827C74" d="M20.363 32.428c.22-.298.415-.547.595-.81.145-.208.273-.429.408-.645.078-.12.166-.234.232-.359.195-.359.384-.72.57-1.084.175-.35.32-.706.357-1.102.017-.197.057-.395.08-.592.077-.626.081-1.245-.118-1.855a8.549 8.549 0 0 1-.436-3.022 4.484 4.484 0 0 1 .465-1.807c.246-.49.54-.96.841-1.42.245-.372.548-.705.79-1.08.24-.374.657-.606.818-1.038.005-.016.024-.03.04-.04.327-.201.458-.624.851-.753.024-.007.038-.042.057-.063.126-.153.264-.296.37-.458a1.21 1.21 0 0 1 .54-.443c.05-.024.115-.052.136-.096.118-.254.244-.505.332-.772.06-.18.107-.352.246-.498.235-.234.404-.504.404-.856 0-.075.056-.152.09-.23.066-.143.132-.284.199-.424.045-.099.064-.24.14-.291.296-.202.377-.535.533-.82.116-.21.02-.51.28-.67-.038-.251.085-.448.216-.645.016-.029-.005-.078.007-.113.116-.359.012-.75.163-1.112.043-.096.026-.223.012-.336-.069-.518-.69-.816-1.079-.469-.305.268-.64.408-.995.573a4.127 4.127 0 0 0-1.013.685c-.355.31-.666.675-.981 1.027-.162.183-.297.392-.432.596-.13.197-.237.41-.377.6-.187.252-.403.482-.593.73-.241.32-.48.641-.699.972-.337.511-.512 1.098-.704 1.673-.138.403-.304.807-.36 1.227-.093.697-.361 1.33-.612 1.975-.031.08-.062.178-.126.216-.211.131-.154.375-.258.544.059.57-.204 1.091-.266 1.64-.002.038-.026.07-.043.106-.215.45-.32.929-.336 1.424-.01.213-.034.446.035.638.083.232.13.446.08.685a.315.315 0 0 0-.004.141c.071.284.03.584.178.856.04.078.028.186.047.277.024.127.064.251.079.378.01.113.12.244-.057.338-.033.016-.04.124-.031.185.083.465.156.932.142 1.405-.007.195.078.385-.012.585a2.761 2.761 0 0 0-.223.908c-.007.07-.052.138-.075.208-.143.425-.356.83-.302 1.305.008.054-.04.115-.066.173-.054.122-.116.237-.161.362-.043.112-.064.232-.107.345-.111.307-.268.603-.22.95.007.044-.034.098-.06.14-.118.212-.132.437-.094.667.023.152.154.2.241.094.183-.218.344-.45.266-.725m25.528-9.57c.11-.092.244-.155.287-.254.128-.29.512-.3.624-.595.004-.015.033-.029.047-.029.249-.007.363-.208.512-.354.138-.134.327-.216.415-.401.01-.021.047-.042.071-.045.334-.002.439-.41.764-.427.158-.312.607-.284.749-.614.007-.02.05-.026.078-.033.187-.045.384-.066.517-.24.024-.025.09-.016.135-.032.076-.028.15-.066.228-.092.215-.07.412-.22.666-.131.064.023.201-.003.23-.052a.78.78 0 0 1 .548-.363.254.254 0 0 0 .116-.078c.1-.1.19-.218.363-.138.026.01.08-.038.118-.066.045-.028.085-.099.128-.099.18-.004.278-.12.368-.239.057-.075.113-.103.208-.122.214-.044.441-.08.621-.188.211-.126.408-.22.657-.206.057.002.121-.045.176-.08.087-.058.168-.124.251-.185.154-.117.308-.197.481-.028.067-.07.126-.122.169-.183.123-.18.282-.268.51-.23.044.01.101-.024.149-.045.073-.04.142-.117.216-.122.208-.012.355-.23.583-.164.016.007.045-.03.07-.045.117-.056.24-.105.354-.17.183-.111.358-.235.531-.348.133-.04.268-.075.399-.12.149-.051.28-.14.457-.035.14.08.282-.016.353-.18.022-.052.04-.109.079-.141.24-.207.526-.329.81-.453.202-.09.427-.11.608-.265.109-.094.272-.13.412-.19.052-.02.119-.024.157-.061.154-.143.313-.139.47-.03l.4-.37c.087.031.166.06.22.076.218-.202.413-.39.617-.568.038-.03.106-.04.16-.04.269 0 .501-.1.724-.23.282-.16.545-.352.863-.44.093-.027.19-.04.275-.083.427-.2.851-.406 1.278-.605.11-.052.232-.068.349-.103.201-.066.398-.17.604-.188.422-.042.752-.228 1.039-.533.085.02.178.043.282.064.1-.176.26-.19.443-.176.114.007.233-.033.353-.05.031.022.074.057.13.106a.718.718 0 0 1 .423-.354c.09-.033.156-.127.223-.18-.16-.454-.36-.55-.747-.327-.178-.176-.408-.134-.617-.087-.12.03-.23.056-.353.03-.225-.046-.436-.018-.607.153-.178-.129-.346-.026-.505.014-.147.04-.275.07-.386-.054-.261.108-.455.462-.768.179-.098.058-.185.152-.259.143-.254-.03-.457.105-.635.138-.157-.035-.273-.096-.37-.073-.425.099-.842.24-1.269.329-.474.1-.957.155-1.436.246-.74.141-1.48.296-2.217.448-.477.101-.953.204-1.43.317-.54.127-1.055.31-1.548.58-.576.314-1.181.58-1.776.86-.344.165-.707.296-1.034.486A11.4 11.4 0 0 0 51.82 16.3c-.083.078-.171.197-.266.212-.315.042-.332.427-.619.488-.012.002-.014.032-.028.044-.083.075-.16.169-.259.214a.742.742 0 0 0-.362.342c-.038.068-.105.122-.166.178-.145.122-.337.214-.427.364-.11.178-.25.235-.422.298a1.481 1.481 0 0 0-.403.256c-.145.122-.259.277-.399.401-.132.12-.225.29-.448.296-.073.002-.137.126-.216.176-.312.194-.63.377-.94.577-.11.068-.202.166-.302.253-.05.045-.092.096-.147.131-.322.19-.725.263-.927.634-.028.052-.109.075-.168.106a.654.654 0 0 0-.261.246c-.083.124-.232.272-.368.29-.206.024-.26.149-.348.285-.159.246-.358.438-.692.396-.05-.007-.105.028-.16.04-.353.075-.55.366-.81.565-.088.069-.161.127-.275.122-.116-.007-.197.05-.261.144-.043.06-.09.131-.154.166-.27.153-.538.308-.825.427-.135.054-.275.092-.365.207-.119.152-.318.162-.45.26-.131.094-.176.3-.269.45-.092.153-.197.296-.296.446.109.136.232.284.365.19.156-.108.29-.152.467-.112.047.011.11-.028.159-.052.187-.1.372-.197.597-.152.05.009.11-.029.164-.043.11-.028.22-.084.33-.08.149.008.239-.051.305-.164a.466.466 0 0 1 .34-.234c.1-.019.194-.073.291-.108.23-.092.453-.218.69-.251.282-.04.424-.197.58-.394.148-.183.333-.35.622-.254.114.038.408-.117.417-.239.024-.282.252-.378.43-.523.109-.09.23-.13.348-.04M30.354.678c.2.058.294.206.37.372.047.104.074.22.142.31.112.148.126.31.124.481-.008.333-.034.666-.074 1-.052.457-.09.917-.126 1.377-.014.204-.007.403.072.607.054.143.026.315.037.474.027.357.055.713.074 1.072.012.223.05.458.005.674-.088.42-.235.83-.337 1.253-.085.356-.152.718-.206 1.084-.064.427-.1.86-.164 1.292-.085.554-.161 1.112-.46 1.612-.1.167-.128.375-.223.544-.111.205-.175.444-.384.587-.026.019-.026.07-.042.103-.079.17-.162.336-.238.505-.02.049-.026.108-.037.161-.015.054-.008.122-.038.162-.285.336-.425.744-.607 1.131a4.426 4.426 0 0 1-.484.821c-.154.197-.249.441-.372.664-.031.059-.057.143-.107.162-.268.106-.432.32-.6.533-.161.209-.353.392-.512.6-.111.146-.187.322-.287.477-.085.136-.18.262-.277.403-.226-.058-.365.019-.439.24-.024.08-.109.147-.182.197-.164.105-.316.213-.373.41a.214.214 0 0 1-.059.094c-.723.678-1.079 1.086-1.434 1.706a3.425 3.425 0 0 0-.449 1.797c.008.35-.002.694 0 1.044.003.112.017.225.027.335.014.162.023.32.04.479.012.094.01.202.057.274.201.305.163.639.173.972.002.112-.005.237.043.333.13.26.101.53.094.802-.004.186.029.376.003.559-.026.192-.09.384-.154.572-.098.272-.195.547-.318.81-.164.35-.346.69-.531 1.03-.228.417-.37.865-.463 1.325-.054.26-.156.483-.282.709a1.425 1.425 0 0 0-.125.366c-.05.225-.098.443-.273.614-.052.05-.076.148-.076.226-.002.253-.047.483-.263.645-.164.126-.166.333-.24.5-.045.105.038.204.162.222.073.01.151 0 .225-.011.114-.021.228-.078.337-.07.249.016.422-.052.514-.301.021-.054.119-.082.183-.115.132-.068.291-.103.398-.2.178-.164.363-.295.588-.382.159-.063.301-.164.45-.246.034-.019.081-.05.102-.04.178.08.266-.047.37-.14l.567-.5c.014-.012.03-.036.045-.036.396-.002.472-.338.619-.593.005-.007.014-.014.007-.005.228-.05.42-.15.52-.326.082-.148.17-.185.322-.218.159-.033.306-.139.453-.22.066-.034.118-.1.187-.118.431-.136.804-.392 1.214-.56.322-.13.597-.33.908-.465.325-.144.657-.308 1.02-.362a.416.416 0 0 0 .265-.14c.107-.118.218-.181.403-.139.142.03.33.054.448-.103.014-.021.05-.03.076-.035.318-.054.56-.268.846-.392.24-.103.484-.204.712-.331.154-.087.291-.206.422-.324.116-.108.204-.234.372-.29a.647.647 0 0 0 .325-.256c.078-.118.235-.188.353-.282.071-.056.142-.12.211-.18.019-.02.036-.06.052-.06.285-.013.384-.26.553-.42.12-.117.256-.22.396-.311.175-.115.346-.251.54-.31.327-.098.515-.446.894-.448.107-.002.235-.094.313-.18.249-.275.61-.385.877-.632.102-.091.259-.122.375-.197.19-.122.294-.34.51-.432a.116.116 0 0 0 .054-.065c.093-.296.38-.437.534-.676.116-.18.291-.296.41-.49l.334.173c.033-.108.071-.2.088-.293.033-.164.12-.28.28-.328.113-.036.17-.11.19-.223.009-.045.025-.108.059-.125.087-.042.206-.04.272-.103.076-.068.114-.178.24-.169.14.01.19-.082.206-.19.04-.242.185-.335.422-.326.294.019.488-.11.602-.38a.559.559 0 0 1 .356-.307c.102-.036.197-.09.33-.148.016.01.059.047.11.063.148.052.245.01.323-.127.01-.016.017-.035.024-.051.161-.329.45-.483.79-.57.249-.064.479-.139.663-.355.081-.096.254-.152.366-.258.066-.06.17-.1.208-.173.09-.174.22-.146.37-.087.107-.134.2-.263.31-.375.12-.12.243-.254.446-.148.093.049.183.014.266-.054.166-.141.334-.275.51-.406.14-.108.296-.197.427-.314.101-.092.177-.214.265-.322.017-.023.029-.07.045-.07.24-.024.323-.244.486-.362.043-.03.112-.025.161-.051.083-.04.183-.078.237-.143.09-.11.18-.193.328-.204.033-.003.07-.03.095-.057.225-.237.445-.48.675-.713a.6.6 0 0 1 .228-.16.814.814 0 0 0 .521-.488c.031-.068.102-.15.169-.164.13-.028.21-.122.32-.171.254-.122.408-.305.448-.589.183.078.287-.04.394-.124.109-.09.206-.197.308-.296.035-.03.066-.084.107-.091.215-.043.348-.179.452-.355.015-.023.043-.058.062-.056.197.016.292-.155.439-.225.31-.153.607-.329.908-.495.04-.024.07-.064.109-.092.052-.042.111-.12.159-.112.305.04.471-.284.763-.272.024 0 .052-.024.071-.043.173-.157.39-.253.576-.392.145-.105.294-.166.467-.14a.476.476 0 0 0 .396-.115.394.394 0 0 1 .368-.101c.147.03.273-.017.408-.082.151-.078.3-.202.498-.139.016.005.047.005.054-.007.185-.234.493-.152.723-.279.071-.04.162-.05.244-.06.245-.043.494-.06.73-.125.136-.038.212-.014.3.08.066.072.149.133.244.215.087-.166.12-.333.298-.38.09-.026.18-.11.257-.096.253.047.469-.044.692-.131a.477.477 0 0 1 .22-.038.41.41 0 0 0 .363-.112c.055-.052.157-.061.24-.07.31-.031.623-.048.931-.09.15-.019.294-.073.444-.113.07-.016.144-.025.218-.044.137-.03.275-.061.41-.096.045-.014.085-.066.128-.066.387-.007.74-.237 1.138-.178.057.009.121-.045.185-.064.142-.04.29-.108.432-.1.149.006.256-.024.35-.155.257.185.517.199.809.107.145-.044.32.022.474-.06.036-.02.1-.01.138.009.258.131.521.063.784.033.074-.01.157-.033.219-.007.258.103.516.105.782.044.05-.011.11.021.164.021.151.005.32.05.45-.002.27-.106.436.026.607.185.012.012.017.033.03.047.013.014.03.02.063.043.13-.104.28-.127.462-.12.242.01.486-.078.73-.117.11-.02.211-.052.327.028.062.042.183.01.275.002.28-.016.56-.035.84-.054.021-.002.038.002.059.005.299.05.299.05.517-.096.116.032.232.068.348.1.034.01.093.033.105.02.15-.163.336-.069.507-.092.178-.028.351-.03.529-.03.21.002.42-.095.63-.144.057-.016.133-.033.183-.012.225.106.441.064.666 0 .093-.023.197-.002.297.005.365.03.706-.129 1.069-.127.216.003.43-.093.633-.084.242.01.486-.092.697-.04.235.056.472-.073.692.056.022.014.076.003.105-.016.116-.082.227-.07.35-.014.058.023.143.044.195.021.13-.056.235-.047.34.052.025.028.087.035.127.023.204-.05.403-.05.614-.012a.887.887 0 0 0 .389-.044c.15-.047.277-.082.382.098l.249-.201h2.508c.074.065.126.25.32.253.026 0 .055.068.071.11.1.228.119.462.067.706-.026.134-.097.183-.216.174-.282-.021-.562-.066-.844-.007-.026.005-.057-.012-.083-.024-.453-.227-.837-.011-1.188.155-.213-.018-.393-.03-.571-.056-.088-.012-.176-.061-.263-.073a1.827 1.827 0 0 0-.358-.01c-.162.017-.32.048-.463-.072-.028-.023-.111-.028-.133-.007-.12.124-.239.066-.37.021a.487.487 0 0 0-.225-.007c-.194.04-.381.052-.519-.091-.045.007-.071.002-.08.014-.169.197-.363.19-.608.157-.241-.035-.5.026-.746.07-.093.017-.171.101-.266.162l-.246-.298c-.145.057-.283.11-.432.172a2.72 2.72 0 0 0-.844-.061c-.325.03-.652.03-.975.072-.272.04-.542.108-.808.186-.448.131-.887.298-1.337.42-.228.06-.477.042-.714.07-.626.07-1.252.157-1.88.216-.939.087-1.842.338-2.74.6-.226.068-.44.183-.66.275-.254.106-.505.23-.768.305-.74.216-1.428.53-2.091.915-.5.29-1.027.544-1.57.753-.934.357-1.78.868-2.627 1.384-.391.24-.8.448-1.195.676-.216.124-.424.253-.635.382-.152.094-.287.205-.491.2-.112 0-.225.096-.342.152a4.178 4.178 0 0 0-.177-.124c-.06.063-.14.117-.164.19-.083.253-.287.37-.515.441-.147.05-.277.18-.46.11-.033-.014-.097.047-.147.073-.092.047-.187.136-.277.131-.14-.009-.2.078-.29.141-.09.061-.191.13-.296.143-.147.02-.296-.018-.417.12-.03.035-.137.005-.216.005-.118.359-.386.514-.744.546-.46.047-.863.24-1.257.463-.289.161-.597.295-.896.438-.017.01-.04.028-.05.021-.175-.112-.284.05-.398.118-.211.124-.43.232-.614.403a1.74 1.74 0 0 1-.733.397c-.061.014-.111.07-.17.098a5.01 5.01 0 0 1-.261.104c-.017.004-.04.002-.057.007-.32.133-.647.255-.953.41-.119.061-.214.108-.328.059-.028.014-.054.02-.059.035-.116.31-.391.436-.659.572-.109.06-.225.118-.306.202-.123.132-.242.244-.44.216a.128.128 0 0 0-.079.028c-.183.148-.356.308-.543.45-.22.17-.394.39-.652.517-.147.07-.251.22-.391.31-.197.126-.427.206-.567.415-.021.03-.09.023-.128.051-.159.118-.313.242-.47.36-.104.08-.203.175-.32.215-.151.059-.27.125-.35.268-.083.143-.19.255-.39.239-.073-.005-.153.061-.224.108a3.07 3.07 0 0 0-.318.235c-.152.136-.306.192-.493.03-.178.303-.505.321-.776.425-.196.075-.403.105-.497.314-.212-.096-.394-.164-.593-.028-.124.084-.263.15-.403.206-.086.033-.188.064-.27.045-.548-.115-1.086-.047-1.625.059-.547.108-1.064.31-1.574.523-.242.103-.493.19-.73.305-.19.091-.368.204-.538.324a9.7 9.7 0 0 0-1.094.872c-.362.336-.775.617-1.17.918-.048.035-.122.037-.183.054-.18.051-.346.133-.434.298-.14.267-.41.382-.61.588-.1-.06-.175-.112-.272-.175-.033.082-.06.145-.08.213-.09.296-.366.387-.594.523-.4.242-.818.458-1.206.713-.266.176-.577.242-.847.388-.27.147-.578.272-.692.61-.017.044-.076.082-.119.112-.147.106-.296.207-.46.315a2.502 2.502 0 0 1-.14-.068l-.976.654c-.11.075-.195.171-.358.082-.055-.03-.204.04-.273.106-.251.246-.571.363-.884.5-.086.04-.162.107-.247.14-.13.05-.24.17-.4.12-.032-.01-.079.007-.107.026-.176.129-.392.194-.567.305-.368.225-.756.387-1.136.575-.21.105-.398.258-.61.366-.25.124-.464.323-.755.373-.057.009-.13.058-.152.11-.062.138-.157.166-.299.155a.571.571 0 0 0-.28.042c-.242.1-.47.235-.716.324-.481.178-.886.478-1.309.748-.28.18-.538.392-.803.596-.095.075-.161.162-.316.15-.132-.012-.258.078-.32.209-.187.41-.566.652-.865.964-.14.15-.34.242-.489.38-.284.265-.561.535-.815.826a1.99 1.99 0 0 0-.33.56c-.052.13-.135.189-.242.254-.144.094-.267.211-.398.322a.513.513 0 0 0-.173.347c-.033.32-.209.528-.507.655a.438.438 0 0 0-.209.208c-.095.219-.256.364-.43.519a3.36 3.36 0 0 0-.49.577c-.104.15-.275.265-.294.472-.393.239-.495.664-.673 1.044-.107.23-.259.436-.4.647-.034.052-.108.075-.16.115-.102.082-.118.193-.066.307.054.127.166.118.265.064.15-.078.294-.17.434-.263.195-.129.375-.274.572-.399.223-.14.457-.267.687-.399.043-.02.088-.06.128-.058.223.016.316-.148.463-.263.204-.169.471-.258.713-.378.327-.164.657-.324.987-.488.201-.098.398-.225.609-.293.332-.099.626-.265.93-.418.32-.162.666-.272.983-.429.434-.218.934-.275 1.333-.572a.95.95 0 0 1 .341-.139c.422-.098.783-.33 1.164-.516.117-.056.254-.073.382-.103.1-.028.206-.043.299-.082.336-.155.661-.336 1.007-.467.406-.15.842-.228 1.24-.397.385-.157.811-.1 1.184-.279.433.04.756-.282 1.161-.343.354-.056.686-.199 1.025-.312.308-.1.588-.293.896-.344.28-.047.495-.275.813-.214.123.024.278-.103.417-.167.043-.016.083-.063.126-.063.299-.005.574-.112.86-.173.117-.026.252-.036.342-.101.251-.188.553-.188.835-.26.061-.017.128-.027.192-.045.244-.068.488-.143.73-.214a7.7 7.7 0 0 0 .218-.066c.043-.016.093-.058.13-.049.266.059.475-.105.707-.173.017-.005.036-.02.052-.02.384.01.716-.18 1.072-.274.265-.07.538-.171.804-.157.291.014.552-.042.82-.12.11-.032.228-.037.327-.084a.854.854 0 0 1 .474-.087c.036.005.079.012.114-.002.354-.134.759-.117 1.093-.268.48-.21.996-.129 1.477-.286.202-.063.446.035.664-.077.043-.021.126.049.188.047.291-.014.583-.04.877-.059.102-.007.216-.033.303 0a.621.621 0 0 0 .472.012c.29-.118.581.018.87-.014.048-.005.11.023.14.002.23-.15.481-.124.735-.115.11.005.22.002.33-.005.225-.018.453-.044.678-.07.035-.002.073-.026.109-.026.586.019 1.164-.087 1.747-.11.105-.005.209.016.316.019.09.004.182-.003.277-.005.055 0 .126-.03.166-.007.237.131.441.002.616-.106.268-.169.562-.15.852-.19.206-.028.412-.065.62-.094.055-.009.117-.032.167-.02a.943.943 0 0 0 .697-.085c.197-.103.438-.204.647-.185.26.023.455-.054.666-.16a.198.198 0 0 1 .112-.021c.227.042.412-.007.53-.223.017-.033.08-.047.122-.059a.538.538 0 0 0 .389-.387c.09-.366.341-.629.533-.929.119-.188.24-.356.282-.596a1.07 1.07 0 0 1 .562-.758c.107-.058.154-.126.17-.237.017-.093.063-.187.055-.276-.02-.263.09-.458.323-.563.161-.076.166-.244.275-.35.232-.225.448-.465.678-.69.116-.112.247-.206.372-.305.06-.044.126-.082.185-.129.306-.25.612-.504.915-.76.067-.054.16-.096.192-.167.057-.126.162-.136.27-.169a.482.482 0 0 0 .207-.12c.178-.168.308-.398.586-.45.057-.011.104-.105.142-.169a.616.616 0 0 1 .44-.321c.155-.033.307-.15.43-.263.185-.166.415-.19.647-.244.02-.058.043-.108.05-.162.021-.16.06-.281.268-.232.045.01.11-.033.154-.06.154-.109.31-.22.458-.336.08-.064.15-.144.223-.214.03-.033.061-.075.1-.087.424-.129.511-.502.554-.844.04-.324.109-.603.349-.833.045-.042.061-.113.101-.164.055-.076.112-.15.174-.219.023-.028.08-.035.09-.06.113-.27.341-.35.604-.411.2-.05.38-.17.579-.263.15.094.322.073.453-.052.201-.185.457-.197.69-.18a.484.484 0 0 0 .339-.087c.268.183.618.211.834.462.24.272.598.444.71.824.013.054.044.105.054.16.04.309.076.616.116.935-.24.104-.351.28-.387.526-.054.359-.3.568-.637.657-.508.138-1.006.295-1.49.509-.46.202-.96.185-1.453.096-.078-.014-.163.012-.246.014-.102.002-.219.035-.304-.002-.386-.17-.723-.05-1.053.148-.111.065-.206.138-.353.161-.123.02-.227.153-.346.23-.251.158-.498.331-.766.465a3.99 3.99 0 0 0-1.117.793c-.073.07-.166.122-.244.19-.137.115-.272.232-.405.35-.08.07-.147.173-.237.199-.245.07-.403.249-.581.401-.097.087-.17.183-.318.225-.092.024-.17.17-.213.277-.04.101-.093.132-.19.174-.159.073-.332.178-.424.319-.157.235-.366.427-.475.701-.1.25-.137.51-.113.747.033.347-.157.537-.366.722a1.141 1.141 0 0 0-.296.406c-.064.134-.163.251-.242.38-.045.07-.095.143-.12.22-.081.27.018.376.289.322.204-.037.407-.084.614-.115.1-.014.204.007.306.005.104-.003.208-.007.31-.024.306-.047.612-.1.92-.152.026-.005.06-.017.083-.007.26.08.484-.03.664-.179.265-.222.58-.272.894-.32.341-.053.67-.125.967-.301a1.65 1.65 0 0 1 .553-.195c.173-.03.332-.145.507-.176.735-.127 1.44-.357 2.146-.575.064-.02.132-.056.192-.051.282.032.51-.134.768-.188.159-.033.31-.106.467-.11.31-.014.605-.064.86-.251.015-.012.036-.029.05-.026.252.054.427-.136.64-.188.401-.096.812-.134 1.217-.209.398-.07.806-.105 1.18-.286.098-.047.216-.054.328-.066.206-.025.415-.047.621-.051.294-.01.586 0 .88 0 .028 0 .061-.003.083-.019.294-.206.647-.249.979-.34.182-.05.372-.07.56-.113.135-.028.27-.07.403-.11.064-.021.12-.085.18-.087.234-.005.45-.05.673-.134.204-.075.45-.037.669-.086.177-.04.372-.05.526-.176.052-.043.135-.057.209-.064.206-.018.417 0 .595-.152.04-.035.125-.017.19-.028.303-.052.606-.061.9-.204.204-.099.458-.127.693-.137.415-.016.794-.16 1.185-.272.142-.037.278-.094.42-.124.054-.007.126.023.18.052.358.192.673.143 1.024-.064.365-.216.546-.453.548-.898.002-.39.03-.784.04-1.178.007-.232.031-.465.053-.697.011-.14.045-.28.047-.418.01-.63.017-1.264.135-1.886.069-.354.173-.697.26-1.046.058-.22.034-.26-.196-.35.05-.227-.071-.368-.246-.485-.07-.05-.15-.094-.19-.165-.327-.54-.531-1.11-.396-1.755.03-.145.052-.3.237-.356.038-.012.08-.061.092-.101.095-.312.363-.476.588-.669.098-.08.238-.11.36-.155.124-.047.25-.084.375-.12.027-.009.067-.018.083-.004.169.131.358.023.539.042.12.014.251-.051.381-.07.266-.042.472.103.686.227.047.026.109.092.14.08.258-.096.42.068.519.24.185.314.455.579.588.929.061.164.08.323.061.495-.033.333-.163.633-.317.922-.07.126-.24.201-.37.293-.505.357-1.067.586-1.665.744-.287.072-.424.31-.474.586a4.707 4.707 0 0 1-.163.622c-.076.232-.053.502-.034.755a.888.888 0 0 1-.073.465c-.285.598-.36 1.232-.36 1.886 0 .312-.043.622-.065.934-.007.113-.007.228-.014.34-.019.272.114.441.38.545.225-.397.576-.671.872-.998.123-.136.242-.307.294-.48.218-.714.645-1.31 1.077-1.9.592-.813 1.313-1.502 2.07-2.162.149-.131.31-.263.412-.43.187-.304.448-.539.725-.74.19-.139.394-.256.57-.411.303-.268.395-.587.289-.976-.088-.31-.169-.62-.164-.948.005-.286.062-.547.211-.786.19-.305.351-.638.583-.903.349-.397.498-.535 1.03-.305a.305.305 0 0 0 .165.019c.252-.033.301-.01.432.2.043.07.097.137.154.2.111.123.237.224.408.13.37.48.37.48.678.403.246.366.524.723.661 1.15.128.39.136.802.045 1.208-.068.312-.31.462-.666.481-.08.005-.173.078-.23.141-.111.122-.218.209-.396.167-.054-.012-.128.025-.185.056-.13.073-.263.15-.384.24-.15.107-.315.126-.488.135-.112.01-.22.026-.332.03a.224.224 0 0 1-.13-.03c-.15-.115-.328-.103-.496-.1a.416.416 0 0 0-.256.1c-.209.179-.4.373-.605.559a1.443 1.443 0 0 1-.206.15c-.287.195-.583.378-.84.615a3.224 3.224 0 0 1-.547.398c-.211.127-.386.265-.481.502-.036.08-.138.174-.223.19-.197.036-.325.165-.45.284a1.251 1.251 0 0 0-.325.456c-.1.274-.328.408-.524.581-.07.061-.145.122-.188.2-.102.202-.192.413-.282.622-.08.187.06.513.254.546.159.024.346.068.46-.129.023-.042.109-.075.161-.07.384.037.384.04.704-.106.187.171.4.16.626.085a.579.579 0 0 1 .216-.043c.206.012.41.054.619-.007.095-.025.208 0 .313.007.028.003.066.033.08.022.207-.141.458-.137.683-.21.09-.03.173-.081.263-.1.22-.045.446-.073.664-.117a.457.457 0 0 0 .18-.078c.13-.096.252-.202.392-.317.028.01.08.014.113.043.105.091.204.089.31.007.089-.068.181-.092.293-.038.244.117.457.021.654-.12.062-.046.111-.103.168-.154.074.02.135.058.197.056.06 0 .161-.026.17-.063.081-.273.347-.369.525-.542.135-.132.256-.317.5-.254.033.01.09-.028.126-.058.234-.205.5-.287.813-.254a.58.58 0 0 0 .268-.06c.19-.076.353-.189.588-.163.147.017.206.12.32.12.164.019.33.023.488.063.154.038.301.108.45.162.03.01.072.017.077.033.07.209.28.303.396.47a.88.88 0 0 1 .163.64c-.047.345-.021.697-.142 1.034-.01.026.007.064-.007.083-.161.206-.32.412-.49.61-.07.08-.17.136-.228.178l-.6.18c-.223.069-.444.12-.66-.016a.138.138 0 0 0-.08-.014c-.28.045-.56.09-.835.145-.1.022-.177.036-.27-.025a.42.42 0 0 0-.237-.082c-.353.014-.633-.202-.948-.305-.055-.017-.098-.087-.13-.141-.06-.099-.103-.207-.164-.3-.036-.05-.1-.08-.15-.12-.035.05-.076.094-.111.143-.017.021-.029.047-.06.103-.125-.03-.258-.068-.39-.098-.043-.007-.09.002-.136.004-.066.005-.137.028-.199.014-.315-.07-.605-.025-.865.183-.095-.08-.178-.15-.27-.23-.053.038-.105.066-.14.108-.093.11-.19.139-.323.061-.161-.093-.301.012-.422.092a.453.453 0 0 1-.365.08c-.266-.045-.538-.045-.704.237-.01.016-.024.035-.04.037-.292.113-.58.275-.904.204a.485.485 0 0 0-.38.054 1.766 1.766 0 0 1-.312.134c-.053.016-.119.033-.162.014-.163-.066-.317-.03-.479-.007-.196.03-.395.028-.595.05a.415.415 0 0 0-.18.063c-.175.122-.344.201-.578.133-.237-.07-.517.134-.595.373a.397.397 0 0 1-.112.181c-.27.218-.18.563.114.725.36.197.718.394 1.076.596.77.436 1.541.877 2.31 1.318.51.291 1.036.533 1.61.67.59.14 1.138.386 1.683.644.4.186.818.324 1.268.338.437.012.494 0 .852-.178l.149.1c.021-.032.047-.053.05-.079.012-.382.225-.544.595-.57.159-.01.315-.07.49-.11.043.056.093.122.143.185.152-.045.301-.13.439-.115.113.012.194-.073.322-.024.296.118.574.244.761.517.223.319.455.633.678.95a.713.713 0 0 1 .116.57c-.016.082-.012.169-.016.237-.112.152-.22.29-.318.439-.287.429-.628.8-1.043 1.112-.169.126-.325.255-.522.33-.12.045-.235.137-.38.069-.02-.012-.058-.003-.082.009-.159.073-.318.12-.481.007-.306.061-.543-.131-.802-.235-.071-.028-.128-.105-.18-.173-.138-.18-.282-.36-.398-.554-.1-.169-.16-.361-.242-.542-.133-.281-.22-.598-.418-.83-.187-.221-.478-.385-.806-.352a.349.349 0 0 1-.322-.122.41.41 0 0 0-.351-.15c-.052.002-.135-.038-.159-.085-.064-.103-.15-.129-.26-.145a1.351 1.351 0 0 1-.344-.118 2.398 2.398 0 0 0-1.12-.295c-.061.002-.149-.007-.177-.045-.105-.138-.252-.138-.399-.183-.22-.06-.474-.084-.635-.296-.029-.037-.1-.042-.152-.065-.09-.042-.182-.085-.273-.132-.04-.023-.073-.08-.11-.082-.226-.01-.35-.173-.499-.302-.073-.064-.135-.162-.268-.115-.028.011-.08-.038-.12-.061-.271-.15-.534-.289-.845-.362-.246-.058-.514-.124-.718-.316-.209-.197-.493-.23-.756-.308-.046-.011-.1-.01-.133-.035-.135-.098-.268-.18-.444-.14a.132.132 0 0 1-.083-.02c-.249-.129-.498-.25-.74-.389-.189-.106-.357-.249-.554-.333-.121-.047-.18-.127-.251-.211-.105-.12-.214-.24-.29-.324-.168 0-.289-.007-.408 0-.094.007-.206 0-.28.042-.303.188-.647.153-.976.197-.074.01-.166 0-.223.038-.308.204-.664.237-1.01.302a.432.432 0 0 0-.17.092c-.079.056-.153.12-.254.052-.008-.005-.022-.014-.027-.012-.277.124-.59.066-.872.164-.043.017-.083.042-.13.05l-1.131.178c-.029.004-.062 0-.081.014-.322.265-.726.131-1.086.209-.08.018-.178.009-.247.051-.199.117-.41.193-.628.263-.135.042-.24.075-.393.061-.171-.019-.358.096-.536.152-.017.005-.024.038-.04.04a62.47 62.47 0 0 1-.909.19c-.147.029-.303.03-.448.073-.27.073-.533.174-.804.251-.135.04-.282.082-.417.068-.334-.04-.645.033-.965.101-.81.167-1.631.312-2.442.486-.479.1-.948.232-1.422.347-.539.134-1.077.267-1.617.387a4.126 4.126 0 0 0-.98.321c-.168.085-.353.141-.536.19-.196.05-.327.153-.367.352-.036.186.043.317.251.432.031.021.08.026.1.052.161.258.427.394.652.577.152.127.315.242.488.333.107.054.202.1.264.207.068.12.18.17.31.227.166.07.301.207.45.317.105.077.21.157.311.234.052.043.121.07.152.122.111.174.273.207.45.165.15-.033.261.004.354.12.028.032.066.074.109.086.227.061.457.11.685.171.209.06.415.134.626.188.386.103.775.19 1.176.244.284.038.576.092.865.13.043.004.08.046.116.074.188.143.38.171.607.068.233-.105.39-.298.584-.446.15-.112.306-.22.464-.32.18-.116.363-.229.553-.33.185-.093.377-.173.583-.267a.585.585 0 0 0 .55.061c.074-.026.18.033.282.054a.527.527 0 0 1 .46-.136c.24.042.486-.047.738.012.317.075.595.16.737.511.197.484.277.979.28 1.495 0 .234.038.471.012.701a.724.724 0 0 1-.197.387c-.18.195-.391.36-.61.552-.175-.099-.334-.061-.474.112-.061.078-.159.108-.282.101-.154-.014-.315.019-.472.05-.374.07-.744.161-1.119.222a4.5 4.5 0 0 1-.775.05c-.292-.007-.58-.052-.828-.235-.218-.164-.464-.29-.652-.481-.156-.16-.308-.35-.22-.626.078-.256-.012-.373-.285-.45-.028-.008-.07-.003-.08-.02-.173-.272-.493-.25-.747-.359-.26-.105-.548-.161-.82-.25-.335-.113-.669-.23-.996-.355-.52-.197-1.041-.385-1.548-.608-.764-.333-1.482-.739-2.101-1.311-.543-.502-1.186-.863-1.883-1.12-.315-.116-.635-.217-.939-.356-.36-.157-.699-.112-1.014.078-.176.103-.358.129-.546.145a.932.932 0 0 0-.443.155c-.15.096-.318.237-.545.152-.071-.025-.195.017-.261.066-.183.143-.382.16-.595.14-.147-.01-.285-.001-.399.116-.03.03-.102.021-.149.042-.237.103-.472.2-.733.242-.064.011-.118.089-.18.131-.092.068-.182.08-.291.021-.183-.098-.38-.06-.534.087-.095.094-.19.122-.33.115-.184-.01-.374.045-.561.07-.216.036-.43.073-.648.104-.061.009-.128-.005-.19.004a1.5 1.5 0 0 0-.265.061c-.135.04-.265.092-.4.134-.017.007-.043.012-.055.002-.315-.206-.645-.06-.913.05-.249.1-.484.155-.74.201-.244.043-.476.13-.732.108-.088-.009-.183.036-.273.064-.109.033-.206.077-.325-.005-.047-.035-.163.007-.234.04-.09.037-.166.09-.268.035-.036-.019-.102-.012-.136.012-.199.129-.414.12-.633.094-.085-.012-.185-.024-.256.011-.234.113-.462.141-.697.003-.021-.012-.059-.017-.08-.005a1.841 1.841 0 0 1-.74.136c-.318 0-.633.103-.95.12-.43.023-.864.02-1.293.004-.36-.011-.723-.086-1.086-.084-.439.002-.877.047-1.313.09-.735.074-1.466.166-2.198.236-1.224.12-2.43.333-3.607.688-.63.19-1.244.438-1.868.652-.984.34-1.973.668-2.959 1.004-.29.096-.578.197-.87.286-.11.033-.23.07-.337.054-.704-.096-1.299.171-1.859.537a3.148 3.148 0 0 1-.853.376c-.474.143-.927.356-1.39.54-.57.218-1.14.436-1.711.656-.785.298-1.575.594-2.357.899-.782.305-1.555.636-2.345.929-.666.249-1.292.572-1.909.917-1.06.592-2.11 1.197-3.177 1.774-.412.22-.74.53-1.062.854-.384.382-.782.748-1.045 1.236a.762.762 0 0 1-.323.312c-.308.153-.493.411-.668.679-.21.314-.468.586-.655.924-.216.39-.562.706-.84 1.067-.194.251-.364.524-.554.784-.194.265-.396.526-.595.79-.069.092-.14.179-.202.27-.094.139-.106.352-.348.36-.04 0-.078.077-.112.124-.113.16-.215.326-.431.385-.076.02-.121.14-.187.204-.147.14-.304.274-.449.42-.066.063-.116.14-.168.215-.06.087-.102.167-.244.15-.166-.016-.256.15-.351.252-.192.2-.405.373-.557.621a1.488 1.488 0 0 1-.735.594c-.102.038-.187.127-.27.202-.242.216-.48.43-.714.65a1.56 1.56 0 0 0-.18.215c-.135.186-.266.369-.392.559-.12.178-.248.356-.339.551-.102.216-.263.336-.51.383-.127-.064-.163-.141-.13-.324.055-.291.19-.535.327-.781.536-.946 1.205-1.8 1.907-2.626.154-.18.341-.335.514-.497.25-.235.5-.465.752-.697.054-.052.106-.117.175-.138.34-.12.531-.378.68-.678.129-.045.297-.057.378-.146.194-.213.343-.464.514-.697.078-.105.145-.232.25-.298.68-.44 1.111-1.093 1.472-1.783.33-.624.682-1.23 1.095-1.8.024-.032.047-.06.066-.093.36-.685.814-1.302 1.3-1.907a19.045 19.045 0 0 0 1.588-2.326c.275-.464.562-.926.854-1.379.168-.26.372-.502.54-.763.195-.298.349-.624.555-.912.218-.31.479-.59.72-.882.08-.094.145-.197.226-.289.197-.225.398-.446.595-.67.062-.067.112-.142.192-.243.19.036.261-.115.308-.293a.77.77 0 0 1 .048-.164c.06-.136.142-.237.318-.24a.315.315 0 0 0 .215-.098c.22-.298.489-.549.757-.802.21-.2.367-.455.55-.685.1-.125.213-.24.306-.364.04-.056.087-.171.064-.195-.119-.129-.024-.23.019-.338.225-.563.393-1.142.543-1.731.17-.685.244-1.38.374-2.07.014-.072.024-.161.069-.213.265-.284.206-.626.201-.964 0-.103-.016-.209 0-.308.046-.295.09-.586.21-.872.175-.413.284-.854.405-1.29.04-.141.03-.301.047-.451.012-.122 0-.256.043-.364.17-.431.218-.908.512-1.29a.35.35 0 0 0 .064-.186c.021-.412.069-.823.161-1.229a.619.619 0 0 0-.024-.277c-.057-.246-.128-.49-.182-.736a.494.494 0 0 1-.005-.256c.126-.413-.04-.798-.107-1.19-.047-.277-.151-.542-.227-.814-.045-.166-.107-.33-.114-.497-.007-.162.052-.324.073-.486.012-.082.012-.164.015-.25.004-.14-.024-.28.109-.395.047-.04.054-.134.066-.206.057-.364.088-.73.22-1.077a.624.624 0 0 0 .015-.282c-.031-.312.01-.608.135-.903.06-.14.092-.291.057-.47-.043-.213-.02-.45.185-.614a.28.28 0 0 0 .08-.103c.147-.378.283-.763.392-1.155.085-.305.268-.58.403-.868.04-.084.078-.169.111-.253.045-.115.09-.23.123-.345.076-.263.273-.502.285-.76.016-.387.2-.706.313-1.051.095-.284.256-.545.4-.812.043-.08.129-.134.2-.204-.017-.214.007-.41.187-.58.076-.068.078-.206.138-.3.45-.69.9-1.38 1.365-2.057.223-.331.482-.639.726-.953.04-.05.095-.103.151-.117a.591.591 0 0 0 .401-.4c.04-.114.097-.2.214-.248a.288.288 0 0 0 .116-.077c.27-.35.654-.545 1.036-.737.306-.155.633-.272.939-.427.303-.157.619-.31.884-.518.251-.202.391-.512.493-.815.116-.354.27-.706.218-1.098-.007-.072.022-.147.04-.22.05-.19.107-.378.081-.582a.419.419 0 0 1 .043-.19c.2-.5.299-1.018.31-1.553.008-.455.15-.875.337-1.286.012-.03.048-.054.076-.087" mask="url(#d)"/>
        </g>
        <path fill="#827C74" fill-opacity="0" d="M30.405 27.04c-.142-.043-.244.036-.313.159-.119.195-.3.363-.226.636.031.119-.19.364-.31.367-.305.009-.421.229-.497.451-.082.24-.16.438-.41.57-.212.111-.378.308-.563.47-.08.067-.15.15-.238.202a.466.466 0 0 0-.238.337.305.305 0 0 1-.231.258c-.104.033-.19.124-.282.19-.047.03-.09.086-.14.094-.227.035-.368.189-.51.347-.038.04-.082.098-.13.103-.181.024-.291.11-.401.266-.095.134-.26.037-.408-.054.042-.175.091-.345.126-.52.035-.173.007-.382.097-.515.092-.138.275-.215.335-.399.045-.139.164-.222.272-.319.227-.21.428-.447.63-.683.048-.053.068-.138.087-.21.028-.11.083-.19.197-.223.108-.035.157-.115.217-.207.176-.278.262-.62.568-.81.047-.03.086-.082.135-.092.329-.075.45-.324.515-.61.036-.158.046-.29.23-.386.121-.063.211-.253.244-.398a.675.675 0 0 1 .163-.321c.047-.047.113-.099.123-.157.062-.417.414-.623.654-.913.04-.051.062-.114.093-.173.064-.116.117-.24.197-.341.223-.294.46-.575.687-.865.056-.073.074-.211.14-.238.21-.081.238-.274.322-.432.09-.165.143-.349.238-.51.078-.14.172-.278.29-.381.142-.119.254-.22.295-.425.034-.171.183-.323.277-.487.04-.072.082-.148.095-.225a.743.743 0 0 1 .224-.446c.078-.075.117-.19.17-.289.01-.013 0-.045.01-.051.25-.153.134-.523.416-.67.084-.046.125-.188.177-.29.404-.816.918-1.56 1.5-2.254.245-.293.538-.54.807-.813.461-.467.94-.924 1.375-1.416.369-.421.792-.77 1.256-1.074.407-.268.822-.529 1.236-.787.64-.395 1.282-.794 1.93-1.18.418-.249.855-.463 1.266-.72.37-.232.714-.507 1.079-.744.083-.056.214-.036.372-.059.157-.09.301-.289.55-.345.072-.018.123-.137.194-.225.391.16.453-.24.66-.43.149.08.258.006.383-.082.135-.091.258-.246.47-.186.101-.219.29-.315.517-.35.125-.018.217-.08.322-.15.18-.115.382-.234.607-.128.289-.343.509-.32.815.05-.043.075-.073.186-.147.246a.728.728 0 0 0-.276.477 4.227 4.227 0 0 0-.158-.055c-.11.06-.206.135-.315.167-.177.05-.324.118-.357.317-.105.016-.2.026-.287.037-.165.385-.411.672-.793.856-.188.088-.337.253-.504.383-.098.073-.208.13-.293.216-.332.334-.66.673-.993 1.006-.066.07-.153.116-.23.172-.269.192-.453.464-.66.71-.166.197-.35.371-.602.463-.051.018-.112.05-.138.092-.13.24-.248.483-.384.747l-.234.002c-.081.158-.16.314-.25.486-.184-.05-.337 0-.43.187-.024.048-.084.075-.126.113-.112.103-.253.192-.324.317-.116.208-.32.304-.48.457-.224.214-.452.427-.607.703-.024.044-.023.103-.025.159-.01.179-.111.318-.27.29-.203-.038-.295.09-.418.19-.107.087-.222.166-.333.249-.125.165-.247.342-.38.508-.085.1-.184.189-.274.282-.02.022-.034.067-.052.066-.236.016-.3.271-.492.354-.067.03-.105.125-.16.188-.037.038-.08.086-.128.094-.225.042-.344.177-.398.39-.02.071-.057.14-.096.229-.22-.1-.338.028-.442.191-.058.086-.11.175-.173.26-.039.054-.084.118-.14.136-.237.071-.392.227-.544.418-.133.163-.335.274-.52.389a.303.303 0 0 0-.154.186c-.043.145-.096.284-.264.35-.04.015-.054.095-.086.137-.026.039-.06.104-.09.102-.191-.015-.234.125-.293.254-.017.041-.045.091-.082.112a.775.775 0 0 0-.39.53c-.013.056-.131.127-.2.127-.268.003-.402.211-.58.351-.065.051-.121.111-.183.164-.037.03-.102.045-.115.08-.066.205-.243.295-.405.399-.024.016-.062.037-.062.057-.02.36-.451.486-.493.836-.3.125-.259.544-.572.66-.021.01-.05.044-.052.067-.019.204-.169.346-.251.52-.092.186-.13.415-.361.507-.016.005-.036.027-.035.042-.004.316-.36.459-.382.776-.006.107-.112.21-.183.334M9.689 44.764c.167.231.095.505-.002.772-.046.13-.185.13-.259-.005-.114-.203-.178-.42-.139-.659.01-.049.03-.113.008-.153-.163-.31-.118-.64-.118-.968.002-.12-.02-.24-.018-.36 0-.133.019-.262.028-.395.005-.064.028-.138.003-.186-.213-.427-.151-.881-.163-1.329-.002-.074.017-.153 0-.222a2.761 2.761 0 0 1-.101-.93c.016-.217-.129-.367-.189-.552-.149-.45-.377-.864-.614-1.272-.03-.054-.06-.158-.035-.185.135-.149-.014-.234-.062-.337-.056-.114-.137-.217-.202-.328-.05-.08-.075-.185-.14-.244-.23-.205-.296-.501-.46-.744a.315.315 0 0 1-.043-.134c-.035-.242-.153-.426-.31-.616-.13-.157-.188-.384-.252-.587a3.536 3.536 0 0 1-.17-1.454c.003-.039.014-.078.003-.114-.13-.537-.06-1.116-.311-1.632.04-.194-.097-.404.057-.6.047-.057.042-.16.044-.245.015-.692.05-1.38-.101-2.066-.09-.414-.072-.85-.081-1.276-.016-.606-.052-1.217.09-1.813.091-.385.206-.77.325-1.152.093-.298.217-.588.307-.888.066-.227.094-.464.149-.693.057-.239.113-.481.202-.708.175-.439.342-.889.57-1.301.193-.358.43-.708.717-.99.279-.276.545-.523.74-.879.247-.46.933-.392 1.175.072.052.1.11.214.103.32-.019.39.213.723.227 1.1 0 .037.038.076.032.109-.055.23-.104.457.018.68-.19.239.003.488-.034.726-.05.32-.012.66-.221.952-.054.074-.023.213-.032.32l-.042.468c-.005.084-.032.176-.006.247.12.33.055.642-.086.943-.081.184-.067.361-.061.551.009.282-.024.56-.048.84-.005.048-.056.097-.094.136-.173.17-.301.359-.357.601-.045.189-.125.37-.19.557-.011.026-.013.064-.033.079-.325.256-.303.697-.542.999-.012.014-.025.034-.024.05-.004.462-.317.823-.414 1.255-.099.435-.27.852-.372 1.286a14.544 14.544 0 0 0-.306 1.622c-.069.627-.01 1.247.182 1.857a8.549 8.549 0 0 0 1.443 2.69c.396.505.603 1.089.746 1.703.045.194.075.393.127.584.1.385.086.77.04 1.158-.049.405-.104.81-.164 1.213-.02.14-.062.278-.095.417-.053.25-.098.5-.163.746-.08.308-.177.609-.282.964"/>
    </g>
</svg>
