<svg xmlns="http://www.w3.org/2000/svg" width="28" height="12" viewBox="0 0 28 12">
    <path fill="#FFF" fill-rule="evenodd" d="M2 9.79c-.128-.234-.09-.451-.069-.667.006-.059.038-.14.012-.172-.119-.145-.07-.333-.14-.484-.133-.289.017-.566.008-.85.086-.119.054-.255.048-.387-.007-.2-.012-.202-.273-.23-.063.07-.12.15-.193.207-.13.097-.173.23-.185.379-.006.072-.004.146-.003.219.002.146.002.284-.078.42a.722.722 0 0 0-.074.461c.026.204.014.405-.053.61l.215.225c-.017.095-.03.174-.041.245l.6.234L2 9.79M7 9c-.183-.006-.317.058-.451.125-.125.062-.254.11-.374.181-.33.194-.702.27-1.053.4a6.527 6.527 0 0 1-1.57.365c-.41.044-.822.064-1.234.093-.266.019-.318.078-.318.37 0 .026.004.052.004.079.006.437.181.43.443.334.142-.05.287-.128.43-.125.404.007.795-.078 1.192-.13a.763.763 0 0 0 .317-.1c.172-.107.344-.227.532-.285.17-.052.323-.128.476-.217.077-.044.16-.074.24-.11.162-.07.328-.13.483-.214.21-.114.414-.24.614-.374.124-.082.264-.163.269-.391m-4.863.947c.1.026.152.055.2.052.31-.024.623.015.935-.044.353-.067.715-.129 1.076-.165.448-.044.88-.125 1.313-.206.169-.031.328-.088.488-.138.211-.067.41-.16.63-.203.274-.053.524-.125.777-.22.29-.11.54-.245.803-.376.18-.09.315-.205.46-.313.103-.077.201-.177.177-.313a1.626 1.626 0 0 0-.827.072c-.154.06-.316.111-.48.155-.34.092-.687.173-1.026.264a1.31 1.31 0 0 0-.282.112 3.094 3.094 0 0 1-.789.291c-.27.065-.547.108-.827.15-.47.073-.936.123-1.416.09-.258-.017-.512-.052-.769-.074a3.86 3.86 0 0 0-.406-.022c-.123.003-.196.072-.168.157.02.062.065.12.106.178.062.085.108.162.053.266-.043.082-.02.18-.028.287m.258-1.898c.025.062.06.112.065.166.013.18.1.298.229.375.123.073.242.14.335.267.033.044.117.06.173.053.176-.022.35.002.523.005.172.002.343-.034.503.073.02.013.054.015.075.004.198-.105.421-.065.62-.13.308-.098.612-.236.89-.433.108-.075.212-.15.345-.156a.386.386 0 0 0 .321-.202c.119-.205.295-.242.482-.295.325-.093.645-.215.964-.333.037-.014.081-.086.08-.13-.001-.065-.024-.154-.065-.187a.59.59 0 0 0-.467-.12c-.372.053-.746.103-1.12.145-.461.051-.922.115-1.386.131-.275.01-.549.002-.822.06-.109.022-.225.003-.337-.004-.15-.01-.3-.025-.448-.042-.113-.012-.225-.023-.336-.048-.146-.034-.29-.083-.436-.122-.202-.053-.305.01-.388.23l-.164.44c-.024.064-.06.13.008.213l.356.04M3.953 4c-.136.01-.23.014-.32.027-.106.014-.165.072-.138.138.032.076.114.149.059.232-.065.096-.216.09-.34.118-.172.039-.222.097-.213.226.009.116.092.19.248.214.038.006.08.004.12.007.278.018.54.066.802.142.25.072.504.158.8.135.112-.008.238.021.346.051.134.038.262.09.38.147.092.043.181.069.295.069.106 0 .214.021.318.015a.647.647 0 0 1 .37.08c.201.117.435.161.694.179.33.021.656.055.965.153.15.048.334.056.504.067.048.003.12-.037.15-.07.019-.02-.006-.076-.038-.095-.211-.12-.38-.279-.66-.342-.074-.016-.135-.057-.199-.09-.266-.133-.557-.244-.797-.402-.065-.043-.15-.073-.232-.104-.58-.218-1.165-.432-1.717-.685a.762.762 0 0 0-.217-.067c-.405-.054-.813-.1-1.18-.145M28 8.036a1.879 1.879 0 0 0-.39.038 8.25 8.25 0 0 1-1.917.154.986.986 0 0 0-.386.041.608.608 0 0 1-.385-.007c-.123-.038-.258-.055-.373-.104-.355-.15-.712-.097-1.075-.037a2.44 2.44 0 0 1-.389.034c-.523.003-1.05-.029-1.544.164-.195 0-.391.014-.584 0-.184-.013-.364-.062-.54.024a.068.068 0 0 1-.037.007c-.313-.067-.596.06-.892.094-.393.045-.571.038-1.12-.067-.025-.005-.054-.016-.076-.01-.373.108-.757-.038-1.135.044-.215.046-.439 0-.662-.034-.36-.056-.731-.067-1.098-.096-.013 0-.026.003-.04.002-.22-.018-.442-.045-.664-.051-.222-.007-.456.042-.668.003-.311-.057-.622-.072-.937-.093-.541-.036-1.073.036-1.61.06-.05.002-.104.014-.152.005-.43-.079-.864-.045-1.297-.05a.565.565 0 0 0-.295.078c-.064.037-.13.08-.203.101-.294.09-.468.285-.599.5-.167.277-.439.461-.711.651-.11.077-.215.16-.325.237-.099.07-.2.14-.304.206-.42.265-.86.495-1.322.71-.46.212-.949.366-1.405.58-.422.066-.792.28-1.24.29-.245.005-.49.054-.736.08-.287.032-.545.155-.794.279-.369.184-.373.184-.666-.062-.216-.183-.381-.39-.468-.638a.79.79 0 0 0-.072-.154c-.08-.135-.107-.265-.016-.409.069-.109.04-.21-.076-.296a.526.526 0 0 1-.229-.339c-.022-.13-.184-.215-.148-.367.012-.055-.027-.132-.072-.179C.27 9.344.2 9.269.237 9.158c-.183-.277-.063-.606-.213-.89-.046-.088-.022-.177.035-.253a2.3 2.3 0 0 1 .235-.265 9.24 9.24 0 0 1 .398-.366c.045-.038.102-.09.154-.091.197-.005.266-.119.338-.24.035-.059.079-.114.12-.17l.333-.453.386-.078c.159.05.308.092.454.14.23.077.407.2.474.41a.406.406 0 0 0 .077.149c.048.052.118.102.204.075.28-.09.574-.02.86-.051.175-.02.363.028.543.056.213.032.417.026.616-.053.083-.032.184-.035.26-.073.22-.11.452-.1.689-.072.222.026.431.013.652-.053.215-.063.45-.103.695-.031.143.042.313.018.47.03.172.012.342.032.43.185.01.019.03.048.048.048.195.012.256.188.417.234.058.016.132.02.188.006.21-.056.291-.381.122-.495a1.371 1.371 0 0 0-.303-.152c-.326-.117-.658-.224-1.018-.249a.588.588 0 0 1-.155-.024c-.472-.167-.971-.262-1.458-.389-.2-.052-.393-.126-.596-.17a38.623 38.623 0 0 0-1.457-.286c-.142-.025-.276-.043-.411-.096-.237-.092-.49-.156-.74-.223a.609.609 0 0 0-.42.043c-.133.064-.256.095-.41.036-.057-.023-.149.018-.225.03l.008.008c.184-.388.39-.769.509-1.175.027-.096.067-.184.02-.289-.022-.05.008-.13.043-.183.062-.096.129-.198.223-.27.191-.15.397-.287.607-.419.058-.037.149-.036.231-.054.204.086.352.23.505.363.268.23.581.371.96.42.342.044.662.143.958.291.034.017.067.043.104.049.366.058.62.278.914.441.208.116.401.252.618.354.193.092.315.252.546.314.205.055.38.193.567.294.386.209.685.478.853.843.036.082.09.159.127.24.146.319.322.63.28.989.123.06.244.104.342.17.242.165.52.207.816.182.38-.032.758-.07 1.137-.112a2.93 2.93 0 0 1 .667 0c.88.1 1.758.058 2.636-.028.406-.04.809-.033 1.207.077.234.065.476.105.734.092.272-.013.55-.007.817.077.247.078.51.088.777.076.25-.01.5 0 .749-.006.183-.006.365-.025.547-.036.091-.005.184-.005.275-.008.091-.003.185-.001.274-.014.259-.036.515-.081.772-.117a.538.538 0 0 1 .195 0c.215.05.416-.008.62-.045.049-.01.111-.027.137-.058.041-.051.079-.117.076-.175-.001-.037-.074-.086-.126-.103a5.612 5.612 0 0 0-.451-.116c-.35-.078-.651-.237-.956-.387a1.155 1.155 0 0 0-.516-.136.912.912 0 0 1-.572-.184c-.125-.094-.258-.182-.434-.21a.443.443 0 0 1-.177-.071c-.26-.181-.551-.325-.842-.47-.176-.087-.387-.14-.48-.316l-1.232-.95.042-.206c.067.068.133.135.2.2.101.101.194.21.308.3.297.233.59.47.935.659.235.13.477.229.754.252.138.012.254.036.352.12.118.101.272.107.47.129-.038-.072-.045-.117-.076-.142-.152-.121-.303-.244-.466-.353-.209-.138-.397-.287-.524-.486a1.71 1.71 0 0 0-.418-.475.404.404 0 0 1-.134-.196 1.297 1.297 0 0 0-.392-.588c-.026-.022-.065-.051-.063-.076.012-.143-.098-.222-.215-.296a.56.56 0 0 1-.228-.297c-.065-.167-.162-.324-.255-.482-.043-.074-.124-.113-.229-.096-.108.017-.19.09-.197.181-.005.077.03.163-.002.228-.076.156-.026.3.006.452.068.325.124.651.186.977-.345-.214-.461-.519-.492-.859-.008-.075-.014-.151-.028-.226-.045-.238-.071-.481-.148-.712a6.48 6.48 0 0 0-.384-.93c-.077-.149-.074-.323-.22-.453-.124-.11-.215-.247-.334-.361-.076-.072-.175-.129-.268-.187-.23-.144-.464-.286-.697-.427-.086-.052-.111-.122-.08-.204.036-.088.1-.16.218-.17a.375.375 0 0 1 .185.03c.135.067.261.148.39.225.233.143.462.291.698.431.11.066.197.14.256.244.074.128.159.253.251.372.229.296.467.587.696.882.168.217.386.39.646.525a.815.815 0 0 1 .387.403c.134.3.3.584.528.846.121.14.213.307.281.472.11.271.312.484.558.669.51.382.988.792 1.531 1.143.145.094.273.208.4.319.251.22.545.38.892.47.277.074.543.165.795.29.124.06.262.102.398.143.372.112.743.225 1.12.325.199.054.405.107.612.123"/>
</svg>
