<svg xmlns="http://www.w3.org/2000/svg" width="28" height="12" viewBox="0 0 28 12">
    <path fill="#FFF" fill-rule="evenodd" d="M26 9.79c.128-.234.09-.451.069-.667-.006-.059-.038-.14-.012-.172.119-.145.07-.333.14-.484.133-.289-.017-.566-.008-.85-.086-.119-.054-.255-.048-.387.007-.2.012-.202.273-.23.063.07.12.15.193.207.13.097.173.23.185.379.006.072.004.146.003.219-.002.146-.002.284.078.42.08.137.094.3.074.461-.026.204-.014.405.053.61l-.215.225c.017.095.03.174.041.245l-.6.234L26 9.79M21 9c.183-.006.317.058.451.125.125.062.254.11.374.181.33.194.702.27 1.053.4a6.527 6.527 0 0 0 1.57.365c.41.044.822.064 1.234.093.266.019.318.078.318.37 0 .026-.004.052-.004.079-.006.437-.181.43-.443.334-.142-.05-.287-.128-.43-.125-.404.007-.795-.078-1.192-.13a.763.763 0 0 1-.317-.1c-.172-.107-.344-.227-.532-.285a2.267 2.267 0 0 1-.476-.217c-.077-.044-.16-.074-.24-.11-.162-.07-.328-.13-.483-.214a8.255 8.255 0 0 1-.614-.374c-.124-.082-.264-.163-.269-.391m4.863.947c-.1.026-.152.055-.2.052-.31-.024-.623.015-.935-.044a12.498 12.498 0 0 0-1.076-.165c-.448-.044-.88-.125-1.313-.206-.169-.031-.328-.088-.488-.138-.211-.067-.41-.16-.63-.203a4.744 4.744 0 0 1-.777-.22c-.29-.11-.54-.245-.803-.376-.18-.09-.315-.205-.46-.313-.103-.077-.201-.177-.177-.313.293-.041.564-.029.827.072.154.06.316.111.48.155.34.092.687.173 1.026.264.1.027.198.066.282.112.237.132.502.223.789.291.27.065.547.108.827.15.47.073.936.123 1.416.09.258-.017.512-.052.769-.074a3.86 3.86 0 0 1 .406-.022c.123.003.196.072.168.157-.02.062-.065.12-.106.178-.062.085-.108.162-.053.266.043.082.02.18.028.287m-.258-1.898c-.025.062-.06.112-.065.166a.45.45 0 0 1-.229.375c-.123.073-.242.14-.335.267-.033.044-.117.06-.173.053-.176-.022-.35.002-.523.005-.172.002-.343-.034-.503.073a.082.082 0 0 1-.075.004c-.198-.105-.421-.065-.62-.13a3.265 3.265 0 0 1-.89-.433c-.108-.075-.212-.15-.345-.156a.386.386 0 0 1-.321-.202c-.119-.205-.295-.242-.482-.295-.325-.093-.645-.215-.964-.333-.037-.014-.081-.086-.08-.13.001-.065.024-.154.065-.187a.59.59 0 0 1 .467-.12c.372.053.746.103 1.12.145.461.051.922.115 1.386.131.275.01.549.002.822.06.109.022.225.003.337-.004.15-.01.3-.025.448-.042.113-.012.225-.023.336-.048.146-.034.29-.083.436-.122.202-.053.305.01.388.23l.164.44c.024.064.06.13-.008.213l-.356.04M24.047 4c.136.01.23.014.32.027.106.014.165.072.138.138-.032.076-.114.149-.059.232.065.096.216.09.34.118.172.039.222.097.213.226-.009.116-.092.19-.248.214-.038.006-.08.004-.12.007-.278.018-.54.066-.802.142-.25.072-.504.158-.8.135a1.056 1.056 0 0 0-.346.051c-.134.038-.262.09-.38.147a.645.645 0 0 1-.295.069c-.106 0-.214.021-.318.015a.647.647 0 0 0-.37.08c-.201.117-.435.161-.694.179-.33.021-.656.055-.965.153-.15.048-.334.055-.504.067-.048.003-.12-.037-.15-.07-.019-.02.006-.076.038-.095.211-.12.38-.279.66-.342.074-.016.135-.057.199-.09.266-.133.557-.244.797-.402.065-.043.15-.073.232-.104.58-.218 1.165-.432 1.717-.685a.762.762 0 0 1 .217-.067c.405-.054.813-.1 1.18-.145M0 8.036c.13-.003.263.014.39.038a8.25 8.25 0 0 0 1.917.154.985.985 0 0 1 .386.041.608.608 0 0 0 .385-.007c.123-.038.258-.055.373-.104.355-.15.712-.097 1.075-.037.128.022.259.034.389.034.523.003 1.05-.029 1.544.164.195 0 .391.014.584 0 .184-.013.364-.063.54.024.01.005.026.009.037.007.313-.067.596.06.892.094.393.045.571.038 1.12-.067.025-.005.054-.016.076-.01.373.108.757-.038 1.135.044.215.046.439 0 .662-.034.36-.056.731-.067 1.098-.096.013 0 .026.003.04.002.22-.018.442-.045.664-.051.222-.007.456.042.668.003.311-.057.622-.072.937-.093.541-.036 1.073.036 1.61.06.05.002.104.014.152.005.43-.079.864-.045 1.297-.05.111 0 .205.027.295.078.064.037.13.08.203.101.294.09.468.285.599.5.167.277.439.461.711.651.11.077.215.16.325.237.099.07.2.14.304.206.42.265.86.495 1.322.71.46.212.949.366 1.405.58.422.066.792.28 1.24.29.245.005.49.054.736.08.287.032.545.155.794.279.369.184.373.184.666-.062.216-.183.381-.39.468-.638a.79.79 0 0 1 .072-.154c.08-.135.107-.265.016-.409-.069-.109-.04-.21.076-.296a.526.526 0 0 0 .229-.339c.022-.13.184-.215.148-.367-.012-.055.027-.132.072-.179.078-.081.147-.156.111-.267.183-.277.063-.606.213-.89.046-.088.022-.177-.035-.253a2.299 2.299 0 0 0-.235-.265 9.243 9.243 0 0 0-.398-.366c-.045-.038-.102-.09-.154-.091-.197-.005-.266-.119-.338-.24-.035-.059-.079-.114-.12-.17l-.333-.453-.386-.078c-.159.05-.308.092-.454.14-.23.077-.407.2-.474.41a.405.405 0 0 1-.077.149c-.048.052-.118.102-.204.075-.28-.09-.574-.02-.86-.051-.175-.02-.363.028-.543.056a1.162 1.162 0 0 1-.616-.053c-.083-.032-.184-.035-.26-.073-.22-.11-.452-.1-.689-.072a1.565 1.565 0 0 1-.652-.053c-.215-.063-.45-.103-.695-.031-.143.042-.313.018-.47.03-.172.012-.342.032-.43.185-.01.019-.03.048-.048.048-.195.012-.256.188-.417.234a.377.377 0 0 1-.188.006c-.21-.056-.291-.381-.122-.495.09-.061.195-.113.303-.152.326-.117.658-.224 1.018-.249a.588.588 0 0 0 .155-.024c.472-.168.971-.262 1.458-.389.2-.052.393-.126.596-.17.484-.103.97-.2 1.457-.286.142-.025.276-.043.411-.096.237-.092.49-.156.74-.223a.609.609 0 0 1 .42.043c.133.064.256.095.41.036.057-.023.149.018.225.03l-.008.008c-.184-.388-.39-.769-.509-1.175-.027-.096-.067-.184-.02-.289.022-.05-.008-.13-.043-.183a1.053 1.053 0 0 0-.223-.27 7.284 7.284 0 0 0-.607-.419c-.058-.037-.149-.036-.231-.054-.204.086-.352.23-.505.363a1.78 1.78 0 0 1-.96.42 2.976 2.976 0 0 0-.958.291c-.034.017-.067.043-.104.049-.366.058-.62.278-.914.441-.208.116-.401.252-.618.354-.193.092-.315.252-.546.314-.205.055-.38.193-.567.294-.386.209-.685.478-.853.843-.036.082-.09.159-.127.24-.146.319-.322.63-.28.988-.123.061-.244.105-.342.172-.242.164-.52.206-.816.181-.38-.032-.758-.07-1.137-.112a2.93 2.93 0 0 0-.667 0c-.88.1-1.758.058-2.636-.028-.406-.04-.809-.033-1.207.077a2.295 2.295 0 0 1-.734.092c-.272-.013-.55-.007-.817.077-.247.078-.51.088-.777.076-.25-.01-.5 0-.749-.006-.183-.005-.365-.025-.547-.036-.091-.005-.184-.005-.275-.008-.091-.003-.185-.001-.274-.014-.259-.037-.515-.081-.772-.117a.538.538 0 0 0-.195 0c-.215.05-.416-.008-.62-.045-.049-.01-.111-.027-.137-.058-.041-.051-.079-.117-.076-.175.001-.037.074-.086.126-.103.147-.046.3-.082.451-.116.35-.078.651-.237.956-.387.167-.081.33-.135.516-.136.221 0 .407-.06.572-.184.125-.094.258-.182.434-.21a.443.443 0 0 0 .177-.071c.26-.181.551-.325.842-.47.176-.087.387-.14.48-.316l1.232-.95-.042-.206c-.067.068-.133.135-.2.2-.101.101-.194.21-.308.3-.297.233-.59.47-.935.659-.235.13-.477.229-.754.252-.138.012-.254.036-.352.12-.118.101-.272.107-.47.129.038-.072.045-.117.076-.142.152-.121.303-.244.466-.353.209-.138.397-.287.524-.486a1.71 1.71 0 0 1 .418-.475.404.404 0 0 0 .134-.196c.072-.226.202-.42.392-.588.026-.022.065-.051.063-.076-.012-.143.098-.222.215-.296a.56.56 0 0 0 .228-.297c.065-.167.162-.324.255-.482.043-.074.124-.113.229-.096.108.017.19.09.197.181.005.077-.03.163.002.228.076.156.026.3-.006.452-.068.325-.124.651-.186.977.345-.214.461-.519.492-.859.008-.075.014-.151.028-.226.045-.238.071-.481.148-.712a6.48 6.48 0 0 1 .384-.93c.077-.149.074-.323.22-.453.124-.11.215-.247.334-.361.076-.072.175-.129.268-.187.23-.144.464-.286.697-.427.086-.052.111-.122.08-.204-.036-.088-.1-.16-.218-.17a.375.375 0 0 0-.185.03c-.135.067-.261.148-.39.225-.233.143-.462.291-.698.431a.673.673 0 0 0-.256.244 3.292 3.292 0 0 1-.251.372c-.229.296-.467.587-.696.882a1.92 1.92 0 0 1-.646.525.815.815 0 0 0-.387.403c-.134.3-.3.584-.528.846-.121.14-.213.307-.281.472-.11.271-.312.484-.558.669-.51.382-.988.792-1.531 1.143-.145.094-.273.208-.4.319-.251.22-.545.38-.892.47a4.247 4.247 0 0 0-.795.29c-.124.06-.262.102-.398.143-.372.112-.743.225-1.12.325-.199.054-.405.107-.612.123"/>
</svg>
