<svg xmlns="http://www.w3.org/2000/svg" xmlns:xlink="http://www.w3.org/1999/xlink" width="58" height="40" viewBox="0 0 58 40">
    <defs>
        <path id="a" d="M.087.389h54.91V35H.088z"/>
        <path id="c" d="M.086.389h54.912V35H.086z"/>
    </defs>
    <g fill="none" fill-rule="evenodd">
        <g transform="scale(1 -1) rotate(35 88.711 7.717)">
            <mask id="b" fill="#fff">
                <use xlink:href="#a"/>
            </mask>
            <path fill="#FEFEFE" d="M17.39.388c-.017.02-.036.033-.044.05a1.87 1.87 0 0 0-.193.738 2.511 2.511 0 0 1-.178.891c-.012.034-.027.074-.023.11.015.116-.017.224-.046.333-.012.042-.027.086-.023.126.028.225-.058.427-.126.632-.057.173-.138.35-.283.466-.152.12-.331.208-.505.297-.175.089-.363.156-.538.246-.219.11-.439.221-.594.422a.16.16 0 0 1-.066.044c-.068.027-.1.077-.123.143a.342.342 0 0 1-.23.229.192.192 0 0 0-.086.068c-.14.18-.288.356-.417.546-.265.389-.523.784-.781 1.18-.035.054-.037.133-.079.174-.105.095-.117.208-.107.33-.041.041-.09.072-.114.12-.085.152-.176.3-.23.464-.067.198-.17.382-.18.604-.007.147-.12.284-.162.435-.02.067-.046.132-.07.198-.02.048-.042.098-.065.145-.079.166-.182.323-.23.498-.063.225-.14.446-.225.663a.154.154 0 0 1-.047.059c-.117.094-.13.23-.105.354a.45.45 0 0 1-.034.268c-.07.17-.095.34-.076.52a.372.372 0 0 1-.008.16c-.078.199-.095.409-.126.618-.007.041-.011.095-.038.12-.077.064-.062.145-.063.226-.001.048-.001.095-.008.142-.014.093-.046.187-.042.279.004.095.04.191.065.285.043.156.103.309.13.469.038.225.134.445.06.68a.299.299 0 0 0 .003.148c.032.14.073.28.106.422.012.051.024.11.013.16a3.875 3.875 0 0 0-.092.705.209.209 0 0 1-.037.106c-.17.22-.197.493-.293.74-.026.064-.019.139-.026.209-.008.087-.003.178-.026.258-.069.25-.131.505-.232.74-.07.165-.094.332-.12.502-.009.056 0 .117 0 .176.003.194.037.39-.115.553-.027.03-.031.08-.04.123-.074.395-.116.794-.214 1.187-.086.338-.183.67-.311.993-.024.062-.079.12-.01.194.013.015-.014.08-.038.112-.054.073-.118.137-.175.209-.106.132-.194.278-.315.393-.155.146-.307.29-.433.46a.18.18 0 0 1-.124.057c-.1.001-.148.059-.183.137-.012.03-.02.062-.027.094-.028.102-.068.189-.177.168-.045.058-.075.101-.109.14-.112.128-.228.255-.34.384-.047.053-.085.112-.13.166-.138.168-.288.33-.414.506-.118.165-.205.353-.316.523-.097.15-.214.289-.31.438a23.9 23.9 0 0 0-.49.792c-.274.465-.572.914-.91 1.334-.278.347-.539.7-.745 1.094-.01.02-.024.035-.037.054-.237.327-.44.674-.627 1.034-.208.394-.454.768-.844 1.021-.06.04-.098.11-.142.171-.098.134-.185.278-.295.4-.046.051-.144.058-.216.085-.086.172-.196.319-.391.388-.038.012-.068.05-.1.08-.145.132-.289.266-.432.399-.097.093-.205.182-.293.285-.402.475-.786.964-1.092 1.507-.08.141-.156.281-.188.448-.019.105.002.15.074.186a.369.369 0 0 0 .292-.22c.053-.111.126-.212.196-.316.07-.11.146-.214.222-.32.033-.044.065-.087.105-.124.134-.126.27-.25.407-.373.05-.043.098-.093.157-.116a.859.859 0 0 0 .42-.34c.088-.142.21-.243.319-.356.055-.058.107-.155.202-.145.081.01.105-.037.138-.085.03-.045.06-.089.097-.125.084-.084.174-.16.258-.241.038-.037.063-.105.106-.117.125-.034.183-.128.249-.221.019-.026.04-.072.062-.072.14-.004.147-.125.2-.205.036-.053.077-.103.115-.155.114-.151.231-.302.342-.454.108-.148.206-.306.318-.45.16-.206.356-.389.481-.612.108-.194.256-.35.374-.53.102-.154.206-.302.384-.39a.437.437 0 0 0 .185-.179c.15-.28.378-.49.598-.709.186-.186.373-.362.61-.49.61-.331 1.213-.678 1.818-1.018a8.169 8.169 0 0 1 1.095-.526c.453-.168.895-.358 1.344-.533.448-.175.899-.345 1.348-.516.328-.126.655-.25.981-.377.265-.103.525-.227.798-.31.175-.052.335-.114.487-.215.32-.21.663-.362 1.067-.306.06.008.129-.014.191-.033.169-.05.334-.109.5-.164.565-.191 1.13-.381 1.694-.576.358-.121.709-.265 1.072-.374a10.849 10.849 0 0 1 2.066-.395c.42-.04.838-.093 1.258-.134.25-.026.502-.052.753-.053.208-.001.415.043.623.05.245.008.493.01.739-.003.183-.01.364-.07.544-.07.151-.001.29-.019.424-.078.014-.007.035-.004.048.003.134.08.263.063.399-.002.04-.018.098-.013.145-.006.127.015.249.02.363-.054a.1.1 0 0 1 .079-.007c.058.031.102.001.152-.02.042-.019.109-.042.134-.023.07.047.124.022.186.003.052-.016.106-.042.158-.037.147.014.28-.037.42-.062a2.11 2.11 0 0 0 .424-.115c.152-.064.342-.146.521-.029.008.006.022.003.033 0 .076-.025.152-.055.23-.078a.844.844 0 0 1 .15-.035c.037-.004.075.003.11-.001.124-.019.247-.04.371-.06.107-.015.215-.046.32-.04.082.003.136-.012.19-.067.089-.085.2-.106.306-.05a.144.144 0 0 0 .167-.01c.036-.026.066-.07.104-.077.148-.024.284-.08.418-.139.027-.01.07-.005.086-.024.065-.067.145-.073.228-.066.123.01.238.001.34-.08.04-.03.11-.053.15-.039.13.049.227-.03.314-.086a.53.53 0 0 1 .253-.09.7.7 0 0 0 .313-.083.6.6 0 0 1 .58-.043c.176.078.36.136.538.203.401.147.768.355 1.079.642.356.33.766.561 1.205.752.29.128.59.236.885.35.19.072.38.138.572.202.157.052.32.084.47.146.144.062.328.048.427.204.007.01.031.007.046.011.156.045.21.112.163.259-.049.158.038.268.128.36.107.108.248.18.372.275.141.105.308.13.475.135.148.004.298-.006.445-.029.214-.033.426-.087.64-.128.089-.016.183-.036.271-.028.07.006.125-.013.162-.058.08-.098.17-.12.271-.064.124-.11.246-.204.348-.315a.431.431 0 0 0 .114-.224c.015-.132-.008-.268-.008-.4 0-.298-.046-.582-.16-.86-.082-.2-.24-.25-.423-.293-.142-.034-.284.017-.422-.007a.304.304 0 0 0-.262.078c-.059-.012-.121-.046-.162-.03a.331.331 0 0 1-.315-.036c-.12.054-.23.1-.334.154a4.685 4.685 0 0 0-.584.374c-.112.083-.2.194-.333.254a.314.314 0 0 1-.35-.039c-.02-.016-.041-.039-.065-.041-.165-.023-.332-.053-.497-.076a5.365 5.365 0 0 1-.672-.14c-.121-.03-.24-.074-.36-.108-.13-.035-.262-.063-.391-.098-.025-.007-.046-.03-.063-.05-.054-.066-.117-.086-.202-.068-.102.024-.196.005-.258-.095-.02-.03-.057-.045-.087-.07-.06-.044-.118-.09-.178-.133-.086-.063-.164-.142-.258-.183-.075-.032-.139-.062-.18-.13-.035-.061-.09-.087-.149-.119a1.712 1.712 0 0 1-.281-.19c-.128-.106-.281-.184-.374-.33-.01-.017-.038-.02-.057-.032-.118-.066-.163-.14-.142-.248.023-.113.097-.172.209-.201.106-.027.212-.061.308-.11.178-.088.367-.14.56-.184.31-.067.62-.145.928-.222.271-.066.54-.141.815-.2.464-.098.933-.182 1.399-.278.183-.039.361-.08.553-.058.076.01.161-.016.239-.037.155-.046.305-.104.46-.146.083-.023.171-.024.257-.042.174-.035.346-.07.52-.109.008-.001.014-.02.023-.023.102-.032.208-.098.306-.087.088.01.15-.01.225-.035.127-.04.248-.083.362-.15.04-.025.093-.02.141-.03.206-.045.436.032.62-.12.012-.008.032-.006.048-.008l.648-.101c.026-.006.05-.02.075-.03.162-.056.34-.021.5-.094.003-.001.01.004.013.007.06.039.1.004.147-.03.03-.022.063-.046.097-.052.2-.038.403-.057.58-.174.032-.02.084-.015.126-.022.19-.025.386-.005.56-.111.043-.026.107-.022.16-.026.07-.004.137 0 .235 0l.166.186c.04.048.074.094.144.122.112.047.209.13.317.19.139.08.282.15.424.224a.071.071 0 0 0 .046.01c.102-.023.178.026.254.082.02.014.052.013.076.02.151.044.316.063.434.176.117.11.271.148.411.181.18.042.33.122.484.208.023.013.053.041.07.036.075-.028.112.028.154.065.086.074.156.168.284.173.023.002.04.035.065.047.05.027.103.053.156.076.03.013.071.016.087.037.091.122.237.135.364.17.085.026.169.026.229.106.015.02.065.026.1.025.23 0 .44.064.641.17.061.032.13.053.199.067.062.01.112.024.148.083.015.027.06.05.09.05a.234.234 0 0 1 .203.085c.05.056.103.078.185.07a.543.543 0 0 1 .462.202c.111.133.163.316.237.477.05.103.083.213.14.31.065.112.148.214.228.318.029.039.062.083.104.1.148.06.282.17.459.134.092.065.183.04.276-.004.013-.007.035-.01.046-.005.083.039.148-.013.218-.04.113-.043.203-.117.298-.188.239-.179.435-.393.598-.64.055-.084.12-.164.183-.251.003-.04-.001-.089.01-.136a.4.4 0 0 0-.068-.326c-.127-.183-.26-.363-.388-.546-.108-.156-.266-.23-.436-.295-.073-.03-.12.019-.184.012-.08-.007-.165.042-.253.066l-.081-.106c-.101.024-.19.057-.28.063-.212.015-.334.108-.343.327 0 .015-.016.028-.028.046-.037-.024-.06-.042-.084-.058-.207.104-.24.109-.49.104a1.864 1.864 0 0 1-.725-.196c-.312-.146-.626-.29-.964-.369a3.508 3.508 0 0 1-.922-.385c-.44-.253-.882-.506-1.325-.756a44.975 44.975 0 0 0-.615-.342c-.17-.092-.22-.29-.065-.416a.232.232 0 0 0 .063-.104c.044-.137.206-.254.341-.214.133.04.231-.006.332-.076a.232.232 0 0 1 .103-.037c.114-.012.228-.01.341-.027.092-.014.18-.035.273.004.026.01.064.002.094-.009.06-.022.123-.044.179-.077a.272.272 0 0 1 .217-.03c.186.04.35-.052.518-.116.01-.003.018-.014.023-.023.094-.162.251-.162.402-.135a.264.264 0 0 0 .21-.047c.069-.046.15-.106.241-.053.077.045.133.029.186-.035.02-.024.05-.039.08-.062l.154.134a.55.55 0 0 1 .497-.105c.035.006.075-.006.114-.008.026-.002.053-.008.076-.003.078.016.152.038.224.057.02-.034.025-.048.036-.061.02-.028.043-.054.063-.082.029.023.066.04.085.068.036.054.06.116.093.173.02.03.045.072.076.08.18.06.34.184.544.176a.239.239 0 0 1 .136.048c.051.034.097.026.153.013.159-.032.32-.057.478-.083a.069.069 0 0 1 .046.01c.125.076.252.047.378.008.11-.034.22-.065.345-.104.033-.024.09-.057.13-.102.098-.114.19-.232.282-.35.008-.01-.002-.033.004-.048.069-.192.054-.395.081-.593a.505.505 0 0 0-.093-.368c-.067-.095-.187-.15-.227-.269-.004-.01-.029-.013-.044-.019-.085-.03-.17-.071-.258-.093-.09-.021-.186-.024-.28-.036-.066 0-.099-.06-.184-.069-.135-.014-.229.05-.336.093a.334.334 0 0 1-.153.037.579.579 0 0 0-.468.144c-.019.017-.051.039-.07.035-.142-.038-.21.068-.287.144-.102.1-.254.154-.3.31-.007.022-.064.037-.098.037-.035.001-.072-.02-.113-.032-.032.03-.062.062-.098.088-.112.081-.233.136-.373.07-.064-.032-.118-.018-.169.02-.06.048-.116.05-.177-.003-.018-.017-.048-.018-.064-.023-.08.064-.151.125-.224.18a.264.264 0 0 1-.104.046c-.126.024-.254.04-.38.066-.052.01-.1.042-.15.058-.13.043-.274.04-.393.12-.009.006-.03-.011-.045-.013-.06-.004-.125-.018-.18-.004-.12.035-.236.011-.354.004a.338.338 0 0 0-.125.025c-.129.043-.25.05-.359-.049-.183.084-.182.082-.402.06-.03-.002-.078.017-.092.041-.065.113-.173.088-.264.074-.111-.019-.191-.206-.145-.313.052-.12.102-.24.162-.356.023-.046.066-.08.107-.116.113-.098.242-.176.299-.332a.715.715 0 0 1 .187-.263c.071-.067.146-.142.258-.162a.206.206 0 0 0 .127-.11c.055-.134.156-.215.276-.288.11-.066.22-.14.313-.228.147-.136.317-.24.483-.352a.921.921 0 0 0 .118-.087c.115-.107.227-.218.346-.32a.247.247 0 0 1 .147-.059c.095 0 .198-.008.284.058.019.015.049.02.073.02.064-.004.128-.014.19-.02a.492.492 0 0 0 .28-.078c.07-.05.145-.095.221-.137.033-.018.074-.04.105-.032.103.024.164-.026.227-.096.034-.036.087-.078.133-.08.204-.01.34-.098.382-.277.05-.231.046-.47-.026-.693-.079-.245-.238-.45-.38-.658-.177.043-.177.043-.388-.232-.099.054-.17-.005-.233-.075a.735.735 0 0 1-.09-.116c-.073-.12-.102-.133-.246-.114a.18.18 0 0 1-.096-.011c-.303-.13-.389-.053-.588.175-.135.152-.227.343-.336.518a.85.85 0 0 0-.12.451c-.002.19.044.366.093.544a.507.507 0 0 1-.164.56c-.102.09-.22.156-.326.236a1.52 1.52 0 0 0-.416.425c-.058.096-.152.17-.238.246-.432.379-.846.774-1.184 1.24-.248.34-.492.681-.617 1.09a.775.775 0 0 1-.17.278c-.168.186-.37.343-.498.57-.152-.059-.229-.156-.219-.312.004-.064.005-.13.01-.195.012-.178.036-.357.036-.536 0-.374.044-.739.205-1.082a.498.498 0 0 0 .044-.267c-.011-.144-.025-.3.019-.433.038-.118.072-.234.092-.357.029-.159.107-.295.272-.336.343-.09.664-.222.955-.426.073-.052.172-.097.212-.17.087-.164.161-.337.182-.528a.6.6 0 0 0-.036-.284c-.076-.2-.23-.353-.338-.533-.057-.099-.148-.193-.296-.138-.019.007-.053-.03-.08-.046-.122-.07-.24-.154-.394-.13-.073.01-.148.048-.219.042-.102-.012-.21.05-.307-.026-.01-.008-.032-.003-.049.003-.07.021-.144.041-.213.068-.07.026-.152.043-.206.09-.13.11-.284.205-.339.383-.006.023-.03.051-.053.058-.106.032-.116.12-.134.206-.078.369.038.696.227 1.007.023.039.069.066.108.093.1.067.17.148.14.278.133.051.146.074.113.2-.05.201-.109.398-.148.601-.068.357-.072.72-.077 1.082-.002.08-.02.16-.028.24-.012.133-.025.267-.03.4-.006.226-.021.452-.023.676-.002.255-.104.391-.313.515-.201.119-.383.147-.587.037-.031-.017-.072-.034-.105-.029-.08.016-.159.049-.239.07-.224.065-.441.147-.679.158-.134.005-.28.02-.398.077-.167.082-.342.087-.515.117-.038.006-.087-.004-.11.016-.1.087-.221.078-.34.087-.042.004-.09.012-.12.038-.089.071-.2.077-.302.1-.125.028-.265.006-.382.05a1.133 1.133 0 0 1-.385.078c-.036 0-.068.036-.104.048-.076.023-.153.047-.232.065-.106.022-.216.035-.32.063-.19.054-.393.077-.561.195-.013.01-.032.01-.047.01-.168 0-.335-.005-.504 0-.118.004-.237.017-.357.03-.062.007-.13.011-.186.04-.215.102-.448.122-.676.164-.233.041-.469.063-.697.12-.123.028-.224.137-.368.107-.009-.001-.02.007-.029.014-.145.107-.314.136-.492.144-.09.004-.178.044-.267.064-.148.03-.279.126-.44.108-.036-.004-.074.016-.11.028-.407.125-.81.259-1.23.33-.1.018-.191.084-.292.101a.958.958 0 0 0-.316.113c-.169.101-.357.141-.553.171-.18.028-.36.057-.514.185-.101.086-.23.149-.38.102-.013-.006-.031.001-.047.004l-.526.089c-.06.01-.12.01-.178.012-.058.001-.12-.01-.177-.003-.116.018-.233.045-.35.066-.156.031-.212-.03-.166-.183.014-.046.044-.087.07-.128.044-.074.101-.141.137-.218a.684.684 0 0 1 .17-.233c.119-.106.228-.215.21-.414a.92.92 0 0 1 .065-.429c.061-.157.18-.267.27-.402a.618.618 0 0 1 .245-.183c.054-.024.084-.042.107-.1.026-.062.071-.145.123-.159.084-.024.127-.079.183-.129.102-.087.191-.188.331-.23.053-.013.091-.074.136-.114l.233-.201c.044-.038.099-.069.14-.109.195-.198.406-.34.64-.455.153-.077.294-.176.44-.267.067-.043.126-.12.198-.131.083-.014.137-.056.202-.093.187-.113.38-.182.602-.085.05.021.117.003.175.001.048-.001.096-.015.14-.008.284.053.57.06.833-.055.278-.121.562-.213.854-.29.192-.052.334-.172.364-.38a.357.357 0 0 1 .223-.3c-.023-.184-.044-.36-.068-.538-.004-.03-.022-.06-.031-.091-.063-.218-.27-.315-.405-.473-.125-.144-.325-.16-.478-.265a.277.277 0 0 1-.195.05c-.134-.01-.28-.003-.395.103-.076.072-.174.084-.26.03-.113.054-.218.124-.332.15-.15.037-.28.083-.345.236-.007.017-.038.02-.053.035-.034.04-.068.083-.1.126-.02.03-.032.07-.058.094-.135.132-.176.292-.2.478-.022.196-.073.412-.316.484-.022.007-.04.033-.058.05-.042.042-.08.086-.127.123a5.26 5.26 0 0 1-.263.192c-.026.016-.063.04-.087.035-.12-.027-.143.042-.153.133-.005.031-.02.061-.029.093-.133.033-.266.045-.372.142a.586.586 0 0 1-.246.15.349.349 0 0 0-.251.185c-.022.035-.05.089-.082.095-.16.03-.234.162-.337.259a.271.271 0 0 1-.117.069c-.062.018-.122.025-.156.096-.019.042-.072.065-.108.097-.176.146-.35.291-.526.435-.033.027-.07.049-.105.076-.073.056-.148.11-.213.173-.132.13-.255.268-.388.396-.063.06-.066.159-.16.2a.306.306 0 0 0-.184.324c.004.05-.022.105-.03.158-.01.064-.037.103-.1.136a.612.612 0 0 0-.32.435c-.026.139-.093.234-.163.342-.11.172-.254.323-.304.533a.306.306 0 0 1-.223.222c-.026.007-.06.015-.07.034-.068.125-.174.152-.305.13a.13.13 0 0 0-.064.01.663.663 0 0 1-.38.092c-.12-.011-.258.047-.37.106a.534.534 0 0 1-.4.048c-.03-.006-.064.007-.097.012-.118.017-.236.038-.354.054-.166.023-.334.014-.488.11-.1.061-.217.135-.353.06-.023-.014-.064.004-.096.005-.053.002-.106.006-.16.003-.06-.001-.119-.015-.179-.012-.334.015-.665.075-1.002.063-.02 0-.04.014-.063.015-.129.015-.258.03-.387.04a1.495 1.495 0 0 1-.19.004c-.144-.006-.29-.021-.42.065-.017.012-.053-.003-.081 0-.166.018-.332-.06-.497.007a.355.355 0 0 1-.27-.007c-.052-.019-.116-.003-.174 0-.169.01-.336.026-.503.034-.037.001-.084-.038-.109-.027-.123.064-.263.008-.379.046-.275.088-.572.041-.846.164-.193.085-.424.075-.628.152-.019.008-.043.004-.065.001a.486.486 0 0 0-.27.05c-.057.028-.125.03-.187.048a1.413 1.413 0 0 1-.472.07c-.152-.009-.308.049-.46.09-.204.053-.393.162-.613.157-.01 0-.02.008-.031.01-.132.041-.251.134-.405.102-.022-.006-.049.017-.075.026-.04.014-.083.027-.123.038-.14.042-.28.084-.419.123-.036.01-.074.016-.111.025-.16.042-.333.042-.478.15-.05.037-.13.043-.196.058-.163.035-.322.096-.492.1-.024 0-.047.026-.072.037-.08.035-.168.109-.239.094-.182-.034-.307.096-.466.123-.176.03-.336.14-.513.197-.194.065-.384.149-.587.18-.232.035-.418.219-.665.196-.214.104-.46.07-.68.162-.228.095-.476.14-.709.227-.198.074-.384.178-.577.267-.054.023-.114.03-.171.047-.073.019-.152.027-.219.059-.22.106-.425.24-.667.297a.516.516 0 0 0-.197.079c-.227.17-.513.204-.763.328-.182.09-.38.155-.563.246-.173.088-.343.183-.532.241-.122.038-.234.112-.35.169-.188.092-.377.184-.564.278-.139.069-.292.121-.41.217-.083.067-.138.16-.264.15-.024 0-.05.022-.073.036-.132.074-.267.146-.396.227-.11.072-.216.155-.326.23-.08.053-.163.105-.248.151-.057.03-.121.035-.154-.037-.028-.065-.019-.128.04-.177.028-.023.07-.036.09-.064.08-.123.17-.241.23-.373.102-.218.16-.46.386-.6.01-.118.109-.184.169-.27.08-.118.173-.233.28-.33.099-.09.192-.173.245-.299a.26.26 0 0 1 .121-.12c.171-.072.272-.19.29-.375a.289.289 0 0 1 .1-.2c.073-.061.145-.13.227-.182.062-.04.108-.073.14-.147.046-.114.107-.23.187-.322.146-.167.306-.321.467-.474.087-.079.202-.132.282-.218.17-.177.387-.317.495-.553.036-.074.108-.126.182-.12.089.007.128-.043.182-.086.151-.117.3-.238.46-.342.243-.155.475-.327.75-.428.142-.051.272-.13.411-.187a.327.327 0 0 1 .16-.024c.082.006.136-.008.171-.09.013-.029.055-.057.087-.062.167-.027.29-.142.432-.214.121-.062.229-.148.35-.21.218-.107.44-.201.65-.329.102-.063.226-.102.326-.175.016-.012.044-.021.06-.016.094.028.156-.04.23-.069.05-.019.092-.058.14-.08.18-.079.363-.146.509-.286.038-.039.123-.08.156-.062.092.051.143-.004.204-.046.184-.123.37-.247.56-.376l.08.04c.095-.063.18-.121.264-.182.025-.017.059-.037.067-.064.065-.194.243-.264.398-.35.155-.084.331-.122.485-.223.223-.146.462-.27.691-.409.13-.078.287-.13.34-.3.01-.038.027-.075.045-.122.057.036.1.066.156.1.114-.118.27-.184.35-.337.05-.095.146-.142.248-.171.035-.01.078-.011.106-.031.226-.173.461-.334.67-.527.198-.183.407-.348.625-.5.098-.07.201-.132.309-.186.136-.065.28-.115.42-.174.292-.124.586-.24.901-.301.309-.06.616-.099.93-.033a.285.285 0 0 0 .154-.027c.08-.03.16-.07.233-.118.114-.078.217-.04.34.016.054-.12.172-.137.285-.18.154-.06.342-.07.444-.244.106.093.194.06.282-.016.056-.05.12-.094.182-.136.04-.026.087-.065.13-.062.113.01.175-.055.22-.136.047-.083.116-.121.202-.155.068-.023.125-.078.185-.122.09-.069.178-.14.269-.208.02-.014.06-.012.073-.03.08-.119.21-.165.323-.237.08-.052.141-.138.224-.178.15-.073.249-.2.375-.296.106-.082.207-.173.311-.259a.07.07 0 0 1 .045-.016c.113.016.18-.048.251-.122.048-.05.115-.084.177-.116.153-.08.31-.152.376-.33.004-.007.018-.01.036-.02.063.028.12.001.186-.034.176-.089.364-.159.547-.234.01-.004.022-.001.033-.005.05-.02.1-.038.148-.06.035-.016.064-.047.099-.056a.981.981 0 0 0 .42-.228c.106-.097.23-.16.351-.231.064-.038.127-.132.229-.068.004.004.019-.006.028-.012.171-.082.347-.159.512-.251.227-.128.458-.239.722-.264.205-.02.357-.108.426-.315.044 0 .106.017.124-.003.068-.078.155-.058.239-.069.06-.006.118-.047.17-.082.051-.035.085-.086.165-.08.052.002.106-.049.16-.076.028-.015.063-.048.083-.042.105.04.18-.035.263-.062.131-.041.248-.109.296-.254.013-.042.06-.073.094-.109.039.028.07.048.1.071.068-.032.132-.087.196-.087.116.003.194-.06.28-.115.123-.072.243-.148.365-.219.228-.13.462-.25.684-.388.487-.296.972-.588 1.507-.794.31-.12.613-.265.9-.432a5.39 5.39 0 0 1 1.197-.525c.151-.043.294-.114.44-.174.127-.054.248-.118.378-.159.515-.15 1.032-.293 1.57-.344.36-.034.719-.084 1.077-.124.136-.016.278-.005.408-.04.26-.069.51-.166.767-.24.151-.046.307-.085.462-.106.185-.026.372-.026.56-.043.167-.014.33 0 .483.035l.248-.099.141.171c.054-.035.1-.083.15-.093.142-.024.291-.06.429-.04.14.019.252.023.347-.09.006-.006.02-.004.047-.007.08.08.186.074.297.053a.251.251 0 0 1 .13.004c.075.024.143.058.212-.014.011-.012.06-.01.075.004.082.069.173.051.266.042.067-.005.137-.003.205.005.05.007.1.035.151.042.102.015.205.022.328.034.2-.097.42-.221.68-.09.014.006.033.016.046.013.162-.034.324-.008.484.004.07.005.109-.023.125-.098a.651.651 0 0 0-.038-.407c-.01-.024-.026-.063-.041-.063-.113-.001-.141-.108-.183-.144h-1.439l-.141.114c-.06-.103-.135-.083-.219-.056a.511.511 0 0 1-.224.025.83.83 0 0 0-.35.007c-.024.007-.059.003-.075-.013-.06-.057-.118-.062-.194-.029-.03.012-.078.002-.11-.013-.071-.032-.135-.038-.201.008-.017.012-.048.017-.062.01-.125-.075-.26 0-.396-.033-.12-.028-.26.03-.398.023-.118-.005-.24.05-.364.048-.207 0-.402.09-.612.074-.057-.004-.118-.017-.17-.002-.128.035-.252.06-.381 0-.029-.014-.072-.003-.106.007-.12.026-.24.082-.36.08-.103 0-.201.002-.304.018-.097.013-.204-.04-.29.052-.008.01-.04-.005-.06-.01a11.01 11.01 0 0 1-.199-.058c-.126.084-.126.084-.297.055-.011-.002-.022-.004-.033-.003-.16.01-.32.023-.48.032-.055.003-.123.022-.158 0-.067-.048-.125-.03-.188-.018-.14.022-.28.074-.42.068-.103-.004-.189.008-.263.068-.02-.013-.029-.017-.037-.025-.007-.008-.01-.02-.016-.027-.1-.091-.193-.167-.35-.106-.073.03-.17.004-.256.001-.033 0-.065-.017-.094-.012a.734.734 0 0 1-.45-.025c-.033-.015-.082-.002-.123.004-.15.017-.302.056-.45-.02-.023-.01-.058-.015-.078-.004-.089.047-.19.009-.272.036a.487.487 0 0 1-.465-.063c-.053.075-.114.092-.2.088-.08-.004-.165.035-.248.058-.035.011-.072.042-.104.037-.23-.034-.431.098-.654.103-.024 0-.046.029-.072.037-.077.021-.157.037-.235.055l-.126.027c-.084.021-.167.054-.253.063-.178.024-.356.034-.534.051-.047.006-.107.011-.137.04-.062.061-.128.075-.209.067a.266.266 0 0 0-.125.02c-.128.05-.251.102-.397.075-.043-.008-.096.04-.146.055-.102.027-.121.124-.172.218-.054-.047-.101-.082-.14-.123-.05-.054-.093-.068-.172-.046-.134.037-.277.047-.417.071-.047.008-.1.014-.14.035-.132.073-.308.027-.414.16-.004.007-.022.007-.031.004-.113-.036-.2.037-.286.08-.078.037-.15.066-.235.047a.223.223 0 0 0-.209.058.27.27 0 0 1-.228.066c-.098-.015-.183.02-.266.08-.108.08-.231.135-.33.225-.011.011-.029.025-.042.025-.166-.007-.261.18-.438.156-.026-.004-.061.04-.09.064-.021.018-.039.04-.062.053-.173.095-.344.196-.52.284-.086.04-.14.139-.252.13-.012 0-.028.018-.036.031-.059.101-.136.18-.258.204-.023.004-.042.035-.061.052-.059.057-.115.119-.177.17-.063.05-.121.116-.226.071a.419.419 0 0 1-.258.338c-.06.03-.107.083-.182.098-.038.008-.08.055-.096.096a.468.468 0 0 1-.299.279.333.333 0 0 0-.13.091c-.132.135-.258.273-.387.41-.015.015-.036.03-.056.032-.084.006-.136.053-.186.117-.033.037-.09.059-.137.083-.029.014-.067.01-.091.028-.096.068-.143.196-.279.208-.01 0-.016.027-.026.04-.05.063-.093.132-.153.185-.075.067-.165.118-.245.18a6.89 6.89 0 0 0-.292.233c-.046.039-.098.06-.15.03-.117-.058-.188.017-.256.086-.064.064-.117.14-.18.215-.083-.034-.158-.05-.211.05-.022.043-.08.064-.118.1-.064.06-.163.092-.21.147-.105.126-.239.167-.381.204-.194.05-.36.138-.451.327-.004.01-.008.02-.014.03-.045.078-.1.102-.186.074-.028-.011-.053-.033-.062-.038-.076.035-.13.064-.19.085a.316.316 0 0 0-.203.177c-.065.154-.177.228-.345.218-.136-.006-.219.048-.242.186-.01.062-.038.115-.118.11-.073-.006-.095.057-.138.097-.037.035-.106.034-.155.06-.02.008-.03.044-.034.07-.013.064-.044.107-.109.128-.092.03-.141.094-.16.188-.011.054-.031.106-.052.17-.073-.04-.129-.069-.19-.101-.068.111-.168.177-.235.281-.088.137-.253.22-.306.39a.068.068 0 0 1-.03.035c-.125.053-.186.18-.293.248-.068.045-.158.06-.215.113-.153.142-.36.205-.502.362-.045.05-.12.103-.18.104-.218.001-.324.202-.512.258-.111.033-.21.112-.31.177-.08.052-.158.112-.228.179-.096.093-.152.233-.315.24-.01 0-.019.024-.03.034-.04.037-.08.072-.12.104-.07.054-.158.094-.204.163a.367.367 0 0 1-.185.145c-.098.033-.147.105-.215.167-.074.068-.152.138-.24.187-.13.072-.27.13-.409.189-.163.071-.301.194-.483.225-.015.002-.036.008-.044.02-.07.09-.175.078-.257.06-.106-.025-.17.013-.23.079a.232.232 0 0 1-.154.08c-.207.031-.397.125-.584.208-.177.078-.336.192-.52.267-.234.096-.449.243-.696.32-.04.013-.07.05-.106.07-.085.045-.168.106-.26.125-.088.019-.138.041-.185.125-.056.1-.167.159-.298.187l-.003.003c-.085.146-.127.339-.354.342-.01 0-.018.012-.026.018l-.325.287c-.06.054-.11.127-.211.081-.014-.005-.04.013-.059.023-.085.048-.167.105-.258.141-.13.05-.235.127-.337.22-.061.055-.152.076-.228.114-.038.02-.094.035-.105.067-.053.142-.152.18-.294.173-.064-.006-.128.027-.193.039-.042.006-.087.013-.13.006-.07-.01-.119-.067-.093-.127.042-.096.043-.214.138-.287.123-.093.15-.225.15-.37 0-.043.015-.1.045-.13.1-.098.127-.223.156-.352a.836.836 0 0 1 .072-.21c.072-.13.13-.257.16-.407.055-.264.136-.52.266-.76.105-.196.21-.39.303-.591.071-.151.128-.309.182-.465.038-.106.075-.217.09-.327.014-.106-.005-.215-.003-.322.004-.156.022-.31-.053-.459-.027-.055-.023-.128-.025-.192-.006-.191.017-.382-.098-.557-.027-.04-.026-.104-.033-.157a9.758 9.758 0 0 1-.023-.274c-.005-.065-.015-.13-.015-.194-.001-.2.003-.399 0-.598a1.956 1.956 0 0 1 .257-1.032c.202-.356.407-.589.82-.978a.123.123 0 0 0 .034-.055c.034-.113.121-.173.214-.234.043-.03.09-.069.105-.113.041-.128.121-.172.252-.139.055-.08.108-.153.157-.231.057-.09.102-.189.166-.274.091-.12.2-.224.293-.344.097-.123.19-.244.344-.306.029-.01.044-.059.061-.093.07-.126.124-.268.214-.38a2.45 2.45 0 0 0 .275-.47c.106-.223.186-.458.35-.65.017-.022.013-.063.02-.093.007-.031.01-.065.021-.093.045-.097.091-.193.138-.288.008-.02.008-.05.023-.06.12-.083.156-.22.221-.336.055-.098.07-.217.128-.314.17-.287.213-.607.262-.925.038-.247.057-.495.095-.741.031-.21.07-.418.118-.622.059-.243.143-.477.193-.72.025-.123.004-.258-.003-.386-.012-.205-.028-.41-.042-.615-.006-.091.01-.19-.021-.27a.756.756 0 0 1-.041-.35c.019-.264.042-.528.072-.79.022-.192.037-.381.042-.574a.42.42 0 0 0-.072-.276c-.038-.051-.053-.118-.08-.178-.044-.095-.098-.18-.212-.214" mask="url(#b)"/>
        </g>
        <g transform="scale(1 -1) rotate(35 88.711 7.717)">
            <mask id="d" fill="#fff">
                <use xlink:href="#c"/>
            </mask>
            <path fill="#FFF" d="M11.666 18.606c.127-.17.238-.314.341-.464.083-.12.156-.247.234-.37.045-.07.095-.135.133-.206.111-.206.22-.414.326-.622.1-.2.183-.406.205-.633.01-.113.033-.226.046-.34.044-.359.046-.714-.068-1.064a4.912 4.912 0 0 1-.25-1.734c.017-.366.106-.712.267-1.036.14-.282.31-.551.482-.815.14-.214.314-.405.452-.62.137-.215.376-.348.469-.595.003-.01.013-.018.023-.023.187-.116.262-.358.488-.432.013-.005.021-.025.032-.037.072-.087.151-.17.212-.262a.694.694 0 0 1 .31-.255c.028-.013.065-.03.077-.055.068-.145.14-.29.19-.443.034-.103.062-.202.142-.285.134-.135.23-.29.23-.492 0-.043.033-.087.052-.131l.114-.244c.026-.057.037-.137.08-.167.17-.116.216-.307.306-.47.067-.121.01-.293.16-.385-.021-.144.05-.257.124-.37.01-.016-.003-.044.004-.065.067-.206.007-.43.094-.638.024-.055.015-.128.007-.192-.04-.298-.396-.469-.618-.27-.176.154-.367.235-.571.329-.21.096-.406.238-.58.393-.204.178-.382.388-.562.59-.093.105-.17.224-.248.342-.074.113-.135.235-.216.344-.107.144-.23.276-.34.419-.138.183-.275.367-.4.557-.193.294-.293.63-.403.96-.08.232-.174.463-.207.704-.053.4-.206.763-.35 1.133-.018.046-.036.103-.072.124-.121.076-.089.216-.148.313.034.327-.117.626-.152.94-.002.022-.015.041-.025.061a2.031 2.031 0 0 0-.193.817c-.005.123-.019.256.02.366a.701.701 0 0 1 .047.394.181.181 0 0 0-.003.08c.04.163.018.335.102.492.023.044.016.106.027.158.014.073.037.145.045.217.005.065.07.14-.033.194-.019.01-.023.071-.017.106.047.267.09.535.081.807-.004.111.045.22-.007.335-.073.164-.112.34-.127.52-.004.041-.03.08-.044.12-.081.244-.204.477-.172.75.004.03-.023.065-.038.099-.032.07-.067.136-.093.207-.024.065-.036.133-.06.198-.065.176-.154.346-.127.545.004.026-.02.057-.034.08a.567.567 0 0 0-.054.383c.013.088.088.115.138.054.105-.125.197-.258.152-.416m14.626-5.49c.062-.053.14-.09.164-.146.073-.167.294-.173.357-.342.003-.008.02-.016.028-.016.142-.004.207-.12.293-.204.079-.076.187-.123.238-.23.005-.012.027-.024.04-.025.192-.002.252-.236.438-.245.09-.18.348-.163.43-.353.003-.01.028-.015.044-.019.107-.025.22-.038.296-.137.014-.015.052-.01.077-.019.044-.016.086-.038.13-.053.124-.04.237-.126.383-.075.036.014.115-.001.131-.03a.447.447 0 0 1 .314-.208.145.145 0 0 0 .067-.045c.057-.057.108-.125.207-.079.015.005.047-.022.068-.038.026-.016.05-.056.074-.056.103-.003.159-.069.21-.138.033-.043.066-.059.12-.07.122-.025.252-.045.356-.107.12-.073.233-.127.376-.119.033.002.07-.025.1-.045.05-.034.097-.072.145-.107.088-.067.176-.113.275-.016.038-.04.072-.07.097-.105.07-.104.161-.153.292-.132.026.005.058-.013.085-.025.042-.023.082-.068.124-.07.12-.007.204-.132.334-.095.01.004.026-.017.04-.025.067-.033.138-.06.203-.099.105-.063.205-.134.305-.199.076-.023.153-.043.228-.068.085-.03.16-.081.262-.02.08.045.162-.01.202-.104.013-.03.023-.062.045-.081.137-.119.302-.189.465-.26.115-.051.244-.063.347-.152.063-.054.157-.074.237-.109.03-.01.068-.013.09-.035.088-.082.179-.08.268-.018l.23-.21c.05.017.095.033.126.042.125-.116.237-.223.353-.326.022-.017.062-.022.093-.022a.819.819 0 0 0 .414-.132c.162-.092.313-.202.495-.253.053-.015.108-.023.157-.048.245-.114.488-.232.732-.347.063-.03.133-.039.2-.06.115-.037.228-.096.346-.107a.912.912 0 0 0 .595-.305c.05.01.102.024.162.036.057-.101.15-.11.254-.101.065.004.133-.019.202-.028a.955.955 0 0 1 .075.06.412.412 0 0 1 .242-.203c.051-.019.09-.073.128-.104-.091-.26-.207-.315-.428-.187-.102-.1-.234-.076-.354-.05-.069.018-.131.033-.202.018-.129-.027-.25-.01-.348.087-.102-.074-.198-.014-.289.009-.084.022-.158.04-.221-.031-.15.062-.261.265-.44.102-.056.034-.106.087-.149.082-.145-.017-.262.06-.364.08-.09-.02-.156-.056-.212-.042-.243.056-.482.137-.726.188-.272.058-.549.089-.823.142-.424.08-.848.17-1.27.257a35.71 35.71 0 0 0-.82.181c-.31.073-.604.178-.887.333-.33.18-.676.332-1.017.494-.197.094-.405.17-.592.279a6.532 6.532 0 0 0-1.251.922c-.048.044-.098.113-.152.12-.181.025-.19.246-.355.28-.007.002-.008.02-.016.026-.048.043-.091.097-.148.123a.426.426 0 0 0-.208.196c-.022.04-.06.07-.095.103-.083.07-.193.122-.245.208-.062.103-.142.135-.242.171a.848.848 0 0 0-.23.147c-.083.07-.149.159-.229.23-.076.069-.129.167-.256.17-.043.001-.08.073-.124.1-.18.113-.361.218-.54.332-.062.04-.115.096-.172.145-.028.026-.053.056-.084.076-.185.109-.416.15-.531.363-.016.03-.063.043-.097.06a.375.375 0 0 0-.149.142c-.048.072-.133.156-.21.167-.119.014-.15.085-.2.163-.091.141-.205.252-.397.227-.028-.004-.06.017-.09.023-.203.043-.316.21-.465.325-.05.039-.093.072-.158.07-.067-.004-.113.028-.15.082-.024.035-.051.075-.088.095-.155.088-.308.177-.472.245-.078.031-.158.053-.21.119-.068.087-.182.093-.258.15-.074.053-.1.172-.153.258-.053.087-.113.17-.17.256.062.078.133.162.21.109.089-.062.165-.088.267-.065.027.007.062-.016.09-.03.108-.057.214-.113.343-.087.029.005.063-.016.094-.024.062-.016.126-.049.189-.046a.174.174 0 0 0 .175-.094.267.267 0 0 1 .194-.135c.057-.01.111-.042.167-.062.132-.052.26-.125.395-.144.162-.023.244-.113.333-.226.084-.105.19-.2.356-.145.065.021.234-.068.24-.138.013-.161.143-.216.245-.3.063-.051.132-.074.2-.023M17.39.39c.115.033.169.118.212.214.027.059.042.126.082.177.064.085.072.178.07.276a5.814 5.814 0 0 1-.042.574c-.03.262-.051.526-.072.79a.79.79 0 0 0 .041.349c.031.082.015.18.022.272.015.204.031.409.042.615.007.128.028.262.003.386-.05.241-.135.477-.193.719a7.282 7.282 0 0 0-.118.622c-.037.245-.057.494-.094.742-.049.317-.093.638-.264.924-.057.096-.073.216-.127.313-.064.117-.1.254-.22.336-.015.011-.015.04-.025.06-.045.096-.092.192-.136.289-.012.028-.015.062-.021.093-.009.03-.005.07-.022.093-.163.192-.243.426-.348.649a2.54 2.54 0 0 1-.277.47c-.088.114-.143.254-.213.382-.018.033-.033.082-.061.093-.154.06-.248.183-.344.305-.092.12-.202.225-.293.345-.064.083-.108.184-.165.273-.049.078-.103.15-.159.232-.129-.034-.209.01-.251.137-.014.046-.063.085-.105.113-.093.06-.18.122-.213.235a.123.123 0 0 1-.034.054c-.414.39-.618.624-.822.979a1.967 1.967 0 0 0-.256 1.031c.004.2-.002.399 0 .6 0 .064.01.128.015.192.008.093.013.183.023.274.006.054.005.116.032.158.116.175.094.366.1.557 0 .065-.003.136.024.191.075.15.058.304.054.46-.003.107.016.216.002.321-.015.11-.052.22-.089.328-.055.157-.111.314-.182.465-.094.2-.198.396-.304.59-.13.24-.212.498-.265.761-.031.15-.09.278-.162.407a.818.818 0 0 0-.072.21c-.028.13-.055.254-.156.353-.03.028-.043.084-.043.129-.002.145-.027.277-.151.37-.094.073-.095.191-.137.287-.026.06.021.117.092.128.042.005.087 0 .13-.007.064-.012.13-.044.192-.04.143.009.242-.03.295-.173.012-.03.068-.047.104-.066.076-.039.167-.059.229-.114.101-.094.207-.17.336-.22.092-.036.173-.094.259-.14.019-.012.046-.03.058-.024.102.046.152-.027.212-.08.107-.096.217-.192.325-.287.008-.007.017-.02.025-.02.227-.002.27-.194.355-.341.003-.004.008-.008.004-.003.13-.028.24-.086.297-.187.048-.085.098-.106.185-.125.091-.019.175-.08.26-.127.038-.018.068-.056.107-.067.247-.078.46-.225.695-.322.185-.074.343-.188.52-.266.187-.082.377-.176.585-.207a.238.238 0 0 0 .152-.081c.061-.068.125-.104.23-.08.082.018.19.031.258-.059.008-.012.028-.017.043-.02.182-.031.32-.154.485-.225.137-.06.277-.117.407-.19.089-.05.168-.118.242-.185.067-.062.117-.135.214-.167a.37.37 0 0 0 .186-.147c.044-.067.134-.108.202-.162.04-.032.082-.068.12-.103.012-.011.021-.034.03-.034.164-.008.22-.15.317-.24a1.52 1.52 0 0 1 .227-.18c.1-.066.198-.144.31-.178.187-.056.295-.255.512-.257.061-.001.134-.054.18-.103.142-.158.348-.221.502-.363.058-.052.148-.07.214-.113.11-.07.169-.195.293-.247a.066.066 0 0 0 .03-.038c.054-.17.218-.25.306-.388.067-.103.167-.17.235-.281l.192.1c.019-.062.04-.115.05-.169.02-.094.07-.16.16-.188.066-.02.098-.063.11-.128.005-.026.014-.062.033-.071.05-.025.118-.023.156-.06.044-.039.066-.102.138-.097.08.006.108-.047.118-.109.023-.138.106-.192.241-.187.169.011.28-.063.346-.218a.32.32 0 0 1 .203-.176c.059-.02.113-.051.19-.085.009.005.033.027.063.036.084.03.14.006.185-.072.005-.01.01-.02.013-.03.093-.188.258-.277.453-.327.142-.036.274-.08.38-.203.046-.055.145-.088.21-.148.037-.035.097-.058.119-.1.051-.1.126-.083.212-.05.06-.076.114-.15.178-.215.067-.069.138-.146.255-.085.053.028.104.008.152-.03.095-.082.192-.158.292-.234.08-.062.17-.113.245-.18.058-.053.101-.123.152-.185.01-.013.016-.04.026-.04.137-.013.184-.14.278-.207.024-.018.064-.015.092-.03.048-.023.105-.044.136-.082.052-.063.103-.11.188-.117.019-.001.04-.018.054-.032.129-.136.255-.276.387-.41a.343.343 0 0 1 .13-.091.467.467 0 0 0 .3-.28c.017-.04.058-.086.096-.094.075-.017.12-.07.183-.099a.42.42 0 0 0 .257-.338c.105.045.164-.022.225-.07.063-.052.119-.114.177-.17.02-.018.038-.049.061-.053.124-.024.2-.102.26-.203.008-.014.024-.034.035-.033.113.01.167-.088.251-.129.178-.087.348-.188.52-.284.024-.013.041-.036.063-.052.03-.025.064-.07.09-.065.176.023.271-.163.438-.156.014 0 .03-.014.041-.024.1-.09.223-.146.33-.225.083-.06.169-.096.268-.081.09.01.163-.01.227-.066a.226.226 0 0 1 .21-.058c.084.018.156-.01.234-.047.087-.044.172-.116.285-.08.01.003.027.003.031-.003.106-.135.283-.088.415-.16.04-.023.092-.029.14-.036.14-.024.282-.033.418-.07.077-.022.12-.009.171.045.038.042.086.077.14.124.05-.096.07-.191.171-.218.052-.015.103-.064.147-.056.145.027.269-.025.396-.075a.273.273 0 0 1 .127-.022.235.235 0 0 0 .208-.064c.03-.03.09-.035.137-.04.178-.018.357-.027.534-.052.085-.01.168-.041.254-.064.04-.01.083-.015.125-.026.078-.017.157-.035.235-.055.025-.008.049-.038.073-.038.221-.004.424-.136.652-.102.033.005.07-.026.106-.036.081-.023.166-.062.247-.058.086.004.147-.014.201-.09.147.107.296.115.463.063.083-.026.184.012.272-.035.02-.011.057-.006.079.005.148.076.299.037.45.019.042-.005.09-.019.124-.004a.73.73 0 0 0 .449.026c.028-.007.062.012.093.012.087.002.184.028.259-.002.154-.06.25.015.347.107.007.006.01.019.018.027.007.008.016.01.035.024.075-.06.16-.073.265-.069.139.006.279-.044.419-.067.062-.01.12-.03.187.016.035.024.105.005.158.001l.48-.03c.013-.002.022 0 .034.002.172.028.172.028.296-.055l.2.058c.02.005.053.019.06.01.086-.092.193-.038.29-.052.102-.016.202-.017.304-.017.12 0 .24-.054.36-.083.033-.009.077-.018.105-.006.13.06.253.036.382 0 .053-.014.113-.002.17.002.21.018.405-.074.613-.072.123.001.245-.054.362-.049.139.006.279-.052.4-.023.134.033.27-.041.396.033.012.008.044.001.06-.01.067-.047.13-.04.201-.008.033.014.082.026.111.012.075-.032.135-.027.195.03.015.016.05.02.073.013a.837.837 0 0 1 .352-.006.507.507 0 0 0 .223-.026c.085-.027.159-.047.218.057l.143-.116h1.437c.042.038.072.144.183.145.015 0 .032.04.041.063.057.131.068.266.038.406-.015.076-.055.105-.123.1-.162-.013-.322-.038-.484-.005-.015.003-.033-.006-.047-.013-.26-.13-.48-.007-.681.089-.122-.011-.225-.018-.327-.033-.05-.006-.1-.035-.151-.041a1.045 1.045 0 0 0-.205-.006c-.093.01-.184.027-.265-.042-.016-.013-.064-.016-.076-.004-.07.072-.137.038-.212.013a.279.279 0 0 0-.13-.004c-.11.022-.218.03-.297-.053-.025.004-.04.001-.046.008-.096.113-.208.11-.348.09-.138-.02-.286.015-.427.04-.053.01-.098.059-.153.094l-.14-.171c-.084.032-.163.063-.248.098-.154-.035-.317-.05-.484-.035-.186.017-.373.017-.558.042a3.441 3.441 0 0 0-.463.106c-.257.075-.508.17-.766.24-.13.036-.273.025-.41.041-.358.04-.716.09-1.076.124-.538.05-1.056.194-1.57.345-.13.039-.252.105-.378.157-.146.06-.29.132-.44.175a5.39 5.39 0 0 0-1.198.525 6.263 6.263 0 0 1-.9.432c-.535.205-1.02.498-1.505.795-.224.137-.457.257-.684.387-.124.072-.243.146-.364.22-.087.054-.165.117-.282.114-.063 0-.129.055-.195.088a2.394 2.394 0 0 0-.102-.072c-.034.037-.08.068-.094.11-.047.145-.164.212-.295.252-.084.029-.158.104-.263.064-.02-.008-.056.027-.084.041-.053.027-.108.078-.16.076-.08-.006-.113.044-.165.08a.432.432 0 0 1-.17.083c-.084.01-.17-.011-.239.068-.017.02-.079.003-.123.003-.068.206-.222.295-.427.314-.263.027-.494.137-.72.265-.166.093-.342.17-.513.252-.01.005-.023.016-.029.012-.1-.065-.163.028-.228.067-.121.071-.246.133-.352.232a.996.996 0 0 1-.42.227c-.035.008-.063.04-.097.057-.05.021-.1.04-.15.059-.01.003-.023.001-.032.004-.184.077-.371.147-.547.235-.067.035-.122.062-.187.034-.016.008-.031.012-.034.02-.066.178-.224.25-.378.329-.062.033-.129.067-.175.116-.07.075-.138.14-.252.123a.073.073 0 0 0-.045.017c-.105.084-.204.176-.311.258-.127.097-.226.223-.374.296-.084.04-.144.127-.224.178-.113.073-.245.118-.325.238-.012.018-.051.014-.073.03-.091.067-.18.138-.269.206-.06.045-.117.1-.183.124-.087.033-.155.07-.201.153-.048.082-.109.147-.223.137-.042-.002-.088.035-.13.062a1.759 1.759 0 0 0-.181.135c-.087.078-.175.11-.283.017-.102.174-.29.185-.444.244-.113.043-.23.06-.285.18-.121-.055-.226-.094-.34-.016-.07.049-.15.086-.23.119a.288.288 0 0 1-.156.025c-.313-.066-.622-.027-.93.034-.314.062-.61.178-.902.3-.139.06-.283.11-.418.175-.11.053-.21.117-.309.186-.22.152-.429.318-.626.5-.208.193-.444.355-.671.527-.027.02-.07.022-.105.03-.103.03-.198.078-.248.172-.08.153-.235.22-.35.338-.056-.035-.1-.065-.155-.101-.02.047-.034.083-.047.122-.051.17-.209.222-.34.3-.229.14-.468.263-.69.41-.153.1-.33.138-.486.222-.154.085-.331.156-.396.35-.01.025-.044.047-.068.064-.084.061-.17.119-.264.18a1.432 1.432 0 0 1-.08-.038c-.191.13-.376.253-.56.375-.062.043-.11.099-.205.048-.03-.018-.116.022-.156.06-.144.141-.327.209-.506.287-.05.023-.093.062-.142.08-.074.029-.137.098-.23.07-.017-.006-.044.003-.06.014-.1.074-.225.112-.325.175-.21.13-.433.222-.65.33-.122.06-.229.148-.35.21-.144.071-.266.186-.433.214-.033.005-.075.034-.087.063-.035.08-.09.096-.171.089a.327.327 0 0 0-.16.024c-.14.058-.27.135-.41.186-.276.102-.509.275-.75.43-.16.103-.309.224-.461.341-.054.043-.092.093-.18.087-.077-.007-.149.044-.184.12-.107.235-.325.374-.496.553-.08.086-.194.138-.28.218a6.431 6.431 0 0 0-.467.474 1.143 1.143 0 0 0-.189.321c-.03.074-.077.108-.138.146-.083.053-.154.12-.229.184a.295.295 0 0 0-.099.2c-.019.182-.12.302-.29.375a.25.25 0 0 0-.12.12c-.054.125-.147.208-.246.297a1.927 1.927 0 0 0-.281.331c-.06.086-.158.152-.168.27-.226.138-.284.382-.386.6-.061.132-.148.25-.23.371-.019.03-.06.044-.09.066-.06.048-.069.11-.039.177.031.072.095.067.152.036.086-.044.169-.097.249-.15.111-.075.215-.158.327-.23.128-.08.262-.153.394-.228.025-.012.05-.035.074-.034.127.01.18-.085.264-.15.117-.098.27-.149.41-.217.187-.095.376-.186.564-.28.116-.057.229-.13.35-.169.19-.056.358-.152.532-.24.183-.092.382-.156.564-.246.248-.125.535-.157.763-.328a.544.544 0 0 1 .196-.08c.241-.056.448-.19.667-.296.066-.032.145-.041.218-.059.057-.016.119-.024.171-.047.193-.089.38-.193.578-.268.232-.086.482-.13.71-.227.22-.09.465-.058.678-.16.249.022.433-.162.666-.197.202-.033.392-.115.586-.18.177-.057.337-.168.514-.197.16-.027.284-.158.466-.123.07.014.159-.059.239-.095.024-.01.047-.037.072-.037.171-.002.329-.064.493-.1.067-.014.144-.02.196-.057.144-.108.316-.108.478-.15.035-.009.073-.014.11-.025.14-.04.28-.082.418-.123l.125-.037c.025-.01.053-.034.075-.029.152.034.272-.06.405-.1.01-.002.02-.01.03-.01.22.005.41-.104.613-.157.153-.04.309-.099.461-.09.167.007.316-.025.47-.07.062-.018.13-.02.187-.048a.489.489 0 0 1 .272-.05c.02.003.045.007.065 0 .203-.078.435-.068.627-.154.274-.121.57-.074.846-.165.115-.036.255.02.38-.044.025-.012.072.028.107.027.168-.008.335-.023.503-.034.058-.004.124-.019.174 0 .092.035.18.043.27.007.166-.067.333.01.499-.008.027-.003.062.013.08.001.132-.086.276-.071.421-.066.062.003.126.002.189-.002.129-.011.26-.026.388-.04.02-.002.042-.016.063-.016.335.011.667-.05 1-.063.06-.003.12.01.182.01.051.004.104 0 .158-.002.032 0 .072-.017.096-.004.135.076.252.002.353-.06.153-.097.322-.087.487-.11.119-.016.237-.037.356-.053.032-.006.067-.02.095-.012a.54.54 0 0 0 .4-.049c.112-.06.251-.117.37-.106.15.013.261-.031.382-.092a.113.113 0 0 1 .064-.012c.13.024.236-.004.304-.128.01-.019.045-.027.07-.033a.309.309 0 0 0 .222-.222c.052-.21.196-.361.306-.534.068-.107.137-.204.162-.341a.614.614 0 0 1 .322-.435c.06-.034.088-.073.097-.136.01-.054.036-.108.032-.16-.013-.15.051-.262.184-.322.093-.043.095-.14.158-.2.133-.13.257-.267.388-.397.067-.064.142-.118.214-.175.034-.025.072-.047.106-.074.175-.144.35-.289.524-.436.038-.03.091-.055.11-.095.033-.073.092-.078.155-.097a.276.276 0 0 0 .118-.069c.102-.097.177-.229.336-.258.032-.007.06-.06.081-.097a.353.353 0 0 1 .253-.185.583.583 0 0 0 .246-.15c.106-.096.237-.11.37-.14.011-.034.025-.062.029-.093.012-.092.034-.162.153-.134.026.006.063-.018.089-.035.088-.062.178-.125.262-.192.046-.036.086-.082.128-.123.017-.018.035-.043.057-.05.243-.073.293-.287.318-.484.023-.186.062-.346.2-.478.025-.024.035-.065.058-.094.03-.043.063-.086.099-.125.013-.016.046-.02.051-.035.066-.155.196-.2.347-.236.114-.028.217-.097.331-.15a.204.204 0 0 0 .26-.03c.115-.107.262-.113.395-.104a.277.277 0 0 0 .194-.05c.154.105.355.121.478.265.138.157.343.255.406.473.009.03.026.06.032.091.023.178.043.355.066.538-.137.059-.2.16-.221.301-.031.206-.173.326-.366.377-.29.08-.575.17-.853.292-.263.116-.55.107-.832.055-.045-.008-.094.007-.142.008-.058.002-.124.02-.173 0-.222-.098-.415-.03-.604.084-.063.038-.118.08-.202.093-.07.01-.13.087-.198.132-.144.09-.285.19-.439.266a2.286 2.286 0 0 0-.64.455c-.042.04-.095.07-.14.11-.078.065-.156.133-.232.2-.046.04-.084.1-.136.114-.14.04-.23.143-.333.23-.055.05-.097.105-.182.13-.053.013-.097.097-.122.159-.023.057-.053.075-.109.1a.581.581 0 0 0-.243.182c-.09.135-.209.245-.271.403a.92.92 0 0 0-.066.428c.02.2-.09.308-.209.414a.655.655 0 0 0-.17.233c-.036.077-.093.144-.138.218-.026.04-.054.083-.07.127-.046.155.011.215.166.184.117-.021.234-.048.352-.066.057-.008.117.004.175.003.06-.001.12-.004.178-.013.176-.027.35-.058.527-.088.015-.003.034-.01.048-.004.15.046.277-.017.38-.102.152-.128.333-.156.512-.185.196-.03.385-.071.555-.172.1-.06.202-.09.316-.112.1-.017.19-.083.29-.1.422-.073.825-.205 1.23-.33.037-.013.076-.033.11-.03.162.019.292-.077.44-.108.091-.019.178-.06.268-.063.178-.008.346-.036.493-.144.008-.007.02-.016.028-.015.144.031.245-.078.367-.108.23-.055.465-.076.697-.12.228-.04.462-.06.677-.164.055-.027.123-.03.187-.037.118-.015.238-.027.356-.03.168-.005.335 0 .504 0 .016 0 .035-.001.047-.01.169-.12.371-.143.561-.196.105-.028.214-.04.32-.064.078-.017.156-.04.232-.064.037-.012.07-.048.103-.05.135-.002.258-.028.386-.076.117-.043.258-.022.383-.05.102-.023.213-.028.301-.101.03-.024.078-.032.12-.036.118-.011.24 0 .341-.088.023-.02.072-.01.109-.016.174-.03.347-.035.516-.117.117-.057.262-.073.396-.078.238-.01.456-.092.68-.156.081-.022.159-.054.24-.072.031-.004.072.014.103.03.205.11.386.082.587-.036.21-.124.313-.26.314-.516.001-.224.018-.45.023-.676.004-.133.018-.266.03-.4.007-.08.026-.16.027-.24.005-.361.01-.725.077-1.082.04-.203.1-.4.15-.6.033-.126.019-.15-.113-.2.029-.131-.04-.212-.141-.28-.04-.027-.086-.053-.109-.093-.187-.31-.304-.637-.227-1.007.018-.084.03-.173.136-.205.022-.007.046-.035.053-.058.055-.179.208-.273.337-.383.056-.046.136-.064.207-.09.07-.026.142-.048.214-.068.015-.005.038-.01.048-.003.096.076.205.014.308.025.07.008.144-.03.219-.04.152-.025.27.058.392.13.027.015.063.052.08.046.149-.056.24.039.298.137.106.18.26.332.337.533.035.094.046.186.035.284a1.427 1.427 0 0 1-.182.529c-.04.073-.137.116-.212.168a2.91 2.91 0 0 1-.953.427c-.165.042-.244.178-.272.337a2.704 2.704 0 0 1-.094.356c-.043.134-.03.288-.019.434a.51.51 0 0 1-.042.266c-.163.344-.206.707-.206 1.083 0 .179-.025.356-.037.535-.004.065-.004.13-.008.196-.011.156.065.253.217.312.13-.228.33-.385.5-.572a.766.766 0 0 0 .168-.276c.125-.41.37-.751.617-1.09.34-.466.753-.862 1.186-1.24.086-.076.178-.151.236-.247a1.52 1.52 0 0 1 .416-.425c.109-.08.226-.147.326-.236a.51.51 0 0 0 .166-.56 1.889 1.889 0 0 1-.094-.544.851.851 0 0 1 .12-.45c.11-.176.202-.367.335-.519.2-.227.285-.307.59-.175a.174.174 0 0 0 .095.01c.144-.018.172-.004.247.115.024.04.056.08.088.116.064.07.136.128.234.074.212.276.212.276.388.232.142.21.3.414.38.66.073.223.077.46.025.693-.04.179-.178.265-.382.276-.046.002-.099.044-.131.08-.064.07-.125.12-.227.096-.031-.007-.074.015-.106.032-.075.042-.15.086-.22.138a.495.495 0 0 1-.28.078c-.064.005-.126.014-.19.017a.128.128 0 0 1-.075-.017c-.085-.066-.187-.06-.284-.058a.238.238 0 0 0-.146.058c-.12.102-.23.214-.347.32a.827.827 0 0 1-.118.086c-.164.112-.334.217-.48.353a1.847 1.847 0 0 1-.315.229c-.12.072-.221.152-.275.288-.02.046-.08.1-.128.109-.113.02-.186.094-.258.163a.718.718 0 0 0-.186.26c-.057.158-.188.235-.3.335-.04.035-.083.07-.108.114-.058.116-.11.237-.161.357-.047.108.033.295.145.313.09.014.198.04.263-.074.014-.024.063-.043.093-.04.22.022.22.023.403-.06.108.098.23.091.359.048a.331.331 0 0 1 .123-.024c.119.006.235.03.355-.004.054-.015.12 0 .18.004.016.001.037.019.045.012.119-.08.263-.078.392-.12.051-.017.099-.047.15-.058.127-.025.256-.042.38-.067a.262.262 0 0 0 .104-.045c.075-.055.144-.115.224-.181.016.005.046.008.065.024.06.052.117.051.178.004.05-.04.104-.053.167-.022.14.068.263.013.375-.068.036-.027.064-.06.097-.09.042.013.077.035.112.033.034 0 .093-.015.098-.036.046-.156.199-.211.3-.311.078-.075.147-.182.287-.145.02.005.052-.017.072-.034a.582.582 0 0 1 .466-.146.332.332 0 0 0 .154-.035c.108-.043.202-.107.336-.092.085.009.119.068.184.068.093.011.189.014.28.037.088.021.172.062.258.092.016.006.04.01.043.02.04.12.16.173.227.269a.505.505 0 0 1 .094.367c-.027.198-.013.4-.082.594-.005.015.004.036-.004.047-.092.118-.183.237-.281.35-.04.046-.096.078-.13.102-.125.038-.235.07-.344.104-.128.039-.254.068-.378-.01a.079.079 0 0 0-.046-.008c-.16.026-.32.051-.478.084-.057.012-.102.02-.155-.015a.24.24 0 0 0-.136-.047c-.202.008-.362-.116-.543-.175-.031-.01-.056-.05-.075-.08-.034-.057-.058-.12-.094-.173-.02-.029-.057-.046-.085-.069-.02.028-.044.054-.064.082-.01.012-.016.027-.034.06-.072-.018-.148-.04-.224-.057-.025-.004-.052.001-.077.003-.039.002-.08.016-.115.008a.555.555 0 0 0-.495.105 15.662 15.662 0 0 1-.155-.132c-.03.021-.06.037-.08.062-.053.063-.11.08-.185.035-.092-.054-.173.006-.242.052a.26.26 0 0 1-.21.046c-.151-.026-.307-.026-.403.136-.005.01-.013.02-.023.021-.167.065-.331.158-.517.118a.277.277 0 0 0-.218.03 1.01 1.01 0 0 1-.179.077c-.03.01-.068.02-.092.008-.094-.037-.182-.017-.275-.004-.112.018-.226.016-.34.029a.238.238 0 0 0-.104.036c-.1.07-.197.116-.331.077-.136-.04-.296.076-.341.214a.228.228 0 0 1-.064.103c-.155.126-.103.323.065.416.207.113.412.226.617.342.441.25.883.504 1.323.757.292.167.594.305.922.383.339.081.652.223.965.37.23.107.468.186.726.194.25.007.283 0 .488-.102l.086.058c.012-.019.027-.03.028-.046.007-.22.13-.312.341-.327.091-.005.18-.04.281-.063l.082.106c.087-.025.172-.074.251-.066.065.007.112-.041.185-.013.17.067.329.14.436.296.128.183.26.363.388.545a.41.41 0 0 1 .067.327c-.01.047-.007.097-.01.136-.063.088-.126.167-.182.252-.164.246-.36.459-.597.638-.097.073-.186.147-.3.19-.068.025-.134.078-.216.039-.013-.007-.034-.001-.048.005-.091.042-.182.069-.276.004-.175.035-.31-.075-.459-.134-.04-.016-.073-.06-.103-.1-.079-.104-.162-.206-.228-.318-.057-.097-.091-.207-.139-.31-.076-.162-.126-.344-.239-.477a.543.543 0 0 0-.462-.202.2.2 0 0 1-.184-.07.234.234 0 0 0-.202-.086c-.03.001-.077-.022-.09-.049-.037-.059-.086-.074-.15-.083a.773.773 0 0 1-.197-.067 1.372 1.372 0 0 0-.641-.17c-.035.001-.086-.004-.102-.026-.06-.08-.144-.08-.228-.105-.126-.035-.272-.048-.364-.17-.016-.02-.057-.023-.087-.037-.052-.024-.105-.048-.156-.075-.023-.014-.042-.046-.064-.047-.13-.006-.2-.1-.285-.174-.043-.036-.078-.093-.154-.066-.016.007-.046-.022-.07-.035a1.857 1.857 0 0 0-.483-.207c-.141-.034-.295-.072-.411-.182-.12-.113-.283-.132-.434-.176-.026-.007-.057-.006-.076-.02-.077-.057-.153-.104-.254-.081a.075.075 0 0 1-.047-.011c-.143-.074-.286-.144-.424-.224-.109-.06-.205-.142-.318-.19-.07-.028-.103-.073-.144-.122-.06-.069-.122-.137-.166-.186-.096 0-.165-.004-.233 0-.055.004-.119 0-.16.025-.174.107-.371.087-.56.113-.042.005-.095 0-.128.021-.177.117-.38.136-.579.174a.247.247 0 0 0-.097.052c-.045.033-.087.069-.146.03-.004-.003-.012-.008-.015-.007-.159.072-.338.038-.5.094-.024.01-.047.025-.074.029l-.648.102c-.017.003-.036 0-.046.008-.185.152-.416.075-.623.12-.046.01-.101.005-.14.03-.115.067-.236.11-.36.15-.078.024-.138.043-.226.035-.098-.01-.205.055-.307.088-.01.002-.014.021-.023.023-.174.037-.347.074-.52.109-.085.016-.174.017-.257.041-.155.042-.306.1-.46.144a.646.646 0 0 1-.24.04c-.191-.023-.37.018-.553.057-.464.096-.934.18-1.399.279-.274.058-.543.133-.815.2-.308.076-.617.153-.926.221a2.361 2.361 0 0 0-.561.185 1.63 1.63 0 0 1-.307.109c-.113.028-.188.087-.21.202-.021.106.024.181.143.247.018.013.046.015.057.03.093.148.245.226.374.331.087.073.18.139.28.191.06.031.115.058.15.119.04.068.104.098.178.13.095.04.173.119.258.182l.178.135c.03.024.07.04.087.07.064.1.156.118.258.094.086-.019.15.003.203.069.016.018.038.043.062.05.13.034.262.063.393.098.12.033.238.076.358.107.222.06.445.11.674.14.163.022.33.053.496.074.024.003.046.027.067.044a.312.312 0 0 0 .347.039c.133-.061.223-.171.334-.256a4.655 4.655 0 0 1 .583-.373c.106-.054.216-.1.334-.154a.335.335 0 0 0 .315.035c.043-.014.104.02.162.031a.302.302 0 0 1 .264-.078c.137.025.278-.027.422.007.182.043.341.092.423.294.112.277.158.56.16.857 0 .135.022.27.007.403a.416.416 0 0 1-.113.222c-.103.111-.224.206-.35.316-.1-.057-.19-.035-.27.065-.036.044-.092.062-.163.057-.088-.008-.18.011-.27.029-.214.04-.426.093-.641.128a2.574 2.574 0 0 1-.444.028c-.167-.004-.333-.03-.474-.135-.125-.094-.267-.167-.374-.276-.09-.091-.176-.2-.126-.36.045-.146-.007-.213-.163-.258-.016-.004-.04 0-.046-.01-.1-.156-.283-.144-.428-.206-.15-.06-.314-.093-.47-.144a15.864 15.864 0 0 1-.57-.204c-.298-.113-.597-.22-.888-.348-.437-.191-.849-.424-1.203-.753a3.183 3.183 0 0 0-1.079-.642c-.18-.067-.364-.125-.538-.204a.602.602 0 0 0-.581.044.708.708 0 0 1-.313.083.534.534 0 0 0-.254.09c-.085.054-.182.135-.312.087-.04-.015-.111.01-.15.037-.104.083-.218.092-.34.081-.085-.007-.163-.001-.229.066-.017.018-.058.012-.085.024-.136.06-.27.115-.42.14-.037.006-.068.05-.103.074-.053.04-.105.046-.167.013-.105-.057-.218-.035-.306.05-.054.053-.108.07-.189.065-.106-.005-.214.026-.322.04-.123.02-.245.042-.37.06-.036.005-.074-.003-.11.003a.858.858 0 0 0-.151.035c-.078.023-.152.052-.23.076-.01.004-.024.007-.031.002-.18-.119-.37-.035-.523.028a2.085 2.085 0 0 1-.424.116c-.14.024-.273.074-.42.062-.05-.006-.104.02-.156.036-.062.019-.118.044-.186-.003-.027-.02-.094.004-.134.023-.052.022-.095.051-.154.02-.02-.01-.058-.006-.077.007-.114.074-.238.069-.363.054-.049-.007-.106-.013-.147.007-.134.064-.264.08-.399.001-.012-.007-.034-.01-.046-.003-.136.06-.275.077-.424.078-.182 0-.363.06-.545.07a7.987 7.987 0 0 1-.74.002c-.206-.007-.414-.05-.622-.049-.251.002-.503.027-.753.051-.42.044-.84.096-1.259.136-.7.07-1.392.192-2.066.395-.361.109-.713.252-1.07.374-.564.195-1.13.384-1.696.576-.165.055-.331.113-.498.164-.063.02-.132.04-.193.031-.403-.055-.744.099-1.065.309a1.802 1.802 0 0 1-.489.215c-.272.082-.531.205-.796.31-.327.125-.653.25-.98.377-.45.17-.903.34-1.35.515-.45.175-.892.365-1.344.533-.382.143-.74.329-1.094.527-.607.339-1.209.686-1.82 1.017-.236.127-.424.305-.609.49-.22.22-.448.43-.599.71a.437.437 0 0 1-.184.179c-.177.087-.283.235-.383.389-.12.18-.268.336-.375.53-.124.224-.322.405-.481.613-.112.144-.21.3-.318.45-.111.151-.227.3-.341.453-.04.052-.08.102-.115.155-.055.08-.062.202-.2.206-.023 0-.045.044-.064.071-.065.092-.124.187-.247.22-.044.013-.07.082-.108.118-.084.08-.173.157-.256.24-.038.037-.067.082-.097.125-.034.05-.058.095-.14.086-.095-.01-.146.086-.2.144-.11.114-.233.214-.32.357a.853.853 0 0 1-.421.34c-.058.022-.107.073-.155.116-.138.124-.274.246-.409.373a.894.894 0 0 0-.103.124 8.5 8.5 0 0 0-.224.32c-.07.102-.143.205-.194.317A.373.373 0 0 1 .168 35c-.074-.036-.094-.08-.075-.186.031-.167.109-.307.187-.448.307-.543.69-1.033 1.093-1.506.088-.104.195-.193.294-.286l.43-.4c.032-.03.062-.067.101-.08.195-.068.305-.216.39-.388.074-.026.17-.032.216-.084.112-.122.197-.266.295-.4.045-.06.083-.133.143-.17.39-.253.637-.628.843-1.023.189-.358.391-.706.628-1.033.013-.019.027-.035.038-.054.206-.393.466-.747.744-1.094.338-.42.637-.868.91-1.334.158-.267.322-.532.49-.792.096-.15.213-.288.309-.437.111-.171.2-.358.318-.524.125-.178.274-.338.413-.506.045-.054.083-.113.129-.166.113-.129.228-.255.34-.385.036-.037.065-.08.11-.138.11.02.15-.066.177-.169a.442.442 0 0 1 .028-.094c.034-.078.081-.136.182-.137a.18.18 0 0 0 .123-.057c.127-.17.28-.315.434-.46.12-.114.21-.261.315-.393.057-.071.122-.137.175-.209.023-.032.05-.098.037-.111-.068-.075-.014-.132.01-.194.13-.323.226-.656.312-.994.097-.393.14-.791.214-1.187.008-.042.014-.093.04-.123.152-.162.118-.359.115-.553 0-.06-.01-.12 0-.176.026-.17.052-.337.12-.501.1-.237.163-.49.232-.74.023-.081.017-.173.027-.259.007-.07 0-.147.024-.208.098-.248.125-.521.294-.74a.2.2 0 0 0 .037-.107 4.13 4.13 0 0 1 .092-.706.355.355 0 0 0-.014-.158c-.032-.142-.073-.282-.104-.423a.284.284 0 0 1-.003-.147c.072-.237-.023-.458-.061-.682-.027-.16-.087-.311-.13-.467-.026-.096-.062-.19-.066-.286-.004-.093.03-.186.042-.279.007-.047.007-.094.009-.144.002-.079-.014-.16.062-.226.027-.023.031-.076.038-.118.033-.209.05-.419.126-.618a.359.359 0 0 0 .009-.162 1.033 1.033 0 0 1 .077-.518.444.444 0 0 0 .033-.27c-.025-.122-.011-.258.105-.352a.16.16 0 0 0 .047-.059c.084-.217.161-.438.224-.662.049-.175.153-.333.23-.498.024-.049.046-.097.065-.146.025-.066.051-.132.07-.198.044-.15.156-.288.163-.436.01-.222.114-.405.18-.603.054-.163.146-.312.23-.466.024-.045.072-.076.113-.117-.01-.122.004-.235.107-.332.044-.04.045-.119.08-.173.257-.395.515-.791.782-1.18.127-.19.275-.366.415-.547.023-.028.055-.059.087-.067a.339.339 0 0 0 .23-.229c.023-.066.056-.116.122-.143a.165.165 0 0 0 .067-.044c.155-.2.375-.312.593-.423.176-.089.363-.156.538-.245.174-.09.355-.177.507-.297.144-.116.224-.294.282-.467.067-.204.155-.405.125-.63-.004-.042.013-.085.023-.127.029-.109.062-.217.047-.334a.24.24 0 0 1 .024-.109c.114-.286.171-.584.178-.89.004-.262.086-.503.193-.739.007-.017.027-.03.043-.05" mask="url(#d)"/>
        </g>
        <path fill="#78736E" d="M34.892 24.255c-.026.078-.096.1-.174.094-.127-.006-.262.024-.36-.094-.044-.05-.227-.025-.268.028-.103.137-.24.122-.366.088-.135-.037-.25-.062-.391.012-.12.061-.263.076-.397.11-.056.016-.117.023-.168.046-.08.035-.153.042-.23.005-.066-.029-.126-.026-.193.026-.049.037-.118.048-.178.07-.028.012-.067.014-.088.035-.09.092-.205.11-.323.125-.03.005-.071.007-.09.028-.069.075-.144.098-.25.1-.092.002-.101.107-.11.203.094.035.186.066.277.104.09.037.175.115.264.114.092.001.187-.059.29-.029.077.022.153-.006.233-.026.168-.038.342-.057.514-.076.04-.006.084.011.123.025.06.02.113.02.165-.02.051-.04.104-.037.165-.036.183.006.365.072.551-.009.03-.012.065-.014.086-.033.141-.127.293-.106.444-.047.083.032.146.07.25.014.068-.035.183-.017.259.012.069.027.128.035.198.025.036-.007.082-.021.11-.007.21.1.417.003.627-.017.036-.002.072.007.109.011.073.007.146.02.218.016.206-.011.41-.032.615-.047.051-.003.12.032.153.01.106-.07.202-.024.3-.014.104.01.205.043.31.05a.812.812 0 0 0 .266-.015c.1-.028.182-.048.288-.004.088.038.205.017.31.025.046.004.094.008.133.026a.413.413 0 0 0 .274.036c.06-.013.124.005.186.011.01 0 .021.014.027.011.151-.066.28.101.438.018.049-.024.127 0 .19.008.5.068 1.004.063 1.507.012.213-.02.42-.078.631-.117.362-.066.725-.144 1.089-.19.31-.038.607-.123.896-.241.254-.103.507-.212.759-.32.388-.17.777-.34 1.163-.517.25-.114.489-.247.74-.355.225-.097.461-.17.688-.263.052-.02.086-.086.148-.152.092-.043.229-.048.336-.144.032-.027.101-.014.165-.019.055-.228.256-.132.41-.168.012-.093.081-.12.161-.15.086-.033.196-.041.238-.156.132.021.238-.036.328-.128a.44.44 0 0 1 .172-.1c.111-.047.23-.103.256-.238.25-.026.311-.134.244-.388-.048-.004-.108-.024-.159-.008a.407.407 0 0 1-.306-.022c-.011.04-.02.069-.027.089-.062.032-.128.052-.178.092-.08.065-.159.111-.26.065-.041.043-.077.083-.11.12a.907.907 0 0 0-.646.097c-.101.058-.224.076-.338.112-.064.022-.126.054-.193.066-.26.05-.52.094-.779.143-.052.009-.102.034-.152.052-.175.063-.358.063-.537.082a.825.825 0 0 0-.405.131c-.025.018-.06.036-.087.035-.15-.015-.3-.036-.463-.056l-.077.106-.301-.036c-.038.1-.111.154-.226.14-.029-.005-.061.014-.092.022-.083.019-.17.056-.249.049-.131-.01-.242.052-.363.078-.17.036-.34.074-.516.06-.027-.003-.054-.022-.08-.038-.084-.05-.18-.047-.22.034-.048.104-.136.107-.222.132-.074.022-.147.05-.22.075-.116.006-.236.007-.354.017-.073.007-.146.025-.217.037-.016.003-.041-.005-.047.003-.084.103-.22.053-.32.116-.036.021-.092.009-.138.015-.03.005-.065.01-.084.029-.092.09-.193.102-.306.061-.039-.013-.082-.017-.135-.027-.027.131-.123.146-.23.143-.058 0-.116-.004-.175-.002-.037.001-.08.002-.107.022-.11.086-.23.109-.366.12-.117.01-.233.068-.346.117-.05.022-.086.027-.134.013-.08-.026-.16-.045-.245.011-.02.014-.06-.004-.09-.002-.026 0-.066-.005-.075.009-.056.092-.133.068-.21.055-.025-.004-.056-.007-.078.003a.437.437 0 0 1-.367.015c-.03-.012-.1.02-.122.051-.09.122-.227.118-.349.157-.044.014-.09.02-.133.032-.026.008-.054.033-.074.028-.114-.033-.213.02-.312.062-.016.006-.037.016-.047.01-.169-.101-.367.056-.538-.033-.155.099-.33-.05-.485.057-.012.007-.036.01-.047.003-.099-.054-.212-.03-.318-.046-.114-.016-.23-.069-.346.008-.008.006-.024.008-.03.003-.145-.096-.326.023-.476-.065-.05-.03-.132-.014-.21-.02M19.238 27.608c-.056-.163-.218-.221-.385-.265-.081-.021-.13.048-.09.132.061.127.146.233.279.296.028.012.067.024.079.049.096.188.277.28.44.392.06.04.113.092.173.133.066.046.137.08.206.122.034.02.079.033.094.063.137.253.385.379.604.539.036.026.082.044.11.076.123.148.263.275.427.371.114.067.137.191.208.285.172.23.296.486.416.745.016.034.057.085.08.081.121-.016.11.088.145.147.037.068.06.144.091.215.023.052.066.1.072.153.02.187.145.321.208.487.008.025.03.05.05.068.109.1.159.223.197.367.033.12.125.226.204.328.18.24.398.44.663.586.02.012.043.02.058.038.22.25.534.414.702.717.11.047.166.188.318.179.045-.004.095.033.138.062.35.23.705.45.993.762.174.187.397.329.606.48.296.216.588.445.934.58.225.086.457.16.69.233.18.056.37.094.55.152.137.045.264.113.398.164.14.054.28.11.424.143.28.063.564.134.85.162.247.027.505.03.748-.018.236-.044.453-.092.7-.068.316.035.525-.331.38-.612-.032-.061-.067-.13-.122-.162-.202-.125-.285-.356-.468-.493-.018-.013-.024-.045-.042-.053-.134-.051-.265-.105-.332-.243-.187.013-.242-.17-.374-.233-.177-.086-.333-.222-.552-.217-.056 0-.115-.062-.171-.095a44.108 44.108 0 0 1-.248-.14c-.043-.026-.099-.045-.125-.082-.122-.174-.3-.248-.5-.281-.12-.023-.204-.091-.296-.16-.137-.1-.287-.18-.435-.264-.026-.015-.068-.006-.1 0a.741.741 0 0 1-.427-.029c-.11-.043-.228-.065-.345-.096-.016-.004-.036-.016-.05-.011-.243.075-.455-.088-.69-.073-.011.001-.026.001-.034-.005-.23-.157-.521-.125-.771-.225-.252-.1-.52-.158-.772-.257a8.752 8.752 0 0 1-.916-.405 2.67 2.67 0 0 1-.86-.73 5.08 5.08 0 0 1-.827-1.649c-.111-.372-.328-.677-.583-.96-.08-.09-.169-.172-.246-.264a1.856 1.856 0 0 0-.562-.42c-.22-.114-.44-.226-.662-.335-.077-.038-.16-.064-.241-.096-.143-.059-.284-.123-.43-.175-.181-.067-.365-.121-.58-.19"/>
    </g>
</svg>
