<svg xmlns="http://www.w3.org/2000/svg" width="87" height="57" viewBox="0 0 87 57">
    <g fill="#827C74" fill-rule="evenodd" style="mix-blend-mode:multiply">
        <path d="M70.508 10.192c.141.27.059.487-.014.708-.189.572-.36 1.148-.563 1.712-.118.336-.203.698-.57.894-.081.044-.126.216-.133.336-.012.18.262.468.462.517.193.052.332-.038.472-.303.016-.036.03-.075.044-.108.092-.217.217-.344.486-.363.205-.014.488-.096.582-.242.184-.287.453-.416.707-.578.446-.287.877-.6 1.341-.851a10.945 10.945 0 0 0 2.603-1.99c.36-.369.768-.653 1.249-.823 1.763-.627 3.038-1.831 3.979-3.404.773-1.294 1.497-2.617 2.25-3.925.21-.36.61-.5.93-.726.044-.03.13-.021.19-.01.54.125 1.035.348 1.387.788.247.31.46.656.664.997.106.172.203.367.234.562.035.223-.022.456.165.649.044.045.023.172.004.254-.096.44-.193.875-.315 1.305-.036.122-.16.22-.255.32-.094.1-.262.169-.297.284-.085.254-.285.287-.476.29-.229.004-.427.049-.599.19-.18.14-.389.183-.606.23-.575.12-1.084-.073-1.581-.315-.191-.091-.359-.1-.53.028-.15-.103-.243-.317-.472-.254-.066.116-.1.252-.189.327-.228.198-.49.362-.721.555-.337.282-.58.65-1.056.797-.325.101-.568.452-.86.678-.326.251-.649.517-1.007.714-.172.097-.311.21-.45.337-.125.112-.257.216-.389.32-.65.505-1.303 1.013-1.956 1.516-.705.543-1.403 1.096-2.12 1.622-.49.355-1.008.675-1.51 1.014-.128.085-.238.207-.378.263-.888.367-1.67.924-2.503 1.395-.056.03-.127.06-.153.115-.127.256-.363.34-.615.418-.21.069-.408.165-.618.23-.353.116-.716.212-1.075.323-.273.087-.424.29-.412.538.01.285.162.452.474.525.084.019.183.03.25.084.176.137.372.158.586.144.18-.01.363-.007.543-.005.643.01 1.287.03 1.93.03.568 0 1.139-.016 1.707-.035a32.245 32.245 0 0 0 1.508-.089c1.148-.099 2.209-.508 3.277-.903.181-.07.389-.066.627-.099.134-.204.417-.232.671-.308.545-.162 1.094-.303 1.639-.465.275-.085.546-.193.874-.31.01-.022.073-.104.068-.184-.011-.202.102-.327.203-.477.222-.32.514-.574.766-.863.16-.181.25-.45.439-.579.188-.13.462-.134.697-.197.048-.014.092-.045.14-.066.405-.165.782-.414 1.223-.463.636-.076 1.2.16 1.732.482.043.023.064.082.1.117.183.184.353.377.553.539.163.134.248.273.255.489.005.216.054.435.073.649.012.127.023.263-.012.378-.07.243-.092.475-.016.72a.486.486 0 0 1-.022.263c-.063.177-.143.348-.186.445-.203.1-.342.167-.48.242-.21.106-.31.308-.453.48-.196.235-.5.39-.78.54-.156.083-.347.092-.462.254-.024.033-.118.028-.177.021-.302-.025-.604-.08-.908-.094-.617-.025-.994-.392-1.27-.881-.146-.254-.519-.308-.55-.652 0-.011-.042-.03-.065-.033-.295-.011-.533-.174-.795-.282a.43.43 0 0 0-.302-.01c-.238.1-.523.111-.678.384-.055.092-.215.139-.337.167-.272.066-.57.042-.788.268-.648.104-1.25.433-1.928.395a.489.489 0 0 0-.181.035c-.35.127-.686.297-1.045.37-.235.047-.466.065-.674.206-.052.033-.162.024-.219-.007-.205-.115-.351-.035-.528.08-.189.125-.387.322-.655.125-.04-.03-.146.01-.215.035-.096.038-.186.087-.221.106-.238-.059-.448-.19-.601-.139-.479.156-.931-.136-1.396-.028-.03.007-.08-.019-.106-.045-.181-.183-.335-.148-.476.055-.019.025-.073.056-.097.047-.219-.087-.443.171-.664-.01-.022-.016-.092.017-.137.035-.116.047-.238.09-.344.153-.118.075-.33-.02-.356.202a.642.642 0 0 0-.358.008c-.203.068-.425.077-.642.091-.381.026-.7-.251-1.074-.247-.378.005-.66-.16-.924-.409-.144-.136-.342-.263-.528-.282-.444-.05-.896-.023-1.346-.045-.434-.016-.868.104-1.304-.01-.139-.034-.25.03-.328.154-.103.164-.24.188-.39.073-.133-.1-.237-.061-.347.035-.055.047-.116.106-.184.122-.297.073-.422.438-.762.435-.025 0-.047.061-.08.08-.308.2-.605.426-.935.58-.18.086-.35.158-.462.323-.137.205-.338.303-.573.35-.1.02-.229.031-.283.1-.12.15-.288.154-.443.201-.245.078-.545.097-.717.257-.297.27-.735.371-.926.77-.017.039-.083.057-.13.071-.398.109-.764.269-1.049.584a.429.429 0 0 1-.205.105c-.349.083-.58.405-.947.459-.17.023-.35.09-.486.188-.526.379-1.13.602-1.695.9-.672.358-1.374.661-2.06.988a4.635 4.635 0 0 1-1.013.374c-.352.075-.691.212-1.026.348-.186.075-.344.221-.533.296-.306.125-.523.398-.867.466-.189.04-.375.167-.523.299-.227.195-.453.369-.755.43-.05.01-.094.04-.141.063-.55.257-.676.896-.16 1.31.79.63 1.673 1.086 2.61 1.416.874.308 1.743.653 2.667.794.196.028.323.13.436.285.168.228.215.24.448.12a.63.63 0 0 1 .476-.045.862.862 0 0 0 .8-.181c.242-.198.358-.466.516-.712.16-.25.304-.522.516-.718.483-.446.997-.856 1.51-1.265.159-.127.354-.216.545-.287.814-.298 1.632-.573 2.44-.881.457-.174.903-.381 1.344-.595.207-.101.398-.245.58-.386.186-.146.436-.037.638-.235.168-.162.505-.136.729-.263a.91.91 0 0 1 .716-.07c.446.121.745-.156 1.08-.342.052-.028.087-.131.09-.2.006-.143.054-.235.193-.298.075-.033.12-.125.179-.186.283-.299.337-.76.714-.99.033-.021.038-.092.052-.139.148-.58.936-.849 1.36-.55.082.059.214.047.382.075.019.026.08.118.132.193l.396-.077c-.097.296.078.432.254.52.205.1.387.258.67.19.127-.033.356.02.445.211.191.421.564.776.297 1.329-.144.291-.188.63-.417.886-.059.068-.123.15-.134.23-.036.262-.217.426-.382.598-.234.244-.51.423-.865.362a65.969 65.969 0 0 1-2.013-.386c-.092-.018-.168-.108-.257-.157-.276-.155-.55-.31-.832-.454-.097-.047-.217-.045-.32-.085-.19-.07-.345-.049-.491.104a.733.733 0 0 1-.309.197c-.257.069-.523.106-.785.158-.634.127-1.266.259-1.902.38-.672.125-1.263.431-1.83.798-.473.308-.975.517-1.555.517-.247.25-.396.602-.78.715-.078.024-.165.146-.175.233-.02.197-.162.28-.29.39-.082.07-.15.16-.214.247-.172.24-.33.508-.643.564-.37.069-.493.315-.578.605.118.103.231.171.302.272.15.22.153.224.393.109a.936.936 0 0 1 .326-.07c.153-.013.308.008.462-.003 1.263-.099 2.517-.308 3.79-.235.874.051 1.575-.276 2.13-.964.376-.461.826-.861 1.434-1.007.132-.03.29-.05.412-.007.147.054.248.057.39-.023.087-.05.29-.029.35.04.168.188.415.214.611.296.283.12.497.306.736.472.099.073.13.189.172.313.092.268.108.619.455.687.023.249.066.463.063.675-.014.52-.363.919-.52 1.387-.076.223-.333.17-.477.291-.028.026-.061.048-.09.073-.395.36-.895.447-1.395.508a3.837 3.837 0 0 1-2.357-.463.752.752 0 0 1-.375-.414c-.127-.329-.276-.651-.417-.985-.384.047-.73-.17-1.073.04-.386-.099-.676.165-1.018.287-.22-.226-.464-.322-.759-.15-.052.028-.125.018-.188.025-.203.021-.403.038-.606.061-.175.02-.368.109-.523.061-.347-.103-.627.003-.87.156a52.434 52.434 0 0 0-.632-.228c-.434-.156-.542-.125-.849.211-.223.25-.23.395.05.536.337.172.535.475.797.72.596.55 1.192 1.103 1.793 1.648.257.235.543.437.785.687.392.4.825.733 1.323.997.431.228.844.493 1.27.731.163.094.34.228.51.23a.553.553 0 0 1 .424.19c.202.234.389.283.605.069.467.317.922.25 1.38.066.028-.09.044-.167.075-.235.16-.358.391-.69.412-1.103.003-.066.076-.13.125-.188.403-.475.938-.503 1.492-.407.521.092.957.393 1.393.66.208.125.408.405.453.643.064.374.196.715.332 1.058.316.792.288 1.566-.242 2.248-.213.275-.326.529-.333.863-.005.28-.108.378-.365.47-.087.028-.163.103-.24.155-.166.113-.321.285-.5.318a1.89 1.89 0 0 0-.418.138c-.264.11-.553.257-.799-.066-.033-.04-.125-.077-.172-.06-.165.053-.257-.062-.382-.118-.414-.19-.636-.546-.825-.92-.162-.312-.36-.632-.179-1.037.097-.22.036-.482-.087-.712-.101-.19-.285-.195-.462-.226-.05-.007-.092-.044-.139-.07a1.46 1.46 0 0 0-.85-.17c-.182.015-.303-.056-.397-.225-.073-.123-.205-.219-.328-.304-.511-.352-1.1-.602-1.444-1.166-.1-.16-.234-.242-.46-.174-.302.094-.44.007-.58-.284-.033-.066-.045-.153-.097-.203-.198-.195-.405-.38-.617-.562-.076-.065-.175-.1-.262-.15-.13-.073-.283-.12-.389-.219-.688-.644-1.367-1.298-2.053-1.944-.122-.113-.252-.243-.403-.299-.295-.106-.526-.287-.74-.508-.146-.15-.368-.223-.384-.489-.005-.075-.132-.15-.217-.205-.236-.157-.495-.275-.712-.453-.29-.23-.608-.33-.969-.304a.74.74 0 0 1-.471-.11c-.144-.087-.342-.085-.514-.122-.233-.052-.495-.057-.695-.167-.401-.221-.769-.508-1.153-.765-.266-.176-.526-.385-.818-.503-.236-.094-.497-.322-.78-.037-.137-.459-.696-.23-.872-.595-.014-.026-.095-.036-.142-.028-.247.035-.42-.097-.56-.269-.25-.308-.512-.61-.722-.945-.262-.409-.952-.508-1.304-.223-.087.073-.186.164-.292.18-.46.071-.804.307-1.042.687-.266-.009-.261-.004-.473.172-.085.07-.191.125-.293.174-.327.158-.742.064-1.02.362-.02.021-.08.024-.111.007-.229-.106-.32.083-.45.2-.142.125-.279.29-.448.346-.743.247-1.41.62-2.07 1.034-1.211.76-2.442 1.491-3.665 2.234-.177.106-.351.247-.545.282-.264.047-.506.07-.62.365-.018.05-.103.068-.158.103-.221.132-.438.268-.662.395-.544.301-.957.807-1.6.96-.323.075-.618.258-.927.388-.45.192-.917.362-1.353.58-1.225.619-2.347 1.404-3.472 2.185a1.093 1.093 0 0 0-.37.437c-.132.299-.356.48-.634.607-.148.07-.167.174-.16.315.02.4.363.531.631.642.316.127.627.291.891.47.401.268.802.341 1.243.322.785-.04 1.57-.103 2.354-.16.137-.01.255-.02.295.163.038.174.215.195.302.112.252-.218.483-.075.723-.011.12.03.239.077.366.117.099-.171.167-.331.41-.3.434.053.874.089 1.313.093.53.007 1.058-.05 1.549-.287.264-.124.528-.263.803-.366.264-.101.54-.167.814-.243.268-.077.44-.268.565-.496.177-.329.316-.677.507-.997.217-.364.408-.785.724-1.041.761-.614 1.66-.938 2.66-.873.123.01.258.054.362.123.688.453 1.357.926 1.855 1.615.554.771.65 1.545.221 2.389-.132.259-.337.395-.608.473-.17.051-.382.094-.48.218-.213.266-.486.233-.76.252-.099.007-.212.014-.29.068-.365.245-.73.452-1.18.539-.357.072-.687.253-1.057.068-.096-.05-.242-.033-.308-.1-.434-.425-.962-.693-1.485-.973-.206-.108-.408-.178-.63-.14a64.689 64.689 0 0 0-3.689.71c-.393.084-.77.007-1.148-.095-.136-.037-.278-.063-.41-.11-.21-.078-.351.014-.474.165-.054.07-.09.152-.148.253-.439-.08-.872-.258-1.322-.098-.012.004-.024-.005-.038-.007-.366-.085-.726-.181-1.094-.25a8.636 8.636 0 0 0-.922-.105c-.223-.012-.41.082-.509.289-.096.21-.03.404.095.583.044.063.094.13.158.172.43.282.86.566 1.303.827.125.076.297.076.448.099.382.059.782.052 1.138.174.361.122.689.353 1.007.571a.833.833 0 0 1 .323.41c.158.503.28 1.018.405 1.53.04.163.076.348-.068.475-.158.139-.33.31-.521.346-.222.047-.323.155-.363.336-.042.198-.16.315-.318.414a12.56 12.56 0 0 0-.318.214c-.116-.186-.227-.353-.493-.28-.061.017-.153-.08-.233-.117-.102-.054-.198-.134-.307-.153-.599-.099-1.028-.445-1.367-.917-.104-.146-.231-.306-.245-.468-.033-.4-.184-.753-.368-1.087-.139-.249-.141-.446.01-.665.426-.075.412-.16.421-.451-.256-.292-.483-.55-.714-.807a2.118 2.118 0 0 0-.221-.214c-.253-.207-.514-.402-.762-.616-.389-.339-.756-.698-1.15-1.032-.658-.557-1.395-.75-2.232-.433-.144.054-.297.082-.446.127a7.557 7.557 0 0 0-1.831.814c-.481.3-.957.618-1.462.877a20.671 20.671 0 0 0-3.116 1.944c-.74.56-1.47 1.136-2.206 1.703-.153.117-.318.22-.462.348-.295.254-.552.56-.872.762-.526.333-.875.837-1.297 1.265-.431.437-.813.924-1.28 1.328-.087.075-.157.17-.238.254-.299.32-.591.647-.898.955-.372.371-.768.722-1.136 1.098-.17.174-.297.388-.445.58-.344.452-.691.896-1.033 1.348a.9.9 0 0 0-.115.202c-.168.407-.554.677-.677 1.112a.34.34 0 0 1-.19.184c-.11.042-.276.094-.35.044-.266-.18-.393-.489-.469-.778-.044-.17.055-.411.163-.574.26-.397.559-.769.844-1.147a.203.203 0 0 1 .094-.066c.382-.132.639-.393.828-.745.1-.188.247-.36.504-.386.082-.01.163-.108.229-.179.077-.087.139-.188.205-.282.188-.273.544-.4.657-.74.007-.022.066-.022.097-.04.106-.062.255-.106.302-.2.12-.235.473-.264.497-.576 0-.02.064-.045.099-.047.462-.036.535-.595.948-.704.047-.011.066-.131.1-.2.03-.053.053-.145.095-.152.224-.052.276-.25.39-.4.15-.195.296-.395.544-.503.259-.113.509-.266.445-.628-.01-.047.043-.108.05-.127.219-.021.393-.023.563-.066.146-.033.288-.099.417-.174.085-.05.182-.13.21-.214.104-.324.349-.454.641-.552a.434.434 0 0 0 .212-.188c.085-.156.144-.325.203-.468.45-.045.665-.365.92-.635.094-.099.183-.252.299-.275.346-.08.516-.348.71-.59.108-.142.176-.316.405-.294.047.004.099-.073.155-.094.28-.104.43-.41.745-.468.134-.024.266-.08.389-.144.408-.218.707-.604 1.16-.764.085-.033.136-.15.205-.228.05-.057.092-.162.146-.17.245-.023.389-.237.584-.303.347-.12.625-.352.962-.472.278-.097.542-.174.736-.435a.98.98 0 0 1 .473-.32c.403-.122.729-.372 1.08-.579.434-.253.882-.491 1.29-.78.395-.28.817-.548 1.008-1.04.033-.082.186-.19.264-.176.267.052.38-.077.413-.275.32.052.525-.085.716-.27.052-.05.111-.14.16-.134.208.016.257-.13.335-.266.06-.108.13-.242.231-.29.34-.15.733-.204.915-.597.01-.016.04-.03.063-.042.314-.148.677-.204.896-.512.733-.35 1.462-.71 2.197-1.05.743-.345 1.421-.787 2.079-1.269.73-.538 1.263-1.258 1.756-1.996.686-1.032.217-2.286-.693-2.829-.353-.211-.728-.385-1.089-.585-.295-.16-.563-.374-.872-.499-.665-.26-1.205-.71-1.697-1.19-.467-.456-1.03-.769-1.532-1.168-.373-.297-.776-.55-1.16-.833-.226-.169-.446-.35-.665-.529-.367-.303-.728-.611-1.096-.914a.22.22 0 0 0-.104-.047c-.386-.026-.502-.341-.586-.621-.069-.228-.182-.35-.392-.423-.323-.116-.662-.205-.961-.367-.203-.11-.441-.23-.462-.546-.024-.423-.1-.841-.147-1.258-.01-.077-.028-.18.012-.225.288-.315.399-.83.952-.85.06-.307-.047-.726.47-.665.094-.289.094-.287.42-.376.037-.01.077-.026.096-.054.13-.186.323-.158.495-.125.2.036.398.106.591.174.931.334 1.554.924 1.705 1.954.044.301.011.464-.24.642-.248.172-.524.388-.64.65-.297.681-.176 1.544.375 2.085.394.388.82.745 1.247 1.1.248.205.521.379.792.553.26.167.42.496.783.498.01 0 .023.015.028.026.156.344.502.475.783.67.355.252.742.457 1.117.682.033.02.075.03.11.033l.656.052c0-.04.019-.108-.002-.155-.102-.212.007-.384.155-.463.21-.106.229-.21.134-.393-.033-.064-.014-.15-.028-.226-.07-.39-.134-.783-.226-1.168-.07-.301-.191-.59-.269-.892-.038-.16-.075-.345-.028-.491.125-.379.311-.74.09-1.143.124-.338-.045-.63-.158-.926-.13-.341-.173-.67-.003-1.009.083-.16.047-.28-.108-.393-.14-.098-.165-.235-.069-.406.125-.221.092-.294-.134-.417-.113-.06-.245-.098-.337-.183a28.995 28.995 0 0 1-1.183-1.162c-.109-.112-.205-.286-.21-.435a23.1 23.1 0 0 1 .014-1.895c.01-.207.116-.42.224-.604.148-.245.342-.461.516-.691.234.192.226.18.432.02.285-.223.582-.427.881-.644.292.205.587.196.882.087.17-.065.334-.152.478-.218.613.482.832 1.15.858 1.796.019.452-.01.903.007 1.357.017.374-.127.658-.36.943-.53.646-.837 1.385-.804 2.238.01.233.016.466.012.696-.02.896.08 1.778.247 2.655.109.564.37 1.07.658 1.559.094.16.205.299.02.477-.046.047-.056.198-.018.254.198.273.13.593.196.887.061.27.172.545.33.77.224.32.573.434.961.354.46-.094.698-.405.811-.842.276-1.086.738-2.086 1.438-2.97.538-.675 1.077-1.35 1.582-2.048.429-.597.808-1.227 1.211-1.841.373-.571.75-1.14 1.122-1.712.271-.423.208-.825-.08-1.22a.555.555 0 0 1-.108-.348c.052-.487.162-.952.422-1.392.268-.45.474-.938.679-1.423.103-.247.127-.524.398-.665.04-.024.085-.075.092-.12.03-.23.23-.28.351-.388.205.045.208.44.535.212l-.167-.445c.073-.033.148-.068.224-.101.092-.035.226-.038.27-.106.156-.237.366-.176.548-.096.471.202.884.487 1.169.924.106.162.205.331.318.487.318.44.403.926.264 1.434-.226.818-.483 1.63-.728 2.44-.057.189-.123.37-.187.553-.094.261-.31.398-.535.532-.195.122-.306-.073-.457-.101-.158-.029-.396-.092-.474-.012-.235.235-.438.211-.617.056-.18.099-.32.17-.455.25-.184.112-.403.197-.542.355-.84.942-1.636 1.928-2.308 2.997-.889 1.42-1.72 2.874-2.64 4.275-.19.29-.417.612-.363.997.035.259-.028.482-.113.713-.028.07-.08.153-.068.218.068.41-.168.743-.257 1.113-.024.087-.071.171-.073.258a4.227 4.227 0 0 1-.316 1.423c-.177.444.15.816.62.738a.98.98 0 0 0 .287-.103c.439-.236.832-.579 1.377-.544a.156.156 0 0 0 .075-.018c.422-.188.858-.358 1.266-.576.648-.35 1.273-.736 1.912-1.103.726-.416 1.473-.802 2.182-1.246.967-.61 2.002-1.063 3.067-1.463.495-.186.969-.426 1.447-.647.672-.31 1.242-.792 2.004-.961.582-.132 1.115-.494 1.666-.76.104-.05.18-.15.278-.207.196-.113.387-.251.6-.312.398-.118.796-.22 1.116-.504.116-.1.267-.176.342-.298.092-.144.128-.327.168-.496.028-.12-.015-.268.042-.362.13-.217.174-.45.186-.685.01-.204.109-.357.191-.533.144-.294.231-.614.37-.91.146-.31.288-.638.502-.896.465-.57.988-1.091 1.464-1.651.252-.301.406-.658.368-1.07-.007-.113.021-.233.045-.345.108-.501.179-1.014.381-1.494.064-.145.071-.326.066-.491-.004-.442.262-.774.441-1.14a.135.135 0 0 1 .09-.066c.342-.038.575-.228.766-.499.05-.07.139-.11.214-.16.116-.073.236-.138.375-.22l.08.02c.198.045.434.18.585.113.325-.136.48.047.667.219.068.059.115.141.184.198.313.251.648.484.77.902.015.047.088.102.142.118.233.07.292.27.358.463.09.257.005.543.057.788.137.62-.198 1.089-.413 1.597-.044.105-.11.202-.176.293-.142.198-.37.22-.58.278-.344.09-.658.21-.858.538-.24.398-.552.525-.983.36-.601-.226-1.16-.136-1.72.122-.298.14-.486.379-.701.6-.75.778-1.28 1.714-1.85 2.615-.182.287-.288.623-.43.936.33.16.74.19 1.146.087a9.874 9.874 0 0 0 2.393-.995c.761-.428 1.485-.929 2.237-1.38.497-.299 1-.6 1.527-.828.794-.343 1.61-.635 2.423-.924.524-.188 1.037-.386 1.514-.684.787-.494 1.548-1.023 2.437-1.34.525-.189.947-.53 1.082-1.122.012-.059.061-.113.094-.167.212-.367.422-.74.641-1.103.25-.411.33-.858.335-1.33.002-.2.05-.417.139-.593.189-.381.417-.743.63-1.11.636-1.089 1.333-2.147 1.548-3.428.047-.285.028-.508-.196-.722-.358-.348-.537-.772-.412-1.287.035-.145.01-.303.007-.458 0-.073-.03-.155-.012-.221.07-.247.137-.499.24-.731.1-.221.109-.515.42-.57-.087-.408.052-.745.311-.99a.551.551 0 0 0 .194-.336c.014-.08.033-.16.063-.235.06-.138.13-.272.208-.435.242.076.384-.06.49-.28.038-.075.125-.18.184-.178.254.016.547-.224.733.108.304-.113.542-.127.768-.035.524.216 1.075.357 1.57.651.483.292.985.546 1.424.783-.017.165-.036.261-.033.357.002.1.047.203.028.294-.038.174-.104.344-.167.513-.16.414-.32.828-.493 1.24-.03.074-.115.13-.172.197-.108.124-.29.242-.304.38-.03.283-.182.4-.417.485a.387.387 0 0 0-.175.146.562.562 0 0 1-.464.235.496.496 0 0 0-.302.13c-.417.448-1.042.625-1.435 1.097-.255.038-.26.24-.262.388-.146.075-.33.113-.356.198-.092.296-.4.498-.365.842-.366.089-.358.087-.307.475.012.087-.042.188-.082.277-.035.082-.12.148-.13.226-.026.2-.125.329-.351.406"/>
        <path d="M70.508 10.192c.226-.077.325-.206.351-.406.01-.078.095-.144.13-.226.04-.09.094-.19.082-.277-.051-.388-.059-.386.307-.475-.036-.344.273-.546.365-.842.026-.085.21-.123.356-.198.002-.148.007-.35.262-.388.393-.472 1.018-.649 1.435-1.098a.496.496 0 0 1 .302-.13.562.562 0 0 0 .464-.234.387.387 0 0 1 .175-.146c.235-.085.386-.202.417-.484.014-.14.196-.257.304-.381.057-.066.141-.123.172-.198.172-.411.332-.825.493-1.239.063-.17.13-.339.167-.513.019-.091-.026-.195-.028-.294-.003-.096.016-.192.033-.357-.439-.237-.94-.491-1.424-.783-.495-.294-1.046-.435-1.57-.651-.226-.092-.464-.078-.768.035-.186-.332-.479-.092-.733-.108-.06-.003-.146.103-.184.179-.106.218-.248.355-.49.28-.078.162-.149.296-.208.434-.03.076-.05.156-.063.235a.551.551 0 0 1-.194.337c-.26.244-.398.58-.31.99-.312.054-.321.348-.42.569-.104.232-.17.484-.24.73-.02.067.01.15.01.222.003.155.03.313-.006.458-.125.515.054.939.412 1.287.224.214.243.437.196.722-.215 1.281-.912 2.34-1.549 3.428-.212.367-.44.729-.63 1.11-.089.176-.136.392-.138.592-.005.473-.085.92-.335 1.331-.22.362-.429.736-.641 1.103-.033.054-.082.108-.094.167-.135.592-.557.933-1.082 1.121-.889.318-1.65.847-2.437 1.34-.477.3-.99.497-1.514.685-.813.29-1.629.58-2.423.924-.528.228-1.03.529-1.527.828-.752.451-1.476.952-2.237 1.38a9.874 9.874 0 0 1-2.393.995c-.405.103-.815.072-1.145-.087.141-.313.247-.65.429-.936.57-.9 1.1-1.837 1.85-2.615.215-.221.403-.46.7-.6.561-.258 1.12-.348 1.72-.122.432.165.743.038.984-.36.2-.329.514-.449.858-.538.21-.059.438-.08.58-.278.066-.091.132-.188.176-.293.215-.508.55-.976.413-1.597-.052-.245.033-.531-.057-.788-.066-.193-.125-.392-.358-.463-.054-.016-.127-.07-.141-.118-.123-.418-.458-.65-.771-.902-.069-.057-.116-.14-.184-.198-.186-.172-.342-.355-.667-.219-.151.066-.387-.068-.585-.113l-.08-.02c-.139.082-.26.147-.375.22-.075.05-.165.09-.214.16-.191.27-.424.461-.766.499a.135.135 0 0 0-.09.066c-.179.366-.445.698-.44 1.14.004.165-.003.346-.067.491-.202.48-.273.993-.381 1.494-.024.112-.052.232-.045.345.038.412-.116.769-.368 1.07-.476.56-1 1.082-1.464 1.65-.214.26-.356.586-.502.897-.139.296-.226.616-.37.91-.082.176-.181.329-.19.533a1.435 1.435 0 0 1-.187.685c-.057.094-.014.242-.042.362-.04.169-.076.352-.168.496-.075.122-.226.197-.342.298-.32.285-.718.386-1.117.504-.212.06-.403.2-.599.312-.099.057-.174.158-.278.207-.551.266-1.084.628-1.666.76-.762.169-1.332.651-2.004.961-.478.221-.952.461-1.447.647-1.065.4-2.1.854-3.067 1.463-.71.444-1.456.83-2.182 1.246-.64.367-1.264.752-1.912 1.103-.408.218-.844.388-1.266.576a.156.156 0 0 1-.075.018c-.545-.035-.938.308-1.377.544a.98.98 0 0 1-.287.103c-.47.078-.797-.294-.62-.738.181-.461.299-.927.316-1.423.002-.087.049-.171.073-.258.09-.37.325-.704.257-1.113-.012-.065.04-.148.068-.218.085-.23.148-.454.113-.713-.054-.385.172-.708.363-.997.92-1.401 1.751-2.854 2.64-4.275.672-1.07 1.469-2.055 2.308-2.997.139-.158.358-.243.542-.356.134-.08.276-.15.455-.249.179.155.382.179.617-.056.078-.08.316-.017.474.012.15.028.262.223.457.1.224-.133.441-.27.535-.53.064-.184.13-.365.187-.553.245-.812.502-1.623.728-2.441a1.62 1.62 0 0 0-.264-1.434c-.113-.156-.212-.325-.318-.487-.285-.437-.698-.722-1.17-.924-.18-.08-.39-.141-.546.096-.045.068-.18.07-.271.106-.076.033-.151.068-.224.101l.167.445c-.327.228-.33-.167-.535-.212-.12.108-.32.157-.351.388-.007.045-.052.096-.092.12-.271.14-.295.418-.398.665-.205.485-.41.974-.68 1.423-.259.44-.37.905-.421 1.392a.555.555 0 0 0 .108.348c.288.395.351.797.08 1.22-.372.572-.75 1.14-1.122 1.712-.403.614-.782 1.244-1.211 1.841-.505.698-1.044 1.373-1.582 2.048-.7.884-1.162 1.884-1.438 2.97-.113.437-.35.748-.81.842-.39.08-.738-.033-.962-.353a2.224 2.224 0 0 1-.33-.771c-.066-.294.002-.614-.196-.887-.038-.056-.028-.207.019-.254.184-.178.073-.317-.021-.477-.288-.49-.55-.995-.658-1.559a12.696 12.696 0 0 1-.247-2.655c.004-.23-.003-.463-.012-.696-.033-.853.273-1.592.804-2.238.233-.285.377-.57.36-.943-.016-.454.012-.905-.007-1.357-.026-.646-.245-1.314-.858-1.796-.144.066-.309.153-.478.218-.295.109-.59.118-.882-.087-.3.217-.596.421-.881.645-.206.16-.198.171-.432-.021-.174.23-.368.446-.516.69-.108.184-.215.398-.224.605a23.1 23.1 0 0 0-.014 1.895c.005.149.101.323.21.435.38.4.78.783 1.183 1.162.092.085.224.122.337.183.226.123.26.196.134.417-.096.171-.07.308.069.406.155.113.19.233.108.393-.17.339-.127.668.003 1.009.113.296.282.588.157.926.222.402.036.764-.09 1.143-.046.146-.009.331.03.491.077.301.197.59.268.892.092.385.155.778.226 1.168.014.075-.005.162.028.226.095.183.076.287-.134.393-.148.08-.257.251-.155.463.02.047.002.115.002.155l-.655-.052a.274.274 0 0 1-.111-.033c-.375-.225-.762-.43-1.117-.682-.281-.195-.627-.326-.783-.67-.005-.011-.019-.026-.028-.026-.363-.002-.524-.331-.783-.498-.271-.174-.544-.348-.792-.553a19.828 19.828 0 0 1-1.247-1.1c-.551-.54-.672-1.404-.375-2.086.116-.26.392-.477.64-.649.251-.178.284-.34.24-.642-.151-1.03-.774-1.62-1.705-1.954-.193-.068-.39-.138-.591-.174-.172-.033-.366-.06-.495.125-.02.028-.06.045-.097.054-.325.09-.325.087-.42.376-.516-.06-.41.358-.469.666-.553.019-.664.534-.952.849-.04.044-.021.148-.012.225.048.417.123.835.147 1.258.02.315.259.435.462.546.299.162.638.251.961.367.21.073.323.195.392.423.084.28.2.595.586.62a.22.22 0 0 1 .104.048c.368.303.729.611 1.096.914.22.179.439.36.665.53.384.282.787.535 1.16.832.502.4 1.065.712 1.532 1.168.492.48 1.032.93 1.697 1.19.309.125.577.339.872.499.36.2.736.374 1.09.585.909.543 1.378 1.797.692 2.829-.493.738-1.025 1.458-1.756 1.996-.658.482-1.336.924-2.079 1.27-.735.338-1.464.698-2.197 1.049-.22.308-.582.364-.896.512-.023.012-.054.026-.063.042-.182.393-.575.447-.915.598-.101.047-.172.18-.23.289-.079.136-.128.282-.335.266-.05-.005-.109.084-.16.134-.192.185-.397.322-.717.27-.033.198-.146.327-.413.275-.078-.014-.23.094-.264.177-.19.49-.613.759-1.009 1.039-.407.289-.855.527-1.29.78-.35.207-.676.457-1.079.579a.98.98 0 0 0-.473.32c-.194.26-.458.338-.736.435-.337.12-.615.352-.962.472-.195.066-.339.28-.584.304-.054.007-.097.112-.146.169-.069.078-.12.195-.205.228-.453.16-.752.546-1.16.764-.123.064-.255.12-.389.144-.316.058-.464.364-.745.468-.056.02-.108.098-.155.094-.23-.022-.297.152-.406.294-.193.242-.363.51-.71.59-.115.023-.204.176-.299.275-.254.27-.469.59-.919.635-.059.143-.118.312-.203.468a.434.434 0 0 1-.212.188c-.292.098-.537.228-.641.552-.028.085-.125.165-.21.214-.13.075-.27.141-.417.174-.17.043-.344.045-.563.066-.007.019-.06.08-.05.127.064.362-.186.515-.445.628-.248.108-.394.308-.545.503-.113.15-.165.348-.389.4-.042.007-.066.099-.094.153-.035.068-.054.188-.101.2-.413.108-.486.667-.948.703-.035.002-.099.028-.099.047-.024.312-.377.34-.497.576-.047.094-.196.138-.302.2-.03.018-.09.018-.097.04-.113.34-.469.467-.657.74-.066.094-.128.195-.205.282-.066.07-.147.17-.23.179-.256.026-.402.198-.503.386-.19.352-.446.613-.828.745a.203.203 0 0 0-.094.066c-.285.378-.585.75-.844 1.147-.108.163-.207.405-.163.574.076.29.203.597.47.778.073.05.24-.002.348-.044a.34.34 0 0 0 .191-.184c.123-.435.51-.705.677-1.112a.9.9 0 0 1 .115-.202c.342-.452.689-.896 1.033-1.347.148-.193.275-.407.445-.581.368-.376.764-.727 1.136-1.098.307-.308.599-.635.898-.955.08-.085.151-.179.238-.254.467-.404.849-.891 1.28-1.328.422-.428.771-.932 1.297-1.265.32-.203.577-.508.872-.762.144-.127.309-.23.462-.348.735-.567 1.466-1.143 2.206-1.703a20.671 20.671 0 0 1 3.116-1.944c.505-.259.98-.576 1.462-.877a7.557 7.557 0 0 1 1.831-.814c.149-.045.302-.073.446-.127.837-.317 1.574-.124 2.232.433.394.334.761.693 1.15 1.032.248.214.51.41.762.616.08.066.153.139.221.214.231.256.458.515.714.807-.009.291.005.376-.421.451-.151.219-.149.416-.01.665.184.334.335.687.368 1.087.014.162.141.322.245.468.34.472.768.818 1.367.917.109.019.205.099.307.153.08.037.172.134.233.117.266-.073.377.094.493.28.106-.073.212-.146.318-.214.158-.099.276-.216.318-.414.04-.18.141-.29.363-.336.19-.035.363-.207.52-.346.145-.127.11-.312.07-.475-.126-.512-.248-1.027-.406-1.53a.833.833 0 0 0-.323-.41c-.318-.218-.646-.449-1.007-.571-.356-.122-.756-.115-1.138-.174-.151-.023-.323-.023-.448-.099-.443-.26-.872-.545-1.303-.827a.648.648 0 0 1-.158-.172c-.125-.179-.191-.374-.095-.583.1-.207.286-.301.51-.29.308.022.617.052.921.106.368.069.728.165 1.094.25.014.002.026.011.038.007.45-.16.883.019 1.322.098.059-.1.094-.183.148-.253.123-.151.264-.243.474-.165.132.047.274.073.41.11.377.102.755.18 1.148.095a64.689 64.689 0 0 1 3.69-.71c.22-.038.423.032.629.14.523.28 1.05.548 1.485.974.066.066.212.05.308.099.37.185.7.004 1.056-.068.45-.087.816-.294 1.181-.539.078-.054.191-.061.29-.068.274-.019.547.014.76-.252.098-.124.31-.167.48-.218.271-.078.476-.214.608-.473.43-.844.333-1.618-.221-2.389-.498-.689-1.167-1.162-1.855-1.615a.795.795 0 0 0-.361-.123c-1.002-.065-1.9.259-2.661.873-.316.256-.507.677-.724 1.041-.19.32-.33.668-.507.997-.125.228-.297.419-.565.496-.274.076-.55.142-.814.243-.275.103-.54.242-.803.366-.49.238-1.019.294-1.55.287-.438-.004-.878-.04-1.312-.094-.243-.03-.311.13-.41.301-.127-.04-.245-.087-.366-.117-.24-.064-.471-.207-.723.011-.087.083-.264.062-.302-.112-.04-.184-.158-.172-.295-.163-.784.057-1.57.12-2.354.16-.441.019-.842-.054-1.243-.322a4.849 4.849 0 0 0-.89-.47c-.27-.11-.611-.242-.632-.642-.007-.141.012-.245.16-.315.278-.127.502-.308.634-.607.076-.171.217-.331.37-.437 1.125-.78 2.247-1.566 3.472-2.185.436-.218.903-.388 1.353-.58.309-.13.604-.313.927-.388.643-.153 1.056-.659 1.6-.96.224-.127.44-.263.662-.395.055-.035.14-.054.158-.103.114-.294.356-.318.62-.365.194-.035.368-.176.545-.282 1.223-.743 2.454-1.474 3.665-2.234.66-.413 1.327-.787 2.07-1.034.17-.057.306-.221.448-.346.13-.117.221-.306.45-.2.03.017.092.014.11-.007.279-.298.694-.204 1.021-.362.102-.05.208-.103.293-.174.212-.176.207-.18.473-.172.238-.38.583-.616 1.042-.686.106-.017.205-.108.292-.181.352-.285 1.042-.186 1.304.223.21.334.471.637.721.945.142.172.314.304.561.269.047-.008.128.002.142.028.176.364.735.136.872.595.283-.285.544-.057.78.037.292.118.552.327.818.503.384.257.752.544 1.153.765.2.11.462.115.695.167.172.037.37.035.514.122a.74.74 0 0 0 .471.11c.36-.026.68.073.969.304.217.178.476.296.712.453.085.055.212.13.217.205.016.266.238.339.384.49.214.22.445.401.74.507.15.056.28.186.403.299.686.646 1.365 1.3 2.053 1.944.106.099.26.146.39.219.086.05.185.085.26.15.213.181.42.367.618.562.052.05.064.137.097.203.14.291.278.378.58.284.226-.068.36.014.46.174.344.564.933.814 1.444 1.166.123.085.255.181.328.304.094.169.215.24.396.225a1.46 1.46 0 0 1 .851.17c.047.026.09.063.14.07.176.03.36.036.461.226.123.23.184.491.087.712-.181.405.017.725.18 1.037.188.374.41.73.824.92.125.056.217.171.382.117.047-.016.14.021.172.061.246.323.535.177.8.066.139-.058.261-.11.417-.138.179-.033.334-.205.5-.318.077-.052.153-.127.24-.155.257-.092.36-.19.365-.47.007-.334.12-.588.333-.863.53-.682.558-1.456.242-2.248-.136-.343-.268-.684-.332-1.058a1.076 1.076 0 0 0-.453-.642c-.436-.268-.872-.57-1.393-.66-.554-.097-1.089-.07-1.492.406-.05.059-.122.122-.125.188-.02.414-.252.745-.412 1.103-.03.068-.047.146-.076.235-.457.183-.912.251-1.379-.066-.216.214-.403.165-.605-.068a.553.553 0 0 0-.425-.19c-.17-.003-.346-.137-.509-.231-.426-.238-.839-.503-1.27-.731a5.324 5.324 0 0 1-1.323-.997c-.242-.25-.528-.452-.785-.687-.6-.545-1.197-1.098-1.793-1.648-.262-.245-.46-.548-.797-.72-.28-.14-.273-.287-.05-.536.307-.336.415-.367.849-.211.2.07.4.143.632.228.243-.153.523-.259.87-.156.155.048.348-.042.523-.06.203-.024.403-.04.606-.062.063-.007.136.003.188-.026.295-.171.54-.075.76.15.34-.121.63-.385 1.017-.286.342-.21.689.007 1.073-.04.141.334.29.656.417.985a.752.752 0 0 0 .375.414 3.837 3.837 0 0 0 2.357.463c.5-.06 1-.148 1.396-.508.028-.025.06-.047.09-.073.143-.122.4-.068.475-.291.158-.468.507-.868.521-1.387.003-.212-.04-.426-.063-.675-.347-.068-.363-.419-.455-.687-.043-.124-.073-.24-.172-.313-.239-.166-.453-.352-.736-.472-.196-.082-.443-.108-.61-.296-.062-.069-.264-.09-.352-.04-.141.08-.242.077-.389.023-.122-.042-.28-.023-.412.007-.608.146-1.058.546-1.433 1.007-.556.688-1.257 1.015-2.131.964-1.273-.073-2.527.136-3.79.235-.154.011-.31-.01-.462.002a.936.936 0 0 0-.326.07c-.24.116-.242.111-.393-.108-.071-.1-.184-.169-.302-.272.085-.29.207-.536.578-.605.313-.056.47-.324.643-.564a1.43 1.43 0 0 1 .215-.247c.127-.11.268-.193.29-.39.009-.087.096-.21.174-.233.384-.113.533-.465.78-.715.58 0 1.082-.209 1.556-.517.566-.367 1.157-.673 1.829-.797.636-.122 1.268-.254 1.902-.381.262-.052.528-.09.785-.158a.733.733 0 0 0 .309-.197c.146-.153.302-.174.49-.104.104.04.224.038.32.085.284.144.557.299.833.454.09.05.165.139.257.157.67.14 1.34.268 2.013.386.356.061.631-.118.865-.362.165-.172.346-.336.382-.597.011-.08.075-.163.134-.23.229-.257.273-.596.417-.887.267-.553-.106-.908-.297-1.329-.09-.19-.318-.244-.445-.211-.283.068-.465-.09-.67-.19-.176-.088-.35-.224-.254-.52l-.396.077c-.052-.075-.113-.167-.132-.193-.168-.028-.3-.016-.382-.075-.424-.299-1.212-.03-1.36.55-.014.047-.02.118-.052.139-.377.23-.431.691-.714.99-.06.061-.104.153-.18.186-.138.063-.186.155-.193.298-.002.069-.037.172-.09.2-.334.186-.633.463-1.079.341a.91.91 0 0 0-.716.07c-.224.128-.561.102-.729.264-.202.198-.452.09-.639.235a3.402 3.402 0 0 1-.58.386c-.44.214-.886.42-1.343.595-.808.308-1.626.583-2.44.881-.19.071-.386.16-.544.287-.514.41-1.028.819-1.511 1.265-.212.196-.356.468-.516.718-.158.246-.274.514-.516.712a.862.862 0 0 1-.8.181.63.63 0 0 0-.476.045c-.233.12-.28.108-.448-.12-.113-.155-.24-.257-.436-.285-.924-.14-1.793-.486-2.668-.794-.936-.33-1.82-.786-2.61-1.416-.515-.414-.388-1.053.161-1.31.047-.023.092-.054.141-.063.302-.061.528-.235.755-.43.148-.132.334-.26.523-.3.344-.067.561-.34.867-.465.189-.075.347-.22.533-.296.335-.136.674-.273 1.026-.348.36-.08.685-.216 1.013-.374.686-.327 1.388-.63 2.06-.987.566-.299 1.17-.522 1.695-.901.137-.099.316-.165.486-.188.367-.054.598-.376.947-.459a.429.429 0 0 0 .205-.105c.285-.315.65-.475 1.05-.584.046-.014.112-.032.129-.07.19-.4.63-.5.926-.771.172-.16.472-.179.717-.257.155-.047.323-.051.443-.202.054-.068.184-.08.283-.099.235-.047.436-.145.573-.35.113-.165.282-.237.462-.322.33-.155.627-.381.935-.58.033-.02.055-.08.08-.08.34.002.465-.363.762-.436.068-.016.13-.075.184-.122.11-.096.214-.134.346-.035.151.115.288.091.391-.073.078-.125.189-.188.328-.153.436.113.87-.007 1.304.01.45.02.902-.005 1.346.044.186.019.384.146.528.282.264.25.546.414.924.41.374-.005.693.272 1.074.246.217-.014.439-.023.642-.091a.642.642 0 0 1 .358-.008c.026-.223.238-.127.356-.202.106-.063.228-.106.344-.153.045-.018.115-.051.137-.035.221.181.445-.077.664.01.024.009.078-.022.097-.047.141-.203.295-.238.476-.055.026.026.076.052.106.045.465-.108.917.184 1.396.028.153-.051.363.08.6.139.036-.019.126-.068.222-.106.069-.026.175-.066.215-.035.268.197.466 0 .655-.125.177-.115.323-.195.528-.08.057.031.167.04.22.007.207-.14.438-.16.673-.206.359-.073.696-.243 1.045-.37a.489.489 0 0 1 .181-.035c.679.038 1.28-.291 1.928-.395.217-.226.516-.202.788-.268.122-.028.282-.075.337-.167.155-.273.44-.284.678-.383a.43.43 0 0 1 .302.01c.262.107.5.27.795.281.023.003.066.022.066.033.03.344.403.398.549.652.276.489.653.856 1.27.881.304.014.606.069.908.094.059.007.153.012.177-.02.115-.163.306-.172.462-.255.28-.15.584-.305.78-.54.144-.172.243-.374.452-.48.14-.075.278-.141.481-.242.043-.097.123-.268.186-.445a.486.486 0 0 0 .022-.263c-.076-.245-.055-.477.016-.72.035-.115.024-.251.012-.378-.019-.214-.068-.433-.073-.65-.007-.215-.092-.354-.255-.488-.2-.162-.37-.355-.554-.539-.035-.035-.056-.094-.099-.117-.532-.322-1.096-.558-1.732-.482-.441.05-.818.298-1.224.463-.047.021-.091.052-.139.066-.235.063-.509.068-.697.197-.189.13-.278.398-.439.579-.252.289-.544.543-.766.863-.101.15-.214.275-.203.477.005.08-.058.162-.068.183-.328.118-.599.226-.874.31-.545.163-1.094.304-1.639.466-.254.076-.537.104-.671.308-.238.033-.446.029-.627.1-1.068.394-2.129.803-3.277.902-.502.045-1.004.068-1.508.09-.568.018-1.139.035-1.707.035-.643 0-1.287-.022-1.93-.03a8.336 8.336 0 0 0-.543.004c-.214.014-.41-.007-.587-.144-.066-.054-.165-.065-.25-.084-.31-.073-.464-.24-.473-.525-.012-.249.139-.451.412-.538.359-.11.722-.207 1.075-.322.21-.066.408-.162.618-.23.252-.078.488-.163.615-.42.026-.053.097-.084.153-.114.832-.47 1.615-1.028 2.503-1.395.14-.056.25-.178.378-.263.502-.339 1.02-.659 1.51-1.014.717-.526 1.415-1.079 2.12-1.622.653-.503 1.305-1.011 1.956-1.517.132-.103.264-.207.389-.32.139-.126.278-.24.45-.336.358-.197.681-.463 1.007-.714.292-.226.535-.577.86-.678.476-.148.719-.515 1.056-.797.231-.193.493-.357.721-.555.09-.075.123-.211.189-.327.229-.063.323.151.471.254.172-.129.34-.12.53-.028.498.242 1.007.435 1.582.315.217-.047.427-.09.606-.23.172-.141.37-.186.599-.19.19-.003.391-.036.476-.29.035-.115.203-.183.297-.284.094-.1.22-.198.255-.32.122-.43.219-.865.315-1.305.02-.082.04-.21-.004-.254-.187-.193-.13-.426-.165-.649a1.583 1.583 0 0 0-.234-.562 9.168 9.168 0 0 0-.664-.997c-.352-.44-.847-.663-1.386-.788-.062-.011-.147-.02-.191.01-.32.225-.72.367-.93.726-.753 1.308-1.477 2.631-2.25 3.925-.94 1.573-2.216 2.777-3.979 3.404-.48.17-.889.454-1.25.823a10.945 10.945 0 0 1-2.602 1.99c-.464.251-.895.564-1.34.85-.255.163-.524.292-.708.58-.094.145-.377.227-.582.241-.269.02-.394.146-.486.363-.014.033-.028.072-.044.108-.14.265-.279.355-.472.303-.2-.05-.474-.336-.462-.517.007-.12.052-.292.132-.336.368-.196.453-.558.57-.894.203-.564.375-1.14.564-1.712.073-.22.155-.437.014-.708"/>
    </g>
</svg>
