<svg xmlns="http://www.w3.org/2000/svg" width="72" height="33" viewBox="0 0 72 33">
    <path fill="#FFF" fill-rule="evenodd" d="M12.45 16.042c.04-.213.18-.298.317-.39.354-.239.701-.487 1.06-.715.212-.137.418-.303.706-.254.064.01.164-.067.22-.131.086-.096.06-.375-.029-.49-.084-.112-.2-.122-.393-.033-.025.013-.05.029-.072.041-.146.081-.27.099-.427-.007-.12-.08-.312-.157-.428-.116-.227.081-.432.037-.644.018-.372-.032-.747-.043-1.114-.103a7.692 7.692 0 0 0-2.309-.01c-.36.05-.71.033-1.05-.08-1.25-.41-2.482-.287-3.69.187-.993.39-1.972.818-2.961 1.224-.273.11-.555.017-.831.005-.038-.002-.081-.044-.11-.077-.244-.303-.42-.642-.422-1.04-.001-.28.033-.566.068-.845.017-.142.049-.293.117-.415.078-.14.211-.247.193-.435-.006-.044.062-.106.108-.144.246-.204.49-.406.745-.594.073-.053.186-.055.281-.07.096-.015.219.02.289-.03.158-.105.283-.037.39.044a.642.642 0 0 0 .414.152c.16-.002.295.065.436.133.37.181.567.509.737.86.065.133.153.21.305.213.037.122-.004.282.15.346.087-.036.165-.098.247-.102.213-.012.43.01.642.001.31-.012.604-.113.932.01.224.084.512-.007.772-.007.29 0 .585-.01.87.035.137.02.263.017.395.006.119-.01.237-.01.355-.01.581-.003 1.164-.005 1.745-.005.628 0 1.255-.007 1.882.008.426.013.853.058 1.278.085.108.008.223-.012.324.016.652.179 1.328.205 1.994.301.045.007.097.02.135.002.183-.089.35-.034.524.031.145.053.297.084.442.138.246.088.489.191.735.284.19.07.361.022.464-.123.119-.163.107-.323-.033-.498-.039-.047-.088-.097-.101-.155-.038-.153-.137-.25-.262-.334a5.78 5.78 0 0 1-.302-.232c-.352-.283-.698-.573-1.054-.851a35.809 35.809 0 0 0-.96-.718 22.36 22.36 0 0 0-.873-.601c-.678-.441-1.443-.67-2.206-.91-.131-.04-.244-.132-.39-.216-.164.056-.333-.05-.506-.118-.372-.145-.738-.303-1.11-.447-.19-.072-.387-.129-.62-.204-.014.007-.085.026-.117.073-.082.118-.2.139-.321.18-.262.083-.535.098-.801.151-.168.032-.335.144-.496.135-.16-.01-.314-.125-.472-.191-.032-.013-.07-.015-.105-.024-.297-.083-.614-.106-.88-.269-.384-.233-.593-.608-.747-1.018-.013-.032 0-.074-.003-.109-.022-.182-.031-.363-.071-.54a.434.434 0 0 1 .073-.384c.092-.123.16-.267.243-.395a.73.73 0 0 1 .173-.207.868.868 0 0 0 .323-.395.349.349 0 0 1 .127-.139c.112-.07.232-.132.297-.168.157.031.263.054.372.072.163.032.306-.039.46-.073.211-.047.447-.002.668.035.122.02.232.098.367.057.027-.008.077.035.107.065.155.145.299.305.46.444.33.282.379.65.318 1.043-.03.205.152.396.019.602-.006.006.01.035.022.047.157.134.218.327.316.5.031.06.099.119.162.137.175.047.338.164.543.078.07-.028.18.015.26.052.178.08.334.223.552.19.404.223.88.298 1.24.613a.34.34 0 0 0 .115.058c.249.08.509.13.739.245.15.075.287.165.463.175.043.004.1.057.118.099.063.153.18.171.327.183.16.012.355-.013.417.214.01.034.085.058.134.073.07.02.141.031.17.036.105.136.163.3.27.337.333.12.456.479.76.62.02.008.036.044.04.07.02.181.12.227.286.175.022-.006.065 0 .074.016.083.143.32.095.364.292.004.019.058.03.09.04.085.023.172.052.258.063.098.009.173.154.285.04.055.067.11.118.201.151.142.05.269.14.395.226.223.15.277.443.487.602.21.16.295.375.332.629.02.138.073.295.168.386.224.219.485.4.725.606.233.197.525.317.717.569.061.08.15.092.248.056.13-.048.215-.002.248.128.03.112.104.136.207.13.05-.003.11-.01.155.011.196.088.425-.063.611.085.015.012.053-.013.08-.01.258.022.52.024.771.08.136.03.262.062.397.019a.59.59 0 0 1 .47.051c.062.032.14.082.2.067.131-.032.226.038.333.078.17.063.343.182.508.167.282-.023.57.11.85-.032.025-.014.07.004.102.017.268.111.54.18.835.127a.3.3 0 0 1 .16.029c.229.105.497.024.724.153.104.06.232.1.351.104.456.015.888.151 1.331.228.528.09 1.05.224 1.571.338.25.053.49.117.724.228.227.11.475.18.72.249.135.038.287.025.424.064.224.063.463.004.683.114.122.06.28.069.42.059.21-.011.412-.011.605.085.032.016.07.018.106.026.416.093.766-.21.662-.664a6.189 6.189 0 0 0-.824-1.92c-.35-.55-.68-1.12-1.128-1.598a.438.438 0 0 1-.117-.347c.007-.2-.014-.227-.195-.26a.438.438 0 0 1-.283-.182.6.6 0 0 0-.521-.243c-.22.005-.402.105-.597.175-.198.07-.397.161-.6.179-.462.04-.925.048-1.388.055a1.36 1.36 0 0 1-.427-.075c-.58-.184-1.153-.383-1.734-.56-.33-.1-.666-.177-1.004-.248a2.385 2.385 0 0 0-.489-.035c-.167.002-.258-.167-.456-.144-.164.019-.339-.142-.518-.167a.631.631 0 0 1-.427-.27c-.193-.261-.48-.235-.746-.276-.041-.007-.106.036-.137.073-.067.077-.133.108-.238.084-.056-.014-.12.018-.18.026-.287.045-.518.28-.828.246-.027-.002-.06.035-.09.055-.335.261-.888.071-.992-.28-.02-.068-.098-.118-.178-.207 0-.022.007-.1.011-.165l-.253-.127c.183-.124.146-.276.087-.401-.07-.145-.1-.312-.287-.396a.287.287 0 0 1-.154-.31c.078-.319.028-.679.417-.873.207-.1.38-.271.618-.316a.368.368 0 0 0 .175-.07c.134-.131.306-.145.473-.17.236-.036.466-.017.636.171.32.356.635.719.945 1.086.042.05.045.133.073.199.085.206.168.411.262.613.033.069.1.12.14.186.073.121.169.177.316.154a.514.514 0 0 1 .257.023c.172.073.336.167.503.251.407.203.814.402 1.219.609.426.22.887.305 1.36.344.397.032.766.132 1.087.383.245-.033.482-.166.744-.063.053.02.155-.01.198-.055.098-.102.212-.087.331-.094.076-.003.153-.024.227-.045.2-.06.404-.142.602-.038.235.122.41.037.584-.089-.02-.109-.053-.196-.048-.283.012-.187.013-.19-.17-.23a.65.65 0 0 1-.21-.101c-.09-.06-.168-.14-.257-.199-.742-.49-1.527-.915-2.2-1.506-.46-.406-.99-.526-1.6-.38-.408.095-.832.125-1.232-.057a.55.55 0 0 1-.231-.174c-.057-.093-.112-.138-.225-.155-.07-.01-.173-.11-.177-.174-.01-.178-.136-.299-.208-.43-.104-.189-.142-.386-.2-.582-.023-.083.01-.161.041-.25.067-.189.21-.392.049-.58.096-.15.166-.288.26-.405.235-.285.603-.358.895-.552.14-.092.258.05.39.043.027-.002.055 0 .082-.002.376-.03.69.137.994.318.504.303.87.733 1.1 1.278.058.131.07.254.027.394-.074.239-.132.483-.2.731.233.14.33.41.61.441.171.223.446.2.689.28.022.22.116.38.354.412.04.006.077.043.115.067.122.076.24.153.362.227.105.065.25.099.316.192.147.208.348.27.55.29.09.146.169.274.249.4.172.274.245.304.562.248.232-.043.3-.121.207-.321-.112-.242-.089-.498-.126-.747-.09-.566-.178-1.133-.271-1.698-.04-.243-.109-.48-.134-.723a3.741 3.741 0 0 0-.296-1.13c-.138-.314-.25-.64-.382-.958-.05-.123-.088-.274-.181-.35a.386.386 0 0 1-.151-.289c-.01-.218-.092-.326-.306-.3-.119-.38-.4-.538-.733-.633-.055.038-.098.075-.145.1-.245.13-.518.216-.71.439-.03.035-.099.04-.152.05-.43.093-.739-.123-1.003-.416-.248-.277-.357-.633-.481-.972a.764.764 0 0 1 .03-.555c.129-.236.205-.484.28-.736.171-.58.525-1 1.116-1.153.238-.062.412-.155.562-.34.125-.154.225-.164.407-.105.06.022.136.013.201.017.14.009.302-.02.415.039.099.051.19.075.292.102.194.052.418.096.413.382 0 .037.035.098.068.109.115.04.116.145.16.23.146.287.113.581.054.872-.047.245-.077.51-.354.658-.15.082-.23.254-.264.436-.027.15.073.232.157.326.025.025.032.065.046.1.082.197.22.345.397.462.106.07.142.162.12.297-.013.1.018.211.049.312.128.418.345.812.289 1.277-.015.132.023.236.178.296.208.078.247.186.196.41-.01.05-.042.104-.035.155.024.194.058.388.096.58.013.07.052.133.079.198.04.097.104.19.12.29.098.659.188 1.318.284 1.976.019.116.034.245.092.341.117.187.166.388.188.604.015.148.105.284-.002.44-.03.044.007.141.03.208.062.19.154.368.196.562.06.254.192.447.403.588.1.068.167.144.212.266.042.11.152.195.231.29.107.13.25.246.312.394.125.297.203.616.303.926.07.214.122.443.232.635.09.154.134.395.415.358-.125.316.284.43.222.71-.003.02.037.06.066.077.153.087.19.235.193.392.004.28.016.563-.014.841-.034.342.304.696.623.688.08-.003.175-.011.24.025.286.16.579.176.877.066.143.12.143.116.337.109.078-.003.16.012.238.028.25.054.438.286.723.239.02-.004.054.021.064.044.08.158.213.092.336.082.133-.008.28-.041.4 0 .518.183 1.05.262 1.596.315 1.002.099 2.003.221 3.004.334.144.017.302.013.425.077.166.088.31.18.502.064.032-.02.087.007.132.01.18.022.36.04.54.065.432.067.881-.038 1.304.155.211.097.455.122.682.183.333.087.665.193 1.002.26.948.183 1.912.228 2.875.277a.774.774 0 0 0 .396-.085.834.834 0 0 1 .616-.066c.113.025.169-.025.227-.107.163-.233.031-.454-.069-.632a3.389 3.389 0 0 1-.287-.648c-.104-.323-.294-.537-.546-.717-.452-.317-.913-.62-1.372-.928-.08-.054-.15-.098-.092-.218.055-.114-.033-.202-.118-.194-.235.014-.3-.166-.405-.306-.053-.069-.098-.146-.15-.223-.13.053-.238.113-.36-.01a8.083 8.083 0 0 0-.684-.619c-.29-.233-.607-.43-.982-.509-.2-.044-.407-.08-.605-.142-.19-.057-.371-.14-.555-.215-.183-.073-.361-.04-.53.033-.242.108-.471.243-.716.339-.28.11-.57.263-.856.27-.69.015-1.328-.191-1.853-.661a.553.553 0 0 1-.146-.224c-.182-.552-.346-1.106-.32-1.706.031-.671.316-1.146.922-1.433a.64.64 0 0 1 .543-.002c.117.045.253.113.362.086.233-.057.37.08.53.187.058.039.123.084.19.087.309.02.601.063.888.209.23.113.49.154.614.418.032.07.12.123.128.188.054.426.228.804.395 1.187.066.15.148.276.287.35a44.921 44.921 0 0 0 2.35 1.196c.255.124.43.33.594.55.059.08.126.156.178.239.082.134.2.144.334.112.061-.016.117-.046.194-.078.207.235.369.522.688.627.008.003.01.013.017.02.165.206.323.415.496.612.145.162.302.313.464.458a.35.35 0 0 0 .408.058c.145-.075.193-.213.203-.367a.458.458 0 0 0-.013-.165c-.115-.344-.228-.688-.359-1.026-.036-.096-.131-.17-.204-.249-.186-.198-.41-.367-.554-.59-.146-.223-.226-.494-.306-.754a.59.59 0 0 1 0-.368c.133-.35.29-.691.445-1.032.049-.108.11-.228.246-.237.148-.009.318-.03.439.032.143.07.246.053.348-.031.11-.093.226-.107.357-.094.088.007.179.012.27.017-.018.154-.03.295.15.37.04.017.049.11.077.166.032.074.05.16.102.218.288.314.374.693.356 1.104-.007.127-.006.271-.07.368-.156.238-.227.5-.271.767-.032.2-.117.311-.296.368-.27-.142-.298-.088-.431.07.014.275.026.518.042.76.005.072.013.145.029.216.049.225.108.447.152.674.067.358.113.718.184 1.075.12.596.444 1.023 1.046 1.206.103.032.2.083.301.122.443.167.896.29 1.37.336.397.04.799.067 1.19.14.852.16 1.709.251 2.574.258.654.007 1.31 0 1.965 0 .136.001.273.014.408.005.274-.014.55-.074.815-.05.437.041.85-.09 1.27-.147.43-.059.854-.166 1.29-.19.08-.005.16-.027.242-.04.305-.05.61-.106.914-.146.368-.047.74-.072 1.108-.124.17-.024.334-.089.5-.133.388-.104.774-.203 1.16-.308a.642.642 0 0 0 .153-.063c.27-.155.603-.14.86-.33a.24.24 0 0 1 .186-.02c.079.023.194.066.213.125.068.217.004.444-.081.639-.05.114-.21.207-.34.25-.318.11-.646.19-.97.278a.142.142 0 0 1-.08-.004c-.269-.091-.525-.056-.784.06-.138.062-.294.094-.447-.002-.05-.03-.138-.01-.205.001-.081.015-.16.045-.237.07-.223.07-.476-.012-.687.13-.014.009-.046-.017-.071-.02-.086-.011-.187-.05-.255-.018-.169.08-.377-.057-.526.108-.009.01-.055-.003-.076-.017-.27-.18-.556.102-.831-.016-.031-.014-.094.045-.144.068-.039.018-.092.06-.119.045-.146-.068-.261.02-.39.056-.168.044-.337.093-.52.046-.193-.049-.398-.071-.522.16-.015.03-.07.041-.083.049-.13-.083-.228-.157-.34-.207a1.052 1.052 0 0 0-.307-.083c-.068-.009-.157-.006-.21.03-.199.136-.39.103-.595.032a.306.306 0 0 0-.2.013c-.115.05-.221.12-.317.175-.268-.17-.527-.083-.786-.042-.095.014-.211.061-.286.025-.226-.105-.437-.029-.65.023-.122.033-.236.1-.353-.01-.024-.023-.086-.002-.127-.015-.2-.063-.416.044-.617-.06a.965.965 0 0 0-.277-.087c-.321-.054-.656.032-.976-.074-.061-.018-.141.025-.213.04-.052.01-.122.05-.155.03-.146-.092-.319-.034-.456-.082-.244-.083-.5-.072-.738-.15-.196-.067-.376-.138-.597-.075a.687.687 0 0 1-.402-.026c-.276-.106-.565-.107-.85-.143-.35-.045-.702-.105-1.054-.12-.342-.014-.692-.046-1.013.146-.054.032-.186.026-.223-.015-.125-.144-.244-.12-.348-.024-.155-.168-.328-.18-.515-.159-.05.006-.122.03-.147.006-.108-.099-.199-.039-.301.004-.08.035-.178.08-.255.062-.253-.062-.495-.202-.767-.06-.012.005-.035 0-.053-.004-.238-.053-.464-.178-.72-.1-.558-.121-1.119-.234-1.673-.363a8.646 8.646 0 0 0-1.705-.187c-.64-.015-1.25.158-1.844.358-.831.282-1.12 1.186-.854 1.883.103.271.234.53.346.798.093.217.148.453.264.656.254.433.356.918.419 1.4.058.456.233.875.336 1.315.076.327.188.643.277.967.051.193.093.389.136.584.071.328.136.657.207.985a.153.153 0 0 0 .036.071c.203.182.129.408.053.601-.061.158-.052.275.032.406.128.204.277.401.371.621.064.15.143.32.017.505-.172.247-.313.514-.47.767-.028.048-.063.114-.104.122-.297.052-.584.292-.898.063-.167.147-.292.427-.55.17-.18.121-.178.12-.397.03-.025-.012-.054-.02-.077-.012-.153.048-.248-.051-.328-.144-.096-.106-.175-.231-.252-.353-.368-.59-.454-1.189-.088-1.83.107-.188.197-.265.414-.256.212.011.46.01.637-.087.463-.253.774-.788.705-1.33a13.969 13.969 0 0 0-.208-1.154c-.048-.221-.123-.437-.197-.651-.07-.206-.015-.46-.214-.617-.006-.005-.007-.019-.005-.027.064-.26-.07-.483-.14-.713-.086-.295-.21-.576-.32-.865a.19.19 0 0 0-.046-.066l-.34-.312c-.017.022-.058.052-.066.088-.037.162-.172.211-.289.192-.162-.032-.218.018-.246.162-.01.05-.058.09-.083.138-.132.25-.268.496-.386.752-.092.199-.152.413-.241.615-.05.106-.11.226-.2.287-.234.158-.495.28-.549.601-.217.136-.25.372-.317.587-.078.247-.198.45-.44.566-.116.053-.149.136-.112.266.034.116-.012.203-.14.257-.166.07-.18.125-.108.291.036.083.093.162.106.249.058.386.112.773.147 1.161.01.11-.012.25-.074.334-.267.362-.542.715-.837 1.055-.096.112-.248.186-.388.241-.19.073-.39.11-.588.164-.045-.208-.046-.199-.23-.198-.255.002-.508-.012-.768-.02-.073-.241-.24-.363-.45-.43-.123-.036-.252-.059-.36-.084-.128-.535.043-1.003.311-1.376.187-.261.4-.502.59-.763.154-.216.358-.313.611-.372.576-.133 1.069-.413 1.424-.905.096-.135.194-.268.297-.395a9.124 9.124 0 0 0 1.024-1.593c.187-.363.264-.759.318-1.157.018-.13.018-.255.197-.276.047-.006.118-.086.122-.134.01-.238.187-.388.28-.58a1.59 1.59 0 0 0 .154-.575c.016-.276-.127-.49-.377-.613-.296-.146-.563-.075-.817.121a5.575 5.575 0 0 1-2.094 1.041c-.592.146-1.186.29-1.77.463-.498.149-.984.338-1.475.507-.456.159-.913.314-1.37.473-.334.12-.475.373-.489.718a.397.397 0 0 1-.092.242c-.241.25-.506.462-.842.597-.345.135-.672.32-.997.502-.166.094-.3.239-.512.2-.032-.003-.08.006-.103.028-.118.116-.25.057-.364.066-.094-.114.078-.336-.203-.35l-.102.321-.168-.04c-.066-.02-.142-.077-.196-.058-.19.066-.28-.06-.345-.182-.172-.317-.276-.655-.242-1.023.012-.136.031-.274.037-.41.016-.383.182-.692.48-.917.484-.36.98-.703 1.471-1.05.114-.082.23-.155.345-.23.166-.105.345-.088.528-.066.162.016.138.173.209.254.075.084.178.223.256.211.234-.03.335.071.367.236.142.022.251.043.36.057.151.016.31.063.455.035.877-.165 1.748-.372 2.588-.68 1.112-.412 2.208-.866 3.329-1.253.232-.08.498-.162.637-.401.093-.16.226-.258.374-.35.046-.027.11-.05.133-.093.141-.258.418-.343.629-.511.05-.039.114-.066.153-.114.226-.27.495-.48.797-.66.292-.172.273-.521-.02-.68a.683.683 0 0 0-.204-.067c-.346-.058-.713-.035-1-.29a.108.108 0 0 0-.05-.023c-.315-.077-.63-.17-.951-.224-.512-.084-1.026-.138-1.54-.209-.583-.08-1.165-.187-1.751-.245-.801-.077-1.572-.27-2.336-.507-.355-.11-.722-.18-1.083-.263-.507-.116-1.034-.093-1.529-.327-.38-.178-.832-.206-1.253-.295-.08-.017-.165.007-.245-.005-.157-.02-.323-.026-.467-.083-.272-.107-.537-.222-.838-.201-.108.006-.225-.017-.32.02-.114.04-.213.127-.31.205-.068.054-.109.156-.181.184a1.029 1.029 0 0 0-.403.302c-.094.11-.216.154-.339.217-.208.102-.396.243-.602.35-.217.11-.438.232-.67.284-.505.118-1.023.184-1.53.291-.272.06-.513.193-.672.44-.046.066-.114.121-.176.174-.279.234-.542.49-.864.671a.847.847 0 0 0-.252.247c-.19.249-.482.32-.742.447a.095.095 0 0 1-.078-.001c-.206-.127-.418-.121-.642-.052-.058.018-.125.001-.188-.004-.096-.009-.191-.024-.304-.038l-.035-.046c-.09-.11-.162-.288-.274-.316-.24-.064-.246-.234-.274-.41-.012-.063-.002-.13-.015-.19-.063-.277-.147-.552-.031-.84.012-.031-.004-.093-.027-.126-.098-.14-.044-.278.004-.414.063-.182.235-.306.313-.465.196-.407.586-.524.927-.716a1.1 1.1 0 0 1 .226-.088c.165-.05.3.038.442.095.23.099.455.167.71.07.307-.119.534-.056.7.223.235.386.583.577 1.006.675.225.05.434-.002.65-.033.754-.112 1.457-.407 2.166-.664.226-.082.432-.225.646-.339a1.172 1.172 0 0 0-.595-.543 6.884 6.884 0 0 0-1.758-.477c-.608-.09-1.227-.122-1.84-.194-.406-.048-.816-.096-1.207-.197-.59-.151-1.168-.34-1.744-.53-.372-.12-.743-.232-1.136-.27-.652-.064-1.304-.097-1.934-.303-.373-.122-.756-.114-1.09.16-.031.028-.082.037-.124.053-.278.113-.558.232-.837.34-.318.122-.558.338-.767.6a.993.993 0 0 1-.336.272c-.271.132-.556.235-.834.35-.828.333-1.676.624-2.355 1.249-.15.139-.238.272-.208.488.046.35-.04.664-.334.899-.083.066-.138.165-.205.253-.031.041-.05.1-.09.129-.147.108-.293.22-.452.305-.152.081-.286.242-.481.138a.726.726 0 0 1-.605.42.393.393 0 0 0-.254.104.83.83 0 0 1-.138.104c-.093.052-.191.097-.305.154-.101-.147-.24-.132-.394-.055-.053.026-.148.047-.18.02-.133-.119-.4-.11-.358-.377-.217-.068-.355-.163-.44-.312-.195-.347-.438-.665-.583-1.043-.14-.372-.307-.731-.445-1.053.08-.085.134-.131.174-.186.042-.057.063-.134.113-.177.097-.081.208-.147.317-.215.27-.162.54-.324.814-.48.05-.03.122-.024.182-.037.114-.022.266-.01.335-.081.14-.145.275-.146.442-.091.048.016.11.01.16-.006a.393.393 0 0 1 .36.069c.06.04.154.069.223.058.427-.072.85.1 1.274.005.158.09.249-.022.315-.104.113.021.232.08.283.043.18-.126.44-.106.57-.313.241.108.236.106.377-.134.032-.053.106-.086.167-.12.056-.03.132-.03.17-.07.102-.1.214-.13.373-.075"/>
</svg>
